<?xml version="1.0" standalone="no"?>
<!DOCTYPE svg PUBLIC "-//W3C//DTD SVG 1.1//EN" "http://www.w3.org/Graphics/SVG/1.1/DTD/svg11.dtd" >
<svg>
<metadata>
Created by FontForge 20090622 at Mon Mar 27 15:28:07 2017
 By deploy user
Copyright (c) Mark Simonson, 2005. All rights reserved.
</metadata>
<defs>
<font id="ProximaNovaExCn-Light" horiz-adv-x="360" >
  <font-face 
    font-family="Proxima Nova ExCn Lt"
    font-weight="300"
    font-stretch="normal"
    units-per-em="1000"
    panose-1="2 0 5 6 3 0 0 2 0 4"
    ascent="790"
    descent="-210"
    x-height="483"
    cap-height="667"
    bbox="-100 -264 811 886"
    underline-thickness="20"
    underline-position="-113"
    unicode-range="U+000D-U+FB04"
  />
<missing-glyph horiz-adv-x="486" 
d="M419 -90h-351v842h351v-842zM387 -60v782h-288v-782h288z" />
    <glyph glyph-name="f_f_j" unicode="ffj" horiz-adv-x="596" 
d="M336 0h-49v440h-49v43h49v94q0 45 24 72.5t61 27.5q24 0 44 -14l-16 -38q-7 8 -21 8q-20 0 -31.5 -15t-11.5 -41v-94h68v-43h-68v-440zM511 560q-15 0 -26.5 11t-11.5 27t11.5 27t26.5 11q16 0 27 -11t11 -27t-11 -27t-27 -11zM455 -196q-41 0 -58 35l27 31
q10 -22 29 -22q34 0 34 69v566h49v-566q0 -62 -20.5 -87.5t-60.5 -25.5zM123 0h-49v440h-49v43h49v94q0 45 24.5 72.5t66.5 27.5q41 0 62 -27l-22 -38q-14 21 -35 21q-47 0 -47 -56v-94h68v-43h-68v-440z" />
    <glyph glyph-name="f_j" unicode="fj" horiz-adv-x="383" 
d="M123 0h-49v440h-49v43h49v94q0 45 24 72.5t61 27.5q24 0 44 -14l-16 -38q-7 8 -21 8q-20 0 -31.5 -15t-11.5 -41v-94h68v-43h-68v-440zM298 560q-15 0 -26.5 11t-11.5 27t11.5 27t26.5 11q16 0 27 -11t11 -27t-11 -27t-27 -11zM242 -196q-40 0 -58 35l27 31
q10 -22 29 -22q34 0 34 69v566h49v-566q0 -62 -20.5 -87.5t-60.5 -25.5z" />
    <glyph glyph-name="f_f" unicode="ff" horiz-adv-x="426" 
d="M123 0h-49v440h-49v43h49v94q0 45 24.5 72.5t66.5 27.5q41 0 62 -27l-22 -38q-14 21 -35 21q-47 0 -47 -56v-94h68v-43h-68v-440zM336 0h-49v440h-49v43h49v94q0 45 24.5 72.5t66.5 27.5q41 0 62 -27l-22 -38q-14 21 -35 21q-47 0 -47 -56v-94h68v-43h-68v-440z" />
    <glyph glyph-name="fi" unicode="fi" horiz-adv-x="383" 
d="M123 0h-49v440h-49v43h49v94q0 45 24 72.5t61 27.5q24 0 44 -14l-16 -38q-7 8 -21 8q-20 0 -31.5 -15t-11.5 -41v-94h68v-43h-68v-440zM298 560q-15 0 -26.5 11t-11.5 27t11.5 27t26.5 11q16 0 27 -11t11 -27t-11 -27t-27 -11zM323 0h-49v483h49v-483z" />
    <glyph glyph-name="fl" unicode="fl" horiz-adv-x="383" 
d="M123 0h-49v440h-49v43h49v94q0 45 24 72.5t61 27.5q24 0 44 -14l-16 -38q-7 8 -21 8q-20 0 -31.5 -15t-11.5 -41v-94h68v-43h-68v-440zM323 0h-49v667h49v-667z" />
    <glyph glyph-name="f_f_i" unicode="ffi" horiz-adv-x="596" 
d="M336 0h-49v440h-49v43h49v94q0 45 24 72.5t61 27.5q24 0 44 -14l-16 -38q-7 8 -21 8q-20 0 -31.5 -15t-11.5 -41v-94h68v-43h-68v-440zM511 560q-15 0 -26.5 11t-11.5 27t11.5 27t26.5 11q16 0 27 -11t11 -27t-11 -27t-27 -11zM536 0h-49v483h49v-483zM123 0h-49v440h-49
v43h49v94q0 45 24.5 72.5t66.5 27.5q41 0 62 -27l-22 -38q-14 21 -35 21q-47 0 -47 -56v-94h68v-43h-68v-440z" />
    <glyph glyph-name="f_f_l" unicode="ffl" horiz-adv-x="596" 
d="M336 0h-49v440h-49v43h49v94q0 45 24 72.5t61 27.5q24 0 44 -14l-16 -38q-7 8 -21 8q-20 0 -31.5 -15t-11.5 -41v-94h68v-43h-68v-440zM536 0h-49v667h49v-667zM123 0h-49v440h-49v43h49v94q0 45 24.5 72.5t66.5 27.5q41 0 62 -27l-22 -38q-14 21 -35 21q-47 0 -47 -56
v-94h68v-43h-68v-440z" />
    <glyph glyph-name="f_b" unicode="fb" horiz-adv-x="581" 
d="M123 0h-49v440h-49v43h49v94q0 45 24 72.5t61 27.5q24 0 44 -14l-16 -38q-7 8 -21 8q-20 0 -31.5 -15t-11.5 -41v-94h68v-43h-68v-440zM323 122q8 -36 31.5 -63t49.5 -27q82 0 82 209q0 210 -82 210q-25 0 -48.5 -27.5t-32.5 -64.5v-237zM323 0h-49v667h49v-253
q14 39 38.5 60t50.5 21q64 0 95 -69.5t31 -184.5q0 -116 -31 -184.5t-95 -68.5q-25 0 -49.5 21.5t-39.5 58.5v-68z" />
    <glyph glyph-name="f_h" unicode="fh" horiz-adv-x="573" 
d="M123 0h-49v440h-49v43h49v94q0 45 24 72.5t61 27.5q24 0 44 -14l-16 -38q-7 8 -21 8q-20 0 -31.5 -15t-11.5 -41v-94h68v-43h-68v-440zM513 0h-50v383q0 68 -49 68q-28 0 -53 -25.5t-38 -61.5v-364h-49v667h49v-254q17 35 45.5 58.5t59.5 23.5q44 0 64.5 -24.5
t20.5 -78.5v-392z" />
    <glyph glyph-name="f_k" unicode="fk" horiz-adv-x="556" 
d="M123 0h-49v440h-49v43h49v94q0 45 24 72.5t61 27.5q24 0 44 -14l-16 -38q-7 8 -21 8q-20 0 -31.5 -15t-11.5 -41v-94h68v-43h-68v-440zM536 0h-53l-99 231l-61 -103v-128h-49v667h49v-470l163 286h52l-125 -217z" />
    <glyph glyph-name=".notdef" horiz-adv-x="486" 
d="M419 -90h-351v842h351v-842zM387 -60v782h-288v-782h288z" />
    <glyph glyph-name=".null" horiz-adv-x="0" 
 />
    <glyph glyph-name=".null" horiz-adv-x="0" 
 />
    <glyph glyph-name="nonmarkingreturn" horiz-adv-x="333" 
 />
    <glyph glyph-name="CR" unicode="&#xd;" horiz-adv-x="0" 
 />
    <glyph glyph-name="space" unicode=" " horiz-adv-x="176" 
 />
    <glyph glyph-name="exclam" unicode="!" horiz-adv-x="217" 
d="M128 172h-38l-13 495h64zM109 -10q-18 0 -30.5 13t-12.5 30t12.5 29.5t30.5 12.5q17 0 29.5 -12.5t12.5 -29.5t-12.5 -30t-29.5 -13z" />
    <glyph glyph-name="quotedbl" unicode="&#x22;" horiz-adv-x="313" 
d="M107 430h-28q-21 200 -21 213q0 14 10.5 24t24.5 10q13 0 23.5 -10.5t10.5 -23.5zM234 430h-28q-20 200 -20 213q0 14 10 24t24 10q15 0 24.5 -10t9.5 -24z" />
    <glyph glyph-name="numbersign" unicode="#" horiz-adv-x="409" 
d="M208 0h-45l45 187h-74l-44 -187h-44l44 187h-73l9 39h73l50 215h-73l7 39h74l44 187h44l-43 -187h74l43 187h44l-43 -187h71l-7 -39h-73l-50 -215h74l-8 -39h-76zM216 226l51 215h-74l-50 -215h73z" />
    <glyph glyph-name="dollar" unicode="$" horiz-adv-x="324" 
d="M152 -100v88q-81 2 -128 59l31 43q16 -24 43 -38.5t54 -14.5v286q-28 27 -41 40.5t-32.5 40t-28 55.5t-8.5 64q0 59 30.5 100t79.5 52v93h45v-91q55 -5 92 -43l-26 -41q-29 31 -66 35v-267q50 -48 77 -93.5t27 -112.5q0 -59 -28 -103t-76 -58v-94h-45zM96 524
q0 -60 56 -118v217q-56 -25 -56 -99zM247 153q0 68 -50 125v-229q50 31 50 104z" />
    <glyph glyph-name="percent" unicode="%" horiz-adv-x="563" 
d="M149 350q-53 0 -85 45.5t-32 116.5q0 72 32.5 118.5t84.5 46.5q53 0 85 -46.5t32 -118.5q0 -71 -32 -116.5t-85 -45.5zM164 0h-36l271 667h37zM413 -12q-53 0 -85 46t-32 117t32 117.5t85 46.5t85 -46t32 -118q0 -71 -32 -117t-85 -46zM149 387q35 0 54.5 36t19.5 89
q0 55 -19.5 91.5t-54.5 36.5q-34 0 -54 -36.5t-20 -91.5q0 -53 20 -89t54 -36zM413 25q35 0 54.5 36t19.5 90q0 55 -19.5 91t-54.5 36t-54.5 -36t-19.5 -91q0 -54 19.5 -90t54.5 -36z" />
    <glyph glyph-name="ampersand" unicode="&#x26;" horiz-adv-x="378" 
d="M369 0h-57l-41 70q-48 -82 -112 -82q-52 0 -84.5 46t-32.5 124q0 68 23 114t65 93q-35 93 -35 151q0 74 25.5 117.5t70.5 43.5q36 0 61 -34.5t25 -88.5q0 -42 -14.5 -79.5t-29 -57t-44.5 -52.5q-5 -6 -8 -9q21 -56 44 -100q16 -35 43 -86q17 53 36 149l44 -18
q-21 -108 -52 -182q22 -39 73 -119zM164 32q45 0 83 83q-32 57 -55 106q-21 43 -44 96q-53 -71 -53 -158q0 -62 19.5 -94.5t49.5 -32.5zM145 516q0 -47 20 -112q67 74 67 149q0 41 -12 61.5t-29 20.5q-46 0 -46 -119z" />
    <glyph glyph-name="quotesingle" unicode="'" horiz-adv-x="186" 
d="M107 430h-28q-21 200 -21 213q0 14 10.5 24t24.5 10q13 0 23.5 -10.5t10.5 -23.5z" />
    <glyph glyph-name="parenleft" unicode="(" horiz-adv-x="188" 
d="M170 -185l-33 -14q-90 207 -90 442t90 442l33 -13q-68 -214 -68 -429q0 -216 68 -428z" />
    <glyph glyph-name="parenright" unicode=")" horiz-adv-x="188" 
d="M51 -199l-33 14q68 212 68 428q0 215 -68 429l33 13q90 -207 90 -442t-90 -442z" />
    <glyph glyph-name="asterisk" unicode="*" horiz-adv-x="296" 
d="M166 401h-36l5 117l-98 -64l-18 32l104 53l-104 53l18 32l98 -64l-5 117h36l-6 -117l99 64l18 -32l-104 -53l104 -53l-18 -32l-99 64z" />
    <glyph glyph-name="plus" unicode="+" horiz-adv-x="376" 
d="M347 317h-138v-158h-42v158h-138v40h138v152h42v-152h138v-40z" />
    <glyph glyph-name="comma" unicode="," horiz-adv-x="217" 
d="M155 12q0 -40 -20 -76.5t-50 -57.5l-28 23q24 17 40 43.5t18 49.5h-4q-4 -1 -6 -1q-16 0 -27.5 11.5t-11.5 28.5t12 29.5t30 12.5q20 0 33.5 -17t13.5 -46z" />
    <glyph glyph-name="hyphen" unicode="-" horiz-adv-x="232" 
d="M202 219h-172v46h172v-46z" />
    <glyph glyph-name="period" unicode="." horiz-adv-x="217" 
d="M109 -9q-17 0 -30 12.5t-13 29.5t13 29.5t30 12.5t29.5 -12.5t12.5 -29.5t-12.5 -29.5t-29.5 -12.5z" />
    <glyph glyph-name="slash" unicode="/" horiz-adv-x="189" 
d="M42 -20h-42l147 707h42z" />
    <glyph glyph-name="zero" unicode="0" horiz-adv-x="395" 
d="M198 -12q-44 0 -75.5 31.5t-46.5 85.5t-21.5 109t-6.5 119t6.5 119.5t21.5 109t46.5 84.5t75.5 31t75 -31t46.5 -85t21.5 -109t6 -119q0 -345 -149 -345zM198 37q25 0 42.5 19.5t27 47t15 71t6.5 78t1 80.5q0 47 -1 81t-6.5 77.5t-15 70.5t-27 46.5t-42.5 19.5t-42.5 -19
t-27 -47t-15 -71t-7 -77.5t-1.5 -80.5q0 -39 1 -67t3.5 -65.5t9 -63.5t16 -50.5t26 -37t37.5 -12.5z" />
    <glyph glyph-name="one" unicode="1" horiz-adv-x="267" 
d="M200 0h-54v594l-102 -111l-33 36l141 148h48v-667z" />
    <glyph glyph-name="two" unicode="2" horiz-adv-x="369" 
d="M321 0h-265v46q137 241 172.5 323.5t35.5 149.5q0 47 -22.5 78t-56.5 31q-64 0 -98 -88l-42 28q27 56 58.5 82.5t82.5 26.5q61 0 98 -44t37 -114q0 -67 -38 -158t-163 -312h201v-49z" />
    <glyph glyph-name="three" unicode="3" horiz-adv-x="368" 
d="M176 -12q-49 0 -86.5 32t-57.5 82l44 27q37 -92 98 -92q91 0 91 144q0 76 -28 107.5t-65 31.5q-29 0 -36 -2v51q8 -1 34 -1q40 0 64 32.5t24 93.5q0 134 -83 134q-59 0 -93 -84l-42 26q19 50 56 78.5t80 28.5q63 0 100.5 -43.5t37.5 -131.5q0 -54 -23.5 -98.5
t-65.5 -58.5q40 -9 68 -56t28 -110q0 -86 -36 -138.5t-109 -52.5z" />
    <glyph glyph-name="four" unicode="4" horiz-adv-x="338" 
d="M271 0h-53v184h-205v51l192 432h66v-434h54v-49h-54v-184zM218 233v361l-158 -361h158z" />
    <glyph glyph-name="five" unicode="5" horiz-adv-x="371" 
d="M184 -12q-56 0 -86.5 28.5t-54.5 85.5l43 25q29 -90 96 -90q41 0 64.5 48.5t23.5 115.5q0 166 -80 166q-27 0 -46.5 -14t-42.5 -52l-42 18v348h243v-49h-190v-259q34 56 90 56q57 0 91 -55.5t34 -157.5q0 -88 -39.5 -151t-103.5 -63z" />
    <glyph glyph-name="six" unicode="6" horiz-adv-x="371" 
d="M196 -12q-148 0 -148 345q0 344 161 344q39 0 70.5 -24.5t47.5 -66.5l-37 -33q-25 75 -81 75q-105 0 -105 -297v-17q14 42 40.5 69.5t62.5 27.5q56 0 90.5 -54t34.5 -157q0 -55 -13 -101t-45 -78.5t-78 -32.5zM194 37q44 0 63 46t19 116q0 164 -80 164q-60 0 -91 -116
q3 -210 89 -210z" />
    <glyph glyph-name="seven" unicode="7" horiz-adv-x="304" 
d="M134 0h-56l145 618h-200v49h258v-37z" />
    <glyph glyph-name="eight" unicode="8" horiz-adv-x="369" 
d="M185 -12q-68 0 -104.5 45t-36.5 124q0 62 32 113t70 74q-36 21 -65.5 66.5t-29.5 103.5q0 78 37.5 120.5t96.5 42.5t96.5 -42.5t37.5 -120.5q0 -58 -30 -103.5t-65 -66.5q38 -23 70 -74t32 -112q0 -79 -37 -124.5t-104 -45.5zM185 365q10 5 25.5 18.5t34 48.5t18.5 76
q0 120 -78 120q-39 0 -59 -32t-20 -88q0 -41 18.5 -76t34.5 -49t26 -18zM185 37q38 0 61.5 33t23.5 92q0 34 -11 65.5t-26 51t-28 31.5t-20 13q-10 -2 -29 -20t-37.5 -57.5t-18.5 -83.5q0 -60 23 -92.5t62 -32.5z" />
    <glyph glyph-name="nine" unicode="9" horiz-adv-x="371" 
d="M163 -11q-40 0 -71.5 24.5t-46.5 66.5l36 33q13 -38 32 -56.5t49 -18.5q105 0 105 297v17q-14 -42 -40.5 -69.5t-62.5 -27.5q-56 0 -90.5 54t-34.5 157q0 87 34.5 149.5t102.5 62.5q147 0 147 -345q0 -344 -160 -344zM175 303q60 0 91 116q-3 210 -88 210
q-44 0 -63.5 -46t-19.5 -116q0 -164 80 -164z" />
    <glyph glyph-name="colon" unicode=":" horiz-adv-x="217" 
d="M109 406q-17 0 -30 12.5t-13 29.5t13 29.5t30 12.5t29.5 -12.5t12.5 -29.5t-12.5 -29.5t-29.5 -12.5zM109 -9q-17 0 -30 12.5t-13 29.5t13 29.5t30 12.5t29.5 -12.5t12.5 -29.5t-12.5 -29.5t-29.5 -12.5z" />
    <glyph glyph-name="semicolon" unicode=";" horiz-adv-x="217" 
d="M109 406q-17 0 -30 12.5t-13 29.5t13 29.5t30 12.5t29.5 -12.5t12.5 -29.5t-12.5 -29.5t-29.5 -12.5zM155 13q0 -40 -20 -76.5t-50 -57.5l-28 23q24 17 40 43.5t18 49.5q-2 -2 -10 -2q-16 0 -27.5 12t-11.5 29t12 29.5t30 12.5q20 0 33.5 -17t13.5 -46z" />
    <glyph glyph-name="less" unicode="&#x3c;" horiz-adv-x="376" 
d="M347 164l-318 153v35l318 153v-47l-267 -124l267 -123v-47z" />
    <glyph glyph-name="equal" unicode="=" horiz-adv-x="376" 
d="M347 412h-318v40h318v-40zM347 216h-318v40h318v-40z" />
    <glyph glyph-name="greater" unicode="&#x3e;" horiz-adv-x="376" 
d="M347 317l-318 -153v47l267 123l-267 124v47l318 -153v-35z" />
    <glyph glyph-name="question" unicode="?" horiz-adv-x="307" 
d="M141 176q-27 36 -27 82q0 41 17.5 77.5t38.5 59.5t38.5 59.5t17.5 77.5q0 37 -23.5 67.5t-60.5 30.5q-39 0 -73 -35l-26 37q40 46 106 46q56 0 93 -41t37 -99q0 -46 -18 -86.5t-40 -65.5t-40 -59.5t-18 -70.5q0 -35 21 -56zM157 -9q-17 0 -29.5 12.5t-12.5 29.5
t12.5 29.5t29.5 12.5q18 0 30.5 -12.5t12.5 -29.5t-12.5 -29.5t-30.5 -12.5z" />
    <glyph glyph-name="at" unicode="@" horiz-adv-x="584" 
d="M259 -70q-100 0 -162 77.5t-62 208.5q0 106 44 204t118.5 158.5t158.5 60.5q88 0 140.5 -65.5t52.5 -180.5q0 -128 -44 -218t-96 -90q-31 0 -49.5 20t-20.5 51v6q-47 -77 -105 -77q-37 0 -63.5 29t-26.5 92q0 109 51.5 201.5t128.5 92.5q56 0 72 -76l11 58h46l-60 -288
q-3 -15 -3 -23q-1 -27 6 -37t23 -10q13 0 29 18t32 50t27 85.5t11 115.5q0 103 -45 158.5t-117 55.5q-75 0 -142 -57.5t-105.5 -147.5t-38.5 -186q0 -118 53.5 -186.5t140.5 -68.5q70 0 132 57l15 -25q-71 -63 -152 -63zM245 124q22 0 43 15t32.5 30.5t27.5 42.5l38 172
q-14 76 -58 76q-40 0 -72 -42.5t-47 -98.5t-15 -109q0 -86 51 -86z" />
    <glyph glyph-name="A" unicode="A" horiz-adv-x="338" 
d="M329 0h-56l-29 166h-150l-29 -166h-56l129 667h62zM237 215l-68 383l-68 -383h136z" />
    <glyph glyph-name="B" unicode="B" horiz-adv-x="381" 
d="M192 0h-124v667h120q64 0 100 -45t36 -125q0 -121 -82 -153q40 -7 65.5 -55t25.5 -109q0 -86 -35 -133t-106 -47zM180 366q88 0 88 126t-88 126h-59v-252h59zM184 49q93 0 93 134q0 58 -22.5 96.5t-70.5 38.5h-63v-269h63z" />
    <glyph glyph-name="C" unicode="C" horiz-adv-x="374" 
d="M208 -12q-56 0 -93 47.5t-52 122t-15 175.5t15 175.5t52 122t93 47.5q51 0 79.5 -31.5t45.5 -84.5l-46 -17q-14 43 -31.5 63.5t-47.5 20.5q-53 0 -78 -81t-25 -215t25 -215t78 -81q34 0 52 26.5t29 76.5l47 -18q-33 -134 -128 -134z" />
    <glyph glyph-name="D" unicode="D" horiz-adv-x="407" 
d="M178 0h-110v667h109q93 0 137.5 -90t44.5 -244t-44 -243.5t-137 -89.5zM177 49q125 0 125 284q0 285 -125 285h-56v-569h56z" />
    <glyph glyph-name="E" unicode="E" horiz-adv-x="341" 
d="M296 0h-228v667h228v-49h-175v-252h168v-48h-168v-269h175v-49z" />
    <glyph glyph-name="F" unicode="F" horiz-adv-x="341" 
d="M121 0h-53v667h228v-49h-175v-252h168v-48h-168v-318z" />
    <glyph glyph-name="G" unicode="G" horiz-adv-x="393" 
d="M208 -12q-81 0 -120.5 92.5t-39.5 252.5q0 161 39.5 253t120.5 92q89 0 125 -116l-46 -17q-13 42 -31 63t-48 21q-103 0 -103 -296t103 -296q51 0 76 46v198h-95v49h145v-266q-45 -76 -126 -76z" />
    <glyph glyph-name="H" unicode="H" horiz-adv-x="415" 
d="M348 0h-54v319h-173v-319h-53v667h53v-300h173v300h54v-667z" />
    <glyph glyph-name="I" unicode="I" horiz-adv-x="189" 
d="M121 0h-53v667h53v-667z" />
    <glyph glyph-name="J" unicode="J" horiz-adv-x="310" 
d="M111 -12q-62 0 -105 50l27 41q31 -42 75 -42q81 0 81 96v534h54v-535q0 -73 -35 -108.5t-97 -35.5z" />
    <glyph glyph-name="K" unicode="K" horiz-adv-x="395" 
d="M380 0h-63l-150 304l-46 -87v-217h-53v667h53v-363l185 363h61l-171 -318z" />
    <glyph glyph-name="L" unicode="L" horiz-adv-x="320" 
d="M296 0h-228v667h53v-618h175v-49z" />
    <glyph glyph-name="M" unicode="M" horiz-adv-x="533" 
d="M466 0h-54v554l-134 -554h-23l-134 554v-554h-53v667h76l123 -502l123 502h76v-667z" />
    <glyph glyph-name="N" unicode="N" horiz-adv-x="415" 
d="M348 0h-52l-175 518v-518h-53v667h53l173 -511v511h54v-667z" />
    <glyph glyph-name="O" unicode="O" horiz-adv-x="415" 
d="M207 -12q-57 0 -93.5 48.5t-51 122.5t-14.5 174q0 99 14.5 173.5t51.5 123t93 48.5q57 0 94 -48.5t51.5 -123t14.5 -173.5q0 -100 -14.5 -174t-51.5 -122.5t-94 -48.5zM207 37q54 0 78.5 82.5t24.5 213.5q0 132 -24.5 214t-78.5 82q-53 0 -77.5 -82t-24.5 -214
q0 -130 24.5 -213t77.5 -83z" />
    <glyph glyph-name="P" unicode="P" horiz-adv-x="364" 
d="M121 0h-53v667h118q73 0 110 -55t37 -139t-37 -139t-110 -55h-65v-279zM182 327q47 0 71 39.5t24 106.5q0 66 -24 105.5t-71 39.5h-61v-291h61z" />
    <glyph glyph-name="Q" unicode="Q" horiz-adv-x="415" 
d="M207 -12q-57 0 -93.5 48.5t-51 122.5t-14.5 174q0 99 14.5 173.5t51.5 123t93 48.5q57 0 94 -48.5t51.5 -123t14.5 -173.5q0 -225 -72 -305l17 -46l-43 -17l-13 34q-22 -11 -49 -11zM207 37q17 0 31 9l-60 159l44 17l50 -135q38 77 38 246q0 132 -24.5 214t-78.5 82
q-53 0 -77.5 -82t-24.5 -214q0 -130 24.5 -213t77.5 -83z" />
    <glyph glyph-name="R" unicode="R" horiz-adv-x="388" 
d="M339 0h-59l-93 279h-66v-279h-53v667h119q65 0 105.5 -51.5t40.5 -141.5q0 -82 -28.5 -126.5t-66.5 -57.5zM182 327q47 0 71 39.5t24 106.5q0 66 -24 105.5t-71 39.5h-61v-291h61z" />
    <glyph glyph-name="S" unicode="S" horiz-adv-x="337" 
d="M154 -12q-80 0 -130 59l31 43q16 -24 43 -38.5t54 -14.5q40 0 67.5 32t27.5 84q0 46 -21 84t-51.5 65.5l-60.5 56.5t-51 70.5t-21 93.5q0 69 40 112t99 43q67 0 108 -44l-26 -41q-33 36 -81 36q-36 0 -61 -29t-25 -76q0 -39 21 -73t51 -62l60.5 -59t51.5 -76t21 -99
q0 -72 -40.5 -119.5t-106.5 -47.5z" />
    <glyph glyph-name="T" unicode="T" horiz-adv-x="305" 
d="M179 0h-54v618h-107v49h269v-49h-108v-618z" />
    <glyph glyph-name="U" unicode="U" horiz-adv-x="416" 
d="M208 -12q-65 0 -102.5 43.5t-37.5 131.5v504h53v-505q0 -125 87 -125t87 125v505h54v-504q0 -88 -37.5 -131.5t-103.5 -43.5z" />
    <glyph glyph-name="V" unicode="V" horiz-adv-x="338" 
d="M200 0h-62l-129 667h56l104 -594l104 594h56z" />
    <glyph glyph-name="W" unicode="W" horiz-adv-x="519" 
d="M395 0h-59l-77 551l-76 -551h-59l-103 667h57l77 -568l80 568h49l80 -568l78 568h56z" />
    <glyph glyph-name="X" unicode="X" horiz-adv-x="338" 
d="M332 0h-60l-103 285l-103 -285h-60l132 339l-125 328h61l95 -274l95 274h61l-125 -328z" />
    <glyph glyph-name="Y" unicode="Y" horiz-adv-x="347" 
d="M200 0h-53v286l-146 381h58l115 -323l116 323h56l-146 -381v-286z" />
    <glyph glyph-name="Z" unicode="Z" horiz-adv-x="324" 
d="M290 0h-255v48l190 570h-190v49h248v-46l-192 -572h199v-49z" />
    <glyph glyph-name="bracketleft" unicode="[" horiz-adv-x="172" 
d="M155 -190h-121v868h121v-41h-79v-786h79v-41z" />
    <glyph glyph-name="backslash" unicode="\" horiz-adv-x="189" 
d="M148 -20l-147 707h41l147 -707h-41z" />
    <glyph glyph-name="bracketright" unicode="]" horiz-adv-x="172" 
d="M138 -190h-121v41h78v786h-78v41h121v-868z" />
    <glyph glyph-name="asciicircum" unicode="^" horiz-adv-x="327" 
d="M308 333h-43l-101 289l-102 -289h-43l125 334h39z" />
    <glyph glyph-name="underscore" unicode="_" horiz-adv-x="279" 
d="M282 -81h-285v41h285v-41z" />
    <glyph glyph-name="grave" unicode="`" horiz-adv-x="133" 
d="M133 556h-36l-97 144h54z" />
    <glyph glyph-name="a" unicode="a" horiz-adv-x="359" 
d="M298 0h-49v51q-31 -63 -91 -63q-55 0 -88 45t-33 116t33 115.5t88 44.5q61 0 91 -60v91q0 57 -17 84.5t-59 27.5q-51 0 -94 -52l-24 36q56 59 123 59q64 0 92 -36t28 -113v-346zM167 26q58 0 82 69v106q-24 69 -82 69q-38 0 -58.5 -35t-20.5 -87q0 -51 20.5 -86.5
t58.5 -35.5z" />
    <glyph glyph-name="b" unicode="b" horiz-adv-x="368" 
d="M110 122q8 -36 31.5 -63t49.5 -27q82 0 82 209q0 210 -82 210q-25 0 -48.5 -27.5t-32.5 -64.5v-237zM110 0h-49v667h49v-253q14 39 38.5 60t50.5 21q64 0 95 -69.5t31 -184.5q0 -116 -31 -184.5t-95 -68.5q-25 0 -49.5 21.5t-39.5 58.5v-68z" />
    <glyph glyph-name="c" unicode="c" horiz-adv-x="306" 
d="M190 -12q-71 0 -109.5 71.5t-38.5 182.5t38.5 182t109.5 71q53 0 91 -45l-24 -36q-29 37 -64 37q-51 0 -75 -60t-24 -149t24 -149.5t75 -60.5q35 0 64 37l24 -36q-35 -45 -91 -45z" />
    <glyph glyph-name="d" unicode="d" horiz-adv-x="368" 
d="M307 0h-49v68q-15 -37 -40 -58.5t-50 -21.5q-64 0 -95 69t-31 184q0 114 31 184t95 70q26 0 51 -21t39 -60v253h49v-667zM177 32q25 0 48.5 27t32.5 63v237q-9 37 -32.5 64.5t-48.5 27.5q-83 0 -83 -210q0 -209 83 -209z" />
    <glyph glyph-name="e" unicode="e" 
d="M199 -12q-79 0 -118 69.5t-39 184.5q0 112 35.5 182.5t106.5 70.5q72 0 105.5 -70t33.5 -182v-17h-230q0 -90 28 -143t81 -53q46 0 79 63l34 -25q-45 -80 -116 -80zM272 265q0 35 -4 65.5t-13.5 59.5t-28 46t-43.5 17q-26 0 -44.5 -18.5t-28 -48t-13.5 -60t-4 -61.5h179z
" />
    <glyph glyph-name="f" unicode="f" horiz-adv-x="213" 
d="M123 0h-49v440h-49v43h49v94q0 45 24.5 72.5t66.5 27.5q41 0 62 -27l-22 -38q-14 21 -35 21q-47 0 -47 -56v-94h68v-43h-68v-440z" />
    <glyph glyph-name="g" unicode="g" horiz-adv-x="368" 
d="M171 -196q-72 0 -119 48l24 42q39 -46 92 -46q90 0 90 121v103q-15 -37 -40 -59.5t-50 -22.5q-64 0 -95 68.5t-31 183.5t31 184t95 69q26 0 51 -21t39 -60v69h49v-510q0 -169 -136 -169zM177 34q25 0 48.5 27.5t32.5 64.5v233q-9 37 -32.5 64.5t-48.5 27.5
q-83 0 -83 -209q0 -208 83 -208z" />
    <glyph glyph-name="h" unicode="h" 
d="M300 0h-50v383q0 68 -49 68q-28 0 -53 -25.5t-38 -61.5v-364h-49v667h49v-254q17 35 45.5 58.5t59.5 23.5q44 0 64.5 -24.5t20.5 -78.5v-392z" />
    <glyph glyph-name="i" unicode="i" horiz-adv-x="170" 
d="M85 560q-15 0 -26.5 11t-11.5 27t11.5 27t26.5 11q16 0 27 -11t11 -27t-11 -27t-27 -11zM110 0h-49v483h49v-483z" />
    <glyph glyph-name="j" unicode="j" horiz-adv-x="170" 
d="M85 560q-15 0 -26.5 11t-11.5 27t11.5 27t26.5 11q16 0 27 -11t11 -27t-11 -27t-27 -11zM29 -196q-41 0 -58 35l27 31q10 -22 29 -22q34 0 34 69v566h49v-566q0 -62 -20.5 -87.5t-60.5 -25.5z" />
    <glyph glyph-name="k" unicode="k" horiz-adv-x="343" 
d="M323 0h-53l-99 231l-61 -103v-128h-49v667h49v-470l163 286h52l-125 -217z" />
    <glyph glyph-name="l" unicode="l" horiz-adv-x="170" 
d="M110 0h-49v667h49v-667z" />
    <glyph glyph-name="m" unicode="m" horiz-adv-x="550" 
d="M489 0h-49v383q0 68 -49 68q-28 0 -53 -25.5t-38 -61.5v-364h-50v383q0 68 -49 68q-28 0 -53 -25.5t-38 -61.5v-364h-49v483h49v-70q17 35 45 58.5t60 23.5q38 0 60 -21.5t23 -61.5q16 35 45.5 59t61.5 24q84 0 84 -103v-392z" />
    <glyph glyph-name="n" unicode="n" 
d="M300 0h-50v383q0 68 -49 68q-28 0 -53 -25.5t-38 -61.5v-364h-49v483h49v-70q17 35 45.5 58.5t59.5 23.5q85 0 85 -103v-392z" />
    <glyph glyph-name="o" unicode="o" horiz-adv-x="367" 
d="M184 -12q-50 0 -83 37t-46 92t-13 125t13 124.5t46 91.5t83 37t82.5 -37t45.5 -91.5t13 -124.5t-13 -125t-45.5 -92t-82.5 -37zM184 32q88 0 88 210q0 209 -88 209q-89 0 -89 -209q0 -210 89 -210z" />
    <glyph glyph-name="p" unicode="p" horiz-adv-x="368" 
d="M199 -12q-26 0 -50.5 21t-38.5 60v-253h-49v667h49v-68q15 37 39.5 58.5t49.5 21.5q64 0 95 -68.5t31 -184.5q0 -115 -31 -184.5t-95 -69.5zM191 32q82 0 82 210q0 209 -82 209q-26 0 -49.5 -27t-31.5 -63v-237q9 -37 32.5 -64.5t48.5 -27.5z" />
    <glyph glyph-name="q" unicode="q" horiz-adv-x="368" 
d="M177 32q25 0 48.5 27.5t32.5 64.5v237q-9 37 -32.5 63.5t-48.5 26.5q-83 0 -83 -209q0 -210 83 -210zM168 -12q-64 0 -95 69.5t-31 184.5t31 184t95 69q25 0 50 -21.5t40 -58.5v68h49v-667h-49v253q-14 -39 -39 -60t-51 -21z" />
    <glyph glyph-name="r" unicode="r" horiz-adv-x="239" 
d="M110 0h-49v483h49v-81q40 91 113 91v-54q-5 2 -16 2q-31 0 -56.5 -25.5t-40.5 -62.5v-353z" />
    <glyph glyph-name="s" unicode="s" horiz-adv-x="294" 
d="M145 -12q-77 0 -121 60l28 34q39 -53 90 -53q31 0 53 22.5t22 58.5q0 33 -18.5 59.5t-44.5 46l-52 40t-44.5 53t-18.5 74.5q0 49 33 80.5t83 31.5q64 0 105 -52l-26 -33q-31 44 -78 44q-31 0 -50.5 -20.5t-19.5 -50.5q0 -31 18.5 -56t45 -44.5l52.5 -40.5t44.5 -54.5
t18.5 -76.5q0 -55 -35 -89t-85 -34z" />
    <glyph glyph-name="t" unicode="t" horiz-adv-x="223" 
d="M149 -12q-75 0 -75 96v356h-50v43h50v132h49v-132h68v-43h-68v-351q0 -30 7 -43.5t26 -13.5q20 0 34 19l21 -34q-24 -29 -62 -29z" />
    <glyph glyph-name="u" unicode="u" 
d="M300 0h-50v68q-17 -35 -44.5 -57.5t-60.5 -22.5q-44 0 -64 24.5t-20 78.5v392h49v-383q0 -68 49 -68q29 0 53.5 25t37.5 60v366h50v-483z" />
    <glyph glyph-name="v" unicode="v" horiz-adv-x="302" 
d="M178 0h-55l-110 483h53l85 -423l86 423h53z" />
    <glyph glyph-name="w" unicode="w" horiz-adv-x="513" 
d="M393 0h-50l-87 415l-86 -415h-51l-102 483h52l77 -411l83 411h53l84 -411l78 411h52z" />
    <glyph glyph-name="x" unicode="x" horiz-adv-x="306" 
d="M290 0h-54l-83 204l-84 -204h-53l108 245l-102 238h53l78 -197l78 197h53l-102 -238z" />
    <glyph glyph-name="y" unicode="y" horiz-adv-x="302" 
d="M30 -189l9 43q10 -6 24 -6q18 0 27 11t16 38l21 86l-114 500h53l85 -419l86 419h53l-141 -597q-11 -46 -30.5 -64t-52.5 -18q-22 0 -36 7z" />
    <glyph glyph-name="z" unicode="z" horiz-adv-x="289" 
d="M251 0h-213v41l154 399h-154v43h209v-40l-153 -399h157v-44z" />
    <glyph glyph-name="braceleft" unicode="{" horiz-adv-x="195" 
d="M178 -190h-32q-35 0 -61.5 27.5t-26.5 71.5v245q0 30 -13.5 50.5t-38.5 20.5v38q25 0 38.5 20.5t13.5 50.5v245q0 44 26.5 71.5t61.5 27.5h32v-41h-32q-19 0 -32.5 -16t-13.5 -42v-247q0 -69 -45 -88q45 -19 45 -88v-247q0 -25 13.5 -42t32.5 -17h32v-40z" />
    <glyph glyph-name="bar" unicode="|" horiz-adv-x="176" 
d="M108 -20h-40v707h40v-707z" />
    <glyph glyph-name="braceright" unicode="}" horiz-adv-x="195" 
d="M17 -190v40h31q19 0 32.5 17t13.5 42v247q0 69 45 88q-45 19 -45 88v247q0 26 -13.5 42t-32.5 16h-31v41h31q35 0 61.5 -27.5t26.5 -71.5v-245q0 -30 13.5 -50.5t38.5 -20.5v-38q-25 0 -38.5 -20.5t-13.5 -50.5v-245q0 -44 -26.5 -71.5t-61.5 -27.5h-31z" />
    <glyph glyph-name="asciitilde" unicode="~" horiz-adv-x="385" 
d="M317 667l41 -4q-3 -38 -5.5 -63t-10 -60.5t-17.5 -57t-28.5 -37.5t-42.5 -16q-32 0 -50.5 31t-24 67.5t-17 67.5t-31.5 31q-29 0 -40.5 -43.5t-21.5 -155.5l-41 6q3 46 7.5 79t15 72t31 60t49.5 21q32 0 51 -31t24.5 -68t17 -68t30.5 -31q29 0 40.5 43t22.5 157z" />
    <glyph glyph-name="nbspace" unicode="&#xa0;" horiz-adv-x="176" 
 />
    <glyph glyph-name="exclamdown" unicode="&#xa1;" horiz-adv-x="217" 
d="M77 -184l13 495h38l13 -495h-64zM66 450q0 17 13 29.5t30 12.5t29.5 -12.5t12.5 -29.5t-12.5 -29.5t-29.5 -12.5t-30 12.5t-13 29.5z" />
    <glyph glyph-name="cent" unicode="&#xa2;" horiz-adv-x="306" 
d="M168 -100v90q-61 11 -93.5 80.5t-32.5 171.5t32.5 170.5t93.5 80.5v72h42v-72q39 -6 71 -43l-24 -36q-23 29 -47 35v-415q25 6 47 35l24 -36q-29 -38 -71 -43v-90h-42zM94 242q0 -77 18 -134t56 -72v410q-74 -28 -74 -204z" />
    <glyph glyph-name="sterling" unicode="&#xa3;" horiz-adv-x="361" 
d="M30 269v40h76q-2 3 -11 20t-11.5 22.5l-9.5 21.5t-10 26t-7 26t-5.5 32t-1.5 34q0 76 39 131t104 55q48 0 80.5 -28t45.5 -78l-42 -22q-13 38 -32 59.5t-51 21.5q-35 0 -61 -38.5t-26 -102.5q0 -30 6.5 -58t13.5 -44t20 -41t18 -37h77v-40h-62q7 -30 7 -57
q0 -40 -20 -83.5t-49 -68.5q19 11 38 11q23 0 53.5 -17t46.5 -17q41 0 65 36l24 -41q-12 -18 -38.5 -31t-53.5 -13q-33 0 -62.5 20t-48.5 20q-31 0 -75 -35l-23 42q42 28 67 74.5t25 95.5q0 31 -12 64h-94z" />
    <glyph glyph-name="currency" unicode="&#xa4;" horiz-adv-x="369" 
d="M185 98q-55 0 -89 40l-67 -68l-33 33l76 74q-28 59 -28 156t28 156l-76 76l33 33l68 -69q35 38 88 38q51 0 87 -38l69 69l32 -33l-76 -75q29 -62 29 -157q0 -97 -29 -159l76 -76l-32 -32l-70 69q-34 -37 -86 -37zM185 147q91 0 91 186q0 79 -21 132t-70 53
q-25 0 -43.5 -16t-28.5 -43.5t-14.5 -58.5t-4.5 -67t4.5 -67.5t14.5 -59t28.5 -43.5t43.5 -16z" />
    <glyph glyph-name="yen" unicode="&#xa5;" horiz-adv-x="347" 
d="M200 0h-53v126h-127v40h127v120h-127v40h111l-130 341h58l115 -323l116 323h56l-131 -341h110v-40h-125v-120h125v-40h-125v-126z" />
    <glyph glyph-name="brokenbar" unicode="&#xa6;" horiz-adv-x="176" 
d="M108 -20h-40v316h40v-316zM108 371h-40v316h40v-316z" />
    <glyph glyph-name="section" unicode="&#xa7;" horiz-adv-x="294" 
d="M265 293q0 -36 -18.5 -66.5t-54.5 -46.5q73 -60 73 -138q0 -51 -34 -87t-86 -36q-73 0 -121 60l28 34q37 -54 90 -54q32 0 53.5 25t21.5 58q0 34 -18.5 61t-44.5 46l-52 39.5t-44.5 52.5t-18.5 74q0 37 22.5 68t63.5 39q-86 63 -86 144q0 49 33 80t78 31q65 0 109 -53
l-27 -31q-35 45 -80 45q-28 0 -47 -20.5t-19 -51.5t18.5 -57t45 -45.5l52.5 -40.5t44.5 -54t18.5 -76zM219 287q0 28 -12.5 53t-21.5 34t-26 24q-74 -12 -74 -78q0 -34 17 -61t58 -57q59 28 59 85z" />
    <glyph glyph-name="dieresis" unicode="&#xa8;" horiz-adv-x="258" 
d="M231 600q0 -14 -11 -24.5t-25 -10.5q-15 0 -25.5 10.5t-10.5 24.5q0 15 10.5 25.5t25.5 10.5q14 0 25 -10.5t11 -25.5zM99 600q0 -14 -10.5 -24.5t-25.5 -10.5q-14 0 -25 10.5t-11 24.5q0 15 11 25.5t25 10.5q15 0 25.5 -10.5t10.5 -25.5z" />
    <glyph glyph-name="copyright" unicode="&#xa9;" horiz-adv-x="778" 
d="M734 334q0 -142 -101 -243.5t-244 -101.5t-244 101.5t-101 243.5t101 243.5t244 101.5t244 -101.5t101 -243.5zM706 334q0 130 -93 223.5t-224 93.5t-224 -93.5t-93 -223.5t93 -223.5t224 -93.5t224 93.5t93 223.5zM513 207l22 -21q-57 -66 -144 -66t-148 62t-61 152
q0 92 60.5 153.5t148.5 61.5q89 0 144 -64l-22 -23q-19 26 -53 42t-69 16q-72 0 -124.5 -52t-52.5 -134q0 -79 53 -132t124 -53q36 0 69 16t53 42z" />
    <glyph glyph-name="ordfeminine" unicode="&#xaa;" horiz-adv-x="270" 
d="M222 326h-41v33q-23 -41 -66 -41q-39 0 -62 28.5t-23 75.5t23 75.5t62 28.5q43 0 66 -40v58q0 69 -54 69q-36 0 -66 -37l-19 30q39 42 91 42q47 0 68 -27t21 -86v-209zM125 348q40 0 56 42v66q-16 42 -56 42q-26 0 -40 -21.5t-14 -53.5t14 -53.5t40 -21.5z" />
    <glyph glyph-name="guillemotleft" unicode="&#xab;" horiz-adv-x="299" 
d="M269 63h-46l-90 180l90 177h46l-90 -177zM166 63h-46l-90 180l90 177h46l-90 -177z" />
    <glyph glyph-name="logicalnot" unicode="&#xac;" horiz-adv-x="376" 
d="M347 452v-236h-42v196h-276v40h318z" />
    <glyph glyph-name="uni00AD" unicode="&#xad;" horiz-adv-x="232" 
d="M202 219h-172v46h172v-46z" />
    <glyph glyph-name="registered" unicode="&#xae;" horiz-adv-x="494" 
d="M459 465q0 -88 -62 -150t-150 -62t-150 62t-62 150t62 150t150 62q89 0 150.5 -61.5t61.5 -150.5zM432 465q0 77 -54 131t-131 54t-131 -54t-54 -131q0 -76 54.5 -130.5t130.5 -54.5t130.5 54.5t54.5 130.5zM344 343h-38l-63 96h-46v-96h-30v243h99q32 0 53.5 -20.5
t21.5 -53.5q0 -35 -22.5 -53.5t-39.5 -18.5zM310 512q0 19 -13.5 32.5t-30.5 13.5h-69v-90h69q16 0 30 13t14 31z" />
    <glyph glyph-name="macron" unicode="&#xaf;" horiz-adv-x="244" 
d="M244 577h-244v36h244v-36z" />
    <glyph glyph-name="degree" unicode="&#xb0;" horiz-adv-x="281" 
d="M255 561q0 -47 -34 -81t-81 -34q-48 0 -81.5 34t-33.5 81q0 48 33.5 82t81.5 34q47 0 81 -34t34 -82zM218 561q0 32 -23 55t-55 23t-54.5 -23t-22.5 -55t22.5 -54.5t54.5 -22.5t55 23t23 54z" />
    <glyph glyph-name="plusminus" unicode="&#xb1;" horiz-adv-x="376" 
d="M347 317h-138v-158h-42v158h-138v40h138v152h42v-152h138v-40zM347 52h-318v40h318v-40z" />
    <glyph glyph-name="twosuperior" unicode="&#xb2;" horiz-adv-x="252" 
d="M226 421h-193v33q96 139 122 185.5t26 86.5q0 30 -15.5 47.5t-39.5 17.5q-45 0 -69 -52l-30 23q36 65 100 65q43 0 70.5 -27t27.5 -73q0 -43 -27 -93t-114 -177h142v-36z" />
    <glyph glyph-name="threesuperior" unicode="&#xb3;" horiz-adv-x="252" 
d="M228 529q0 -52 -26.5 -83.5t-76.5 -31.5q-35 0 -61.5 19t-40.5 48l31 24q24 -55 69 -55q62 0 62 81q0 42 -19 60.5t-45 18.5q-21 0 -25 -1v36q5 -1 23 -1q28 0 45 18.5t17 53.5q0 75 -57 75q-42 0 -67 -50l-30 23q15 29 41 46t57 17q44 0 71 -26.5t27 -79.5
q0 -33 -17.5 -59t-43.5 -34q26 -6 46 -33t20 -66z" />
    <glyph glyph-name="acute" unicode="&#xb4;" horiz-adv-x="133" 
d="M133 700l-98 -144h-35l78 144h55z" />
    <glyph glyph-name="mu" unicode="&#xb5;" horiz-adv-x="368" 
d="M110 11v-195h-49v667h49v-383q0 -70 53 -70q28 0 51 25t36 62v366h50v-395q0 -30 6.5 -43t25.5 -13q8 0 14 1l4 -42q-18 -3 -25 -3q-36 0 -53.5 20t-20.5 63q-32 -83 -90 -83q-35 0 -51 23z" />
    <glyph glyph-name="paragraph" unicode="&#xb6;" horiz-adv-x="449" 
d="M366 -100h-37v731h-94v-731h-36v423q-71 0 -121.5 50.5t-50.5 121.5t50.5 121.5t121.5 50.5h167v-767z" />
    <glyph glyph-name="periodcentered" unicode="&#xb7;" horiz-adv-x="217" 
d="M151 245q0 -17 -12.5 -30t-29.5 -13q-18 0 -30.5 13t-12.5 30t12.5 29.5t30.5 12.5q17 0 29.5 -12.5t12.5 -29.5z" />
    <glyph glyph-name="cedilla" unicode="&#xb8;" horiz-adv-x="158" 
d="M74 -189q-40 0 -74 29l15 31q28 -27 58 -27q20 0 35 12.5t15 32.5q0 37 -31 37q-18 0 -30 -14l-26 15l31 84h36l-26 -69q11 10 29 10q22 0 37 -17.5t15 -45.5q0 -34 -24 -56t-60 -22z" />
    <glyph glyph-name="onesuperior" unicode="&#xb9;" horiz-adv-x="203" 
d="M146 421h-43v344l-60 -65l-26 26l91 95h38v-400z" />
    <glyph glyph-name="ordmasculine" unicode="&#xba;" horiz-adv-x="280" 
d="M140 318q-52 0 -78.5 47t-26.5 118t26.5 118t78.5 47t79 -47t27 -118t-27 -118t-79 -47zM140 353q63 0 63 130q0 129 -63 129t-63 -129q0 -130 63 -130z" />
    <glyph glyph-name="guillemotright" unicode="&#xbb;" horiz-adv-x="299" 
d="M166 243l-90 -180h-46l90 180l-90 177h46zM269 243l-90 -180h-46l90 180l-90 177h46z" />
    <glyph glyph-name="onequarter" unicode="&#xbc;" horiz-adv-x="545" 
d="M146 267h-43v344l-60 -65l-26 26l91 95h38v-400zM529 108h-38v-108h-41v108h-138v36l127 256h52v-257h38v-35zM450 143v205l-101 -205h101zM424 667l-272 -667h-36l271 667h37z" />
    <glyph glyph-name="onehalf" unicode="&#xbd;" horiz-adv-x="576" 
d="M146 267h-43v344l-60 -65l-26 26l91 95h38v-400zM550 0h-193v33q96 139 122 185.5t26 86.5q0 30 -15.5 47.5t-39.5 17.5q-45 0 -69 -52l-30 23q36 65 100 65q43 0 70.5 -27t27.5 -73q0 -43 -27 -93t-114 -177h142v-36zM424 667l-272 -667h-36l271 667h37z" />
    <glyph glyph-name="threequarters" unicode="&#xbe;" horiz-adv-x="581" 
d="M565 108h-38v-108h-41v108h-138v36l127 256h52v-257h38v-35zM486 143v205l-101 -205h101zM460 667l-272 -667h-36l271 667h37zM228 375q0 -52 -26.5 -83.5t-76.5 -31.5q-35 0 -61.5 19t-40.5 48l31 24q24 -55 69 -55q62 0 62 81q0 42 -19 60.5t-45 18.5q-21 0 -25 -1v36
q5 -1 23 -1q28 0 45 18.5t17 53.5q0 75 -57 75q-42 0 -67 -50l-30 23q15 29 41 46t57 17q44 0 71 -26.5t27 -79.5q0 -33 -17.5 -59t-43.5 -34q26 -6 46 -33t20 -66z" />
    <glyph glyph-name="questiondown" unicode="&#xbf;" horiz-adv-x="263" 
d="M166 304q27 -33 27 -81q0 -41 -17.5 -77.5t-38.5 -59.5t-38.5 -59.5t-17.5 -78.5q0 -37 23.5 -67t60.5 -30q40 0 73 34l27 -37q-41 -45 -106 -45q-56 0 -93.5 40.5t-37.5 98.5q0 47 18.5 87.5t40 65t40 59t18.5 70.5q0 35 -22 57zM150 492q17 0 30 -12.5t13 -29.5
t-13 -29.5t-30 -12.5t-29.5 12.5t-12.5 29.5t12.5 29.5t29.5 12.5z" />
    <glyph glyph-name="Agrave" unicode="&#xc0;" horiz-adv-x="338" 
d="M329 0h-56l-29 166h-150l-29 -166h-56l129 667h62zM237 215l-68 383l-68 -383h136zM203 723h-36l-97 144h54z" />
    <glyph glyph-name="Aacute" unicode="&#xc1;" horiz-adv-x="338" 
d="M329 0h-56l-29 166h-150l-29 -166h-56l129 667h62zM237 215l-68 383l-68 -383h136zM269 867l-98 -144h-35l78 144h55z" />
    <glyph glyph-name="Acircumflex" unicode="&#xc2;" horiz-adv-x="338" 
d="M264 723h-32l-64 111l-60 -111h-32l67 144h51zM329 0h-56l-29 166h-150l-29 -166h-56l129 667h62zM237 215l-68 383l-68 -383h136z" />
    <glyph glyph-name="Atilde" unicode="&#xc3;" horiz-adv-x="338" 
d="M329 0h-56l-29 166h-150l-29 -166h-56l129 667h62zM237 215l-68 383l-68 -383h136zM209 721q-19 0 -31.5 16.5t-17.5 35.5t-13 35.5t-19 16.5q-35 0 -35 -98h-30q0 59 16.5 96.5t51.5 37.5q19 0 31.5 -16.5t17.5 -35.5t13 -35.5t19 -16.5q34 0 34 98h31
q0 -59 -16.5 -96.5t-51.5 -37.5z" />
    <glyph glyph-name="Adieresis" unicode="&#xc4;" horiz-adv-x="338" 
d="M271 767q0 -14 -11 -24.5t-25 -10.5q-15 0 -25.5 10.5t-10.5 24.5q0 15 10.5 25.5t25.5 10.5q14 0 25 -10.5t11 -25.5zM139 767q0 -14 -10.5 -24.5t-25.5 -10.5q-14 0 -25 10.5t-11 24.5q0 15 11 25.5t25 10.5q15 0 25.5 -10.5t10.5 -25.5zM329 0h-56l-29 166h-150
l-29 -166h-56l129 667h62zM237 215l-68 383l-68 -383h136z" />
    <glyph glyph-name="Aring" unicode="&#xc5;" horiz-adv-x="338" 
d="M329 0h-56l-29 166h-150l-29 -166h-56l129 667h62zM237 215l-68 383l-68 -383h136zM169 692q-33 0 -56.5 23.5t-23.5 57.5q0 33 23.5 56.5t56.5 23.5q34 0 57 -23.5t23 -56.5q0 -34 -23 -57.5t-57 -23.5zM169 722q22 0 36.5 15t14.5 36t-14.5 35.5t-36.5 14.5
q-20 0 -35 -14.5t-15 -35.5t15 -36t35 -15z" />
    <glyph glyph-name="AE" unicode="&#xc6;" horiz-adv-x="532" 
d="M484 0h-229v166h-131l-51 -166h-55l214 667h252v-49h-175v-252h168v-48h-168v-269h175v-49zM255 215v383l-117 -383h117z" />
    <glyph glyph-name="Ccedilla" unicode="&#xc7;" horiz-adv-x="374" 
d="M203 -185q-40 0 -74 29l15 31q28 -27 58 -27q20 0 35 12.5t15 32.5q0 37 -31 37q-18 0 -30 -14l-26 15l21 59q-71 13 -104.5 105.5t-33.5 237.5q0 101 15 175.5t52 122t93 47.5q51 0 79.5 -31.5t45.5 -84.5l-46 -17q-14 43 -31.5 63.5t-47.5 20.5q-53 0 -78 -81t-25 -215
t25 -215t78 -81q34 0 52 26.5t29 76.5l47 -18q-30 -123 -114 -133l-16 -43q11 10 29 10q22 0 37 -17.5t15 -45.5q0 -34 -24 -56t-60 -22z" />
    <glyph glyph-name="Egrave" unicode="&#xc8;" horiz-adv-x="341" 
d="M296 0h-228v667h228v-49h-175v-252h168v-48h-168v-269h175v-49zM216 723h-36l-97 144h54z" />
    <glyph glyph-name="Eacute" unicode="&#xc9;" horiz-adv-x="341" 
d="M282 867l-98 -144h-35l78 144h55zM296 0h-228v667h228v-49h-175v-252h168v-48h-168v-269h175v-49z" />
    <glyph glyph-name="Ecircumflex" unicode="&#xca;" horiz-adv-x="341" 
d="M279 723h-32l-64 111l-60 -111h-32l67 144h51zM296 0h-228v667h228v-49h-175v-252h168v-48h-168v-269h175v-49z" />
    <glyph glyph-name="Edieresis" unicode="&#xcb;" horiz-adv-x="341" 
d="M285 767q0 -14 -11 -24.5t-25 -10.5q-15 0 -25.5 10.5t-10.5 24.5q0 15 10.5 25.5t25.5 10.5q14 0 25 -10.5t11 -25.5zM153 767q0 -14 -10.5 -24.5t-25.5 -10.5q-14 0 -25 10.5t-11 24.5q0 15 11 25.5t25 10.5q15 0 25.5 -10.5t10.5 -25.5zM296 0h-228v667h228v-49h-175
v-252h168v-48h-168v-269h175v-49z" />
    <glyph glyph-name="Igrave" unicode="&#xcc;" horiz-adv-x="189" 
d="M121 0h-53v667h53v-667zM128 723h-36l-97 144h54z" />
    <glyph glyph-name="Iacute" unicode="&#xcd;" horiz-adv-x="189" 
d="M121 0h-53v667h53v-667zM194 867l-98 -144h-35l78 144h55z" />
    <glyph glyph-name="Icircumflex" unicode="&#xce;" horiz-adv-x="189" 
d="M190 723h-32l-64 111l-60 -111h-32l67 144h51zM121 0h-53v667h53v-667z" />
    <glyph glyph-name="Idieresis" unicode="&#xcf;" horiz-adv-x="189" 
d="M199 767q0 -14 -11 -24.5t-25 -10.5q-15 0 -25.5 10.5t-10.5 24.5q0 15 10.5 25.5t25.5 10.5q14 0 25 -10.5t11 -25.5zM67 767q0 -14 -10.5 -24.5t-25.5 -10.5q-14 0 -25 10.5t-11 24.5q0 15 11 25.5t25 10.5q15 0 25.5 -10.5t10.5 -25.5zM121 0h-53v667h53v-667z" />
    <glyph glyph-name="Eth" unicode="&#xd0;" horiz-adv-x="424" 
d="M196 0h-110v310h-62v42h62v315h109q93 0 137.5 -90t44.5 -244t-44 -243.5t-137 -89.5zM195 49q125 0 125 284q0 285 -125 285h-56v-266h90v-42h-90v-261h56z" />
    <glyph glyph-name="Ntilde" unicode="&#xd1;" horiz-adv-x="415" 
d="M244 721q-19 0 -31.5 16.5t-17.5 35.5t-13 35.5t-19 16.5q-35 0 -35 -98h-30q0 59 16.5 96.5t51.5 37.5q19 0 31.5 -16.5t17.5 -35.5t13 -35.5t19 -16.5q34 0 34 98h31q0 -59 -16.5 -96.5t-51.5 -37.5zM348 0h-52l-175 518v-518h-53v667h53l173 -511v511h54v-667z" />
    <glyph glyph-name="Ograve" unicode="&#xd2;" horiz-adv-x="415" 
d="M241 723h-36l-97 144h54zM207 -12q-57 0 -93.5 48.5t-51 122.5t-14.5 174q0 99 14.5 173.5t51.5 123t93 48.5q57 0 94 -48.5t51.5 -123t14.5 -173.5q0 -100 -14.5 -174t-51.5 -122.5t-94 -48.5zM207 37q54 0 78.5 82.5t24.5 213.5q0 132 -24.5 214t-78.5 82
q-53 0 -77.5 -82t-24.5 -214q0 -130 24.5 -213t77.5 -83z" />
    <glyph glyph-name="Oacute" unicode="&#xd3;" horiz-adv-x="415" 
d="M307 867l-98 -144h-35l78 144h55zM207 -12q-57 0 -93.5 48.5t-51 122.5t-14.5 174q0 99 14.5 173.5t51.5 123t93 48.5q57 0 94 -48.5t51.5 -123t14.5 -173.5q0 -100 -14.5 -174t-51.5 -122.5t-94 -48.5zM207 37q54 0 78.5 82.5t24.5 213.5q0 132 -24.5 214t-78.5 82
q-53 0 -77.5 -82t-24.5 -214q0 -130 24.5 -213t77.5 -83z" />
    <glyph glyph-name="Ocircumflex" unicode="&#xd4;" horiz-adv-x="415" 
d="M302 723h-32l-64 111l-60 -111h-32l67 144h51zM207 -12q-57 0 -93.5 48.5t-51 122.5t-14.5 174q0 99 14.5 173.5t51.5 123t93 48.5q57 0 94 -48.5t51.5 -123t14.5 -173.5q0 -100 -14.5 -174t-51.5 -122.5t-94 -48.5zM207 37q54 0 78.5 82.5t24.5 213.5q0 132 -24.5 214
t-78.5 82q-53 0 -77.5 -82t-24.5 -214q0 -130 24.5 -213t77.5 -83z" />
    <glyph glyph-name="Otilde" unicode="&#xd5;" horiz-adv-x="415" 
d="M207 -12q-57 0 -93.5 48.5t-51 122.5t-14.5 174q0 99 14.5 173.5t51.5 123t93 48.5q57 0 94 -48.5t51.5 -123t14.5 -173.5q0 -100 -14.5 -174t-51.5 -122.5t-94 -48.5zM207 37q54 0 78.5 82.5t24.5 213.5q0 132 -24.5 214t-78.5 82q-53 0 -77.5 -82t-24.5 -214
q0 -130 24.5 -213t77.5 -83zM247 721q-19 0 -31.5 16.5t-17.5 35.5t-13 35.5t-19 16.5q-35 0 -35 -98h-30q0 59 16.5 96.5t51.5 37.5q19 0 31.5 -16.5t17.5 -35.5t13 -35.5t19 -16.5q34 0 34 98h31q0 -59 -16.5 -96.5t-51.5 -37.5z" />
    <glyph glyph-name="Odieresis" unicode="&#xd6;" horiz-adv-x="415" 
d="M309 767q0 -14 -11 -24.5t-25 -10.5q-15 0 -25.5 10.5t-10.5 24.5q0 15 10.5 25.5t25.5 10.5q14 0 25 -10.5t11 -25.5zM177 767q0 -14 -10.5 -24.5t-25.5 -10.5q-14 0 -25 10.5t-11 24.5q0 15 11 25.5t25 10.5q15 0 25.5 -10.5t10.5 -25.5zM207 -12q-57 0 -93.5 48.5
t-51 122.5t-14.5 174q0 99 14.5 173.5t51.5 123t93 48.5q57 0 94 -48.5t51.5 -123t14.5 -173.5q0 -100 -14.5 -174t-51.5 -122.5t-94 -48.5zM207 37q54 0 78.5 82.5t24.5 213.5q0 132 -24.5 214t-78.5 82q-53 0 -77.5 -82t-24.5 -214q0 -130 24.5 -213t77.5 -83z" />
    <glyph glyph-name="multiply" unicode="&#xd7;" horiz-adv-x="376" 
d="M298 196l-110 110l-109 -110l-29 29l110 109l-110 109l29 29l109 -110l110 110l28 -29l-110 -109l110 -109z" />
    <glyph glyph-name="Oslash" unicode="&#xd8;" horiz-adv-x="415" 
d="M207 -12q-56 0 -94 47l-13 -35h-42l30 78q-40 88 -40 255q0 99 14.5 173.5t51.5 123t93 48.5t94 -48l14 37h43l-31 -81q40 -90 40 -253q0 -100 -14.5 -174t-51.5 -122.5t-94 -48.5zM207 37q54 0 78.5 82.5t24.5 213.5q0 104 -14 173l-159 -408q26 -61 70 -61zM105 333
q0 -104 14 -174l158 410q-26 60 -70 60q-53 0 -77.5 -82t-24.5 -214z" />
    <glyph glyph-name="Ugrave" unicode="&#xd9;" horiz-adv-x="416" 
d="M208 -12q-65 0 -102.5 43.5t-37.5 131.5v504h53v-505q0 -125 87 -125t87 125v505h54v-504q0 -88 -37.5 -131.5t-103.5 -43.5zM242 723h-36l-97 144h54z" />
    <glyph glyph-name="Uacute" unicode="&#xda;" horiz-adv-x="416" 
d="M308 867l-98 -144h-35l78 144h55zM208 -12q-65 0 -102.5 43.5t-37.5 131.5v504h53v-505q0 -125 87 -125t87 125v505h54v-504q0 -88 -37.5 -131.5t-103.5 -43.5z" />
    <glyph glyph-name="Ucircumflex" unicode="&#xdb;" horiz-adv-x="416" 
d="M302 723h-32l-64 111l-60 -111h-32l67 144h51zM208 -12q-65 0 -102.5 43.5t-37.5 131.5v504h53v-505q0 -125 87 -125t87 125v505h54v-504q0 -88 -37.5 -131.5t-103.5 -43.5z" />
    <glyph glyph-name="Udieresis" unicode="&#xdc;" horiz-adv-x="416" 
d="M310 767q0 -14 -11 -24.5t-25 -10.5q-15 0 -25.5 10.5t-10.5 24.5q0 15 10.5 25.5t25.5 10.5q14 0 25 -10.5t11 -25.5zM178 767q0 -14 -10.5 -24.5t-25.5 -10.5q-14 0 -25 10.5t-11 24.5q0 15 11 25.5t25 10.5q15 0 25.5 -10.5t10.5 -25.5zM208 -12q-65 0 -102.5 43.5
t-37.5 131.5v504h53v-505q0 -125 87 -125t87 125v505h54v-504q0 -88 -37.5 -131.5t-103.5 -43.5z" />
    <glyph glyph-name="Yacute" unicode="&#xdd;" horiz-adv-x="347" 
d="M200 0h-53v286l-146 381h58l115 -323l116 323h56l-146 -381v-286zM273 867l-98 -144h-35l78 144h55z" />
    <glyph glyph-name="Thorn" unicode="&#xde;" horiz-adv-x="364" 
d="M121 0h-53v667h53v-125h65q73 0 110 -55t37 -140q0 -84 -37 -138.5t-110 -54.5h-65v-154zM182 203q47 0 71 39t24 105q0 67 -24 107t-71 40h-61v-291h61z" />
    <glyph glyph-name="germandbls" unicode="&#xdf;" horiz-adv-x="424" 
d="M408 111q0 -51 -34 -87t-85 -36q-70 0 -118 60l26 37q42 -55 87 -55q28 0 50.5 22.5t22.5 58.5q0 33 -18 59t-43.5 45l-50.5 38.5t-43 50.5t-18 72q0 29 16 54.5t34.5 41t34.5 38.5t16 49q0 31 -22.5 52.5t-57.5 21.5q-37 0 -60.5 -25.5t-23.5 -76.5v-531h-49v531
q0 65 36.5 105.5t96.5 40.5q56 0 92 -33t36 -82q0 -28 -10.5 -51t-25 -38t-29 -28.5t-25 -30t-10.5 -35.5q0 -31 18 -56t43.5 -43.5l51.5 -39t44 -53.5t18 -76z" />
    <glyph glyph-name="agrave" unicode="&#xe0;" horiz-adv-x="359" 
d="M298 0h-49v51q-31 -63 -91 -63q-55 0 -88 45t-33 116t33 115.5t88 44.5q61 0 91 -60v91q0 57 -17 84.5t-59 27.5q-51 0 -94 -52l-24 36q56 59 123 59q64 0 92 -36t28 -113v-346zM167 26q58 0 82 69v106q-24 69 -82 69q-38 0 -58.5 -35t-20.5 -87q0 -51 20.5 -86.5
t58.5 -35.5zM212 556h-36l-97 144h54z" />
    <glyph glyph-name="aacute" unicode="&#xe1;" horiz-adv-x="359" 
d="M298 0h-49v51q-31 -63 -91 -63q-55 0 -88 45t-33 116t33 115.5t88 44.5q61 0 91 -60v91q0 57 -17 84.5t-59 27.5q-51 0 -94 -52l-24 36q56 59 123 59q64 0 92 -36t28 -113v-346zM167 26q58 0 82 69v106q-24 69 -82 69q-38 0 -58.5 -35t-20.5 -87q0 -51 20.5 -86.5
t58.5 -35.5zM278 700l-98 -144h-35l78 144h55z" />
    <glyph glyph-name="acircumflex" unicode="&#xe2;" horiz-adv-x="359" 
d="M298 0h-49v51q-31 -63 -91 -63q-55 0 -88 45t-33 116t33 115.5t88 44.5q61 0 91 -60v91q0 57 -17 84.5t-59 27.5q-51 0 -94 -52l-24 36q56 59 123 59q64 0 92 -36t28 -113v-346zM167 26q58 0 82 69v106q-24 69 -82 69q-38 0 -58.5 -35t-20.5 -87q0 -51 20.5 -86.5
t58.5 -35.5zM275 556h-32l-64 111l-60 -111h-32l67 144h51z" />
    <glyph glyph-name="atilde" unicode="&#xe3;" horiz-adv-x="359" 
d="M298 0h-49v51q-31 -63 -91 -63q-55 0 -88 45t-33 116t33 115.5t88 44.5q61 0 91 -60v91q0 57 -17 84.5t-59 27.5q-51 0 -94 -52l-24 36q56 59 123 59q64 0 92 -36t28 -113v-346zM167 26q58 0 82 69v106q-24 69 -82 69q-38 0 -58.5 -35t-20.5 -87q0 -51 20.5 -86.5
t58.5 -35.5zM220 554q-19 0 -31.5 16t-17.5 36t-13 36t-19 16q-35 0 -35 -98h-30q0 59 16.5 96.5t51.5 37.5q19 0 31.5 -16t17.5 -36t13 -36t19 -16q34 0 34 98h31q0 -59 -16.5 -96.5t-51.5 -37.5z" />
    <glyph glyph-name="adieresis" unicode="&#xe4;" horiz-adv-x="359" 
d="M298 0h-49v51q-31 -63 -91 -63q-55 0 -88 45t-33 116t33 115.5t88 44.5q61 0 91 -60v91q0 57 -17 84.5t-59 27.5q-51 0 -94 -52l-24 36q56 59 123 59q64 0 92 -36t28 -113v-346zM167 26q58 0 82 69v106q-24 69 -82 69q-38 0 -58.5 -35t-20.5 -87q0 -51 20.5 -86.5
t58.5 -35.5zM281 600q0 -14 -11 -24.5t-25 -10.5q-15 0 -25.5 10.5t-10.5 24.5q0 15 10.5 25.5t25.5 10.5q14 0 25 -10.5t11 -25.5zM149 600q0 -14 -10.5 -24.5t-25.5 -10.5q-14 0 -25 10.5t-11 24.5q0 15 11 25.5t25 10.5q15 0 25.5 -10.5t10.5 -25.5z" />
    <glyph glyph-name="aring" unicode="&#xe5;" horiz-adv-x="359" 
d="M298 0h-49v51q-31 -63 -91 -63q-55 0 -88 45t-33 116t33 115.5t88 44.5q61 0 91 -60v91q0 57 -17 84.5t-59 27.5q-51 0 -94 -52l-24 36q56 59 123 59q64 0 92 -36t28 -113v-346zM167 26q58 0 82 69v106q-24 69 -82 69q-38 0 -58.5 -35t-20.5 -87q0 -51 20.5 -86.5
t58.5 -35.5zM179 549q-33 0 -56.5 23.5t-23.5 57.5q0 33 23.5 56.5t56.5 23.5q34 0 57 -23.5t23 -56.5q0 -34 -23 -57.5t-57 -23.5zM179 579q22 0 36.5 15t14.5 36t-14.5 35.5t-36.5 14.5q-20 0 -35 -14.5t-15 -35.5t15 -36t35 -15z" />
    <glyph glyph-name="ae" unicode="&#xe6;" horiz-adv-x="563" 
d="M527 226h-223q0 -90 27 -143t78 -53q21 0 41.5 17t34.5 46l34 -25q-45 -80 -116 -80q-48 0 -75 26.5t-47 73.5q-33 -100 -116 -100q-60 0 -94 43.5t-34 115.5t33.5 117t91.5 45q61 0 94 -60v91q0 56 -18.5 84t-60.5 28q-54 0 -98 -52l-24 36q56 59 122 59q96 0 108 -92
q29 92 103 92q72 0 105.5 -70.5t33.5 -182.5v-16zM304 265h172q0 35 -4 65.5t-13 59.5t-26.5 46t-42.5 17t-43 -18t-26.5 -48t-12.5 -60t-4 -62zM256 176v25q-27 69 -86 69q-38 0 -60 -32t-22 -88q0 -57 22 -89t60 -32q39 0 62.5 39.5t23.5 107.5z" />
    <glyph glyph-name="ccedilla" unicode="&#xe7;" horiz-adv-x="306" 
d="M187 -187q-40 0 -74 29l15 31q28 -27 58 -27q20 0 35 12.5t15 32.5q0 37 -31 37q-18 0 -30 -14l-26 15l22 61q-62 9 -95.5 79t-33.5 173q0 111 38.5 182t109.5 71q53 0 91 -45l-24 -36q-29 37 -64 37q-51 0 -75 -60t-24 -149t24 -149.5t75 -60.5q35 0 64 37l24 -36
q-31 -40 -74 -44l-17 -45q11 10 29 10q22 0 37 -17.5t15 -45.5q0 -34 -24 -56t-60 -22z" />
    <glyph glyph-name="egrave" unicode="&#xe8;" 
d="M199 -12q-79 0 -118 69.5t-39 184.5q0 112 35.5 182.5t106.5 70.5q72 0 105.5 -70t33.5 -182v-17h-230q0 -90 28 -143t81 -53q46 0 79 63l34 -25q-45 -80 -116 -80zM272 265q0 35 -4 65.5t-13.5 59.5t-28 46t-43.5 17q-26 0 -44.5 -18.5t-28 -48t-13.5 -60t-4 -61.5h179z
M217 556h-36l-97 144h54z" />
    <glyph glyph-name="eacute" unicode="&#xe9;" 
d="M283 700l-98 -144h-35l78 144h55zM199 -12q-79 0 -118 69.5t-39 184.5q0 112 35.5 182.5t106.5 70.5q72 0 105.5 -70t33.5 -182v-17h-230q0 -90 28 -143t81 -53q46 0 79 63l34 -25q-45 -80 -116 -80zM272 265q0 35 -4 65.5t-13.5 59.5t-28 46t-43.5 17q-26 0 -44.5 -18.5
t-28 -48t-13.5 -60t-4 -61.5h179z" />
    <glyph glyph-name="ecircumflex" unicode="&#xea;" 
d="M279 556h-32l-64 111l-60 -111h-32l67 144h51zM199 -12q-79 0 -118 69.5t-39 184.5q0 112 35.5 182.5t106.5 70.5q72 0 105.5 -70t33.5 -182v-17h-230q0 -90 28 -143t81 -53q46 0 79 63l34 -25q-45 -80 -116 -80zM272 265q0 35 -4 65.5t-13.5 59.5t-28 46t-43.5 17
q-26 0 -44.5 -18.5t-28 -48t-13.5 -60t-4 -61.5h179z" />
    <glyph glyph-name="edieresis" unicode="&#xeb;" 
d="M285 600q0 -14 -11 -24.5t-25 -10.5q-15 0 -25.5 10.5t-10.5 24.5q0 15 10.5 25.5t25.5 10.5q14 0 25 -10.5t11 -25.5zM153 600q0 -14 -10.5 -24.5t-25.5 -10.5q-14 0 -25 10.5t-11 24.5q0 15 11 25.5t25 10.5q15 0 25.5 -10.5t10.5 -25.5zM199 -12q-79 0 -118 69.5
t-39 184.5q0 112 35.5 182.5t106.5 70.5q72 0 105.5 -70t33.5 -182v-17h-230q0 -90 28 -143t81 -53q46 0 79 63l34 -25q-45 -80 -116 -80zM272 265q0 35 -4 65.5t-13.5 59.5t-28 46t-43.5 17q-26 0 -44.5 -18.5t-28 -48t-13.5 -60t-4 -61.5h179z" />
    <glyph glyph-name="igrave" unicode="&#xec;" horiz-adv-x="170" 
d="M110 0h-49v483h49v-483zM119 556h-36l-97 144h54z" />
    <glyph glyph-name="iacute" unicode="&#xed;" horiz-adv-x="170" 
d="M185 700l-98 -144h-35l78 144h55zM110 0h-49v483h49v-483z" />
    <glyph glyph-name="icircumflex" unicode="&#xee;" horiz-adv-x="170" 
d="M180 556h-32l-64 111l-60 -111h-32l67 144h51zM110 0h-49v483h49v-483z" />
    <glyph glyph-name="idieresis" unicode="&#xef;" horiz-adv-x="170" 
d="M187 600q0 -14 -11 -24.5t-25 -10.5q-15 0 -25.5 10.5t-10.5 24.5q0 15 10.5 25.5t25.5 10.5q14 0 25 -10.5t11 -25.5zM55 600q0 -14 -10.5 -24.5t-25.5 -10.5q-14 0 -25 10.5t-11 24.5q0 15 11 25.5t25 10.5q15 0 25.5 -10.5t10.5 -25.5zM110 0h-49v483h49v-483z" />
    <glyph glyph-name="eth" unicode="&#xf0;" horiz-adv-x="367" 
d="M111 519l-15 32l99 44q-18 39 -35 66l45 22q22 -36 36 -68l71 32l13 -30l-70 -32q70 -165 70 -336q0 -116 -34 -188.5t-107 -72.5t-107.5 71t-34.5 180q0 69 12.5 123t43.5 90t78 36q55 0 79 -58q-15 60 -46 134zM184 32q88 0 88 207q0 205 -88 205q-89 0 -89 -205
q0 -207 89 -207z" />
    <glyph glyph-name="ntilde" unicode="&#xf1;" 
d="M300 0h-50v383q0 68 -49 68q-28 0 -53 -25.5t-38 -61.5v-364h-49v483h49v-70q17 35 45.5 58.5t59.5 23.5q85 0 85 -103v-392zM221 554q-19 0 -31.5 16t-17.5 36t-13 36t-19 16q-35 0 -35 -98h-30q0 59 16.5 96.5t51.5 37.5q19 0 31.5 -16t17.5 -36t13 -36t19 -16
q34 0 34 98h31q0 -59 -16.5 -96.5t-51.5 -37.5z" />
    <glyph glyph-name="ograve" unicode="&#xf2;" horiz-adv-x="367" 
d="M184 -12q-50 0 -83 37t-46 92t-13 125t13 124.5t46 91.5t83 37t82.5 -37t45.5 -91.5t13 -124.5t-13 -125t-45.5 -92t-82.5 -37zM184 32q88 0 88 210q0 209 -88 209q-89 0 -89 -209q0 -210 89 -210zM218 556h-36l-97 144h54z" />
    <glyph glyph-name="oacute" unicode="&#xf3;" horiz-adv-x="367" 
d="M283 700l-98 -144h-35l78 144h55zM184 -12q-50 0 -83 37t-46 92t-13 125t13 124.5t46 91.5t83 37t82.5 -37t45.5 -91.5t13 -124.5t-13 -125t-45.5 -92t-82.5 -37zM184 32q88 0 88 210q0 209 -88 209q-89 0 -89 -209q0 -210 89 -210z" />
    <glyph glyph-name="ocircumflex" unicode="&#xf4;" horiz-adv-x="367" 
d="M278 556h-32l-64 111l-60 -111h-32l67 144h51zM184 -12q-50 0 -83 37t-46 92t-13 125t13 124.5t46 91.5t83 37t82.5 -37t45.5 -91.5t13 -124.5t-13 -125t-45.5 -92t-82.5 -37zM184 32q88 0 88 210q0 209 -88 209q-89 0 -89 -209q0 -210 89 -210z" />
    <glyph glyph-name="otilde" unicode="&#xf5;" horiz-adv-x="367" 
d="M184 -12q-50 0 -83 37t-46 92t-13 125t13 124.5t46 91.5t83 37t82.5 -37t45.5 -91.5t13 -124.5t-13 -125t-45.5 -92t-82.5 -37zM184 32q88 0 88 210q0 209 -88 209q-89 0 -89 -209q0 -210 89 -210zM223 554q-19 0 -31.5 16t-17.5 36t-13 36t-19 16q-35 0 -35 -98h-30
q0 59 16.5 96.5t51.5 37.5q19 0 31.5 -16t17.5 -36t13 -36t19 -16q34 0 34 98h31q0 -59 -16.5 -96.5t-51.5 -37.5z" />
    <glyph glyph-name="odieresis" unicode="&#xf6;" horiz-adv-x="367" 
d="M286 600q0 -14 -11 -24.5t-25 -10.5q-15 0 -25.5 10.5t-10.5 24.5q0 15 10.5 25.5t25.5 10.5q14 0 25 -10.5t11 -25.5zM154 600q0 -14 -10.5 -24.5t-25.5 -10.5q-14 0 -25 10.5t-11 24.5q0 15 11 25.5t25 10.5q15 0 25.5 -10.5t10.5 -25.5zM184 -12q-50 0 -83 37t-46 92
t-13 125t13 124.5t46 91.5t83 37t82.5 -37t45.5 -91.5t13 -124.5t-13 -125t-45.5 -92t-82.5 -37zM184 32q88 0 88 210q0 209 -88 209q-89 0 -89 -209q0 -210 89 -210z" />
    <glyph glyph-name="divide" unicode="&#xf7;" horiz-adv-x="374" 
d="M227 477q0 -16 -11 -27.5t-27 -11.5t-27.5 11.5t-11.5 27.5t11.5 27t27.5 11t27 -11t11 -27zM345 317h-316v40h316v-40zM227 192q0 -16 -11 -27t-27 -11t-27.5 11t-11.5 27t11.5 27.5t27.5 11.5t27 -11.5t11 -27.5z" />
    <glyph glyph-name="oslash" unicode="&#xf8;" horiz-adv-x="367" 
d="M88 0h-36l26 56q-36 66 -36 186q0 70 13 124.5t46 91.5t83 37q49 0 83 -37l12 25h36l-26 -56q36 -69 36 -185q0 -70 -13 -125t-45.5 -92t-82.5 -37t-84 37zM184 32q88 0 88 210q0 75 -12 124l-137 -292q21 -42 61 -42zM95 242q0 -76 12 -124l137 291q-24 42 -60 42
q-89 0 -89 -209z" />
    <glyph glyph-name="ugrave" unicode="&#xf9;" 
d="M300 0h-50v68q-17 -35 -44.5 -57.5t-60.5 -22.5q-44 0 -64 24.5t-20 78.5v392h49v-383q0 -68 49 -68q29 0 53.5 25t37.5 60v366h50v-483zM214 556h-36l-97 144h54z" />
    <glyph glyph-name="uacute" unicode="&#xfa;" 
d="M280 700l-98 -144h-35l78 144h55zM300 0h-50v68q-17 -35 -44.5 -57.5t-60.5 -22.5q-44 0 -64 24.5t-20 78.5v392h49v-383q0 -68 49 -68q29 0 53.5 25t37.5 60v366h50v-483z" />
    <glyph glyph-name="ucircumflex" unicode="&#xfb;" 
d="M275 556h-32l-64 111l-60 -111h-32l67 144h51zM300 0h-50v68q-17 -35 -44.5 -57.5t-60.5 -22.5q-44 0 -64 24.5t-20 78.5v392h49v-383q0 -68 49 -68q29 0 53.5 25t37.5 60v366h50v-483z" />
    <glyph glyph-name="udieresis" unicode="&#xfc;" 
d="M284 600q0 -14 -11 -24.5t-25 -10.5q-15 0 -25.5 10.5t-10.5 24.5q0 15 10.5 25.5t25.5 10.5q14 0 25 -10.5t11 -25.5zM152 600q0 -14 -10.5 -24.5t-25.5 -10.5q-14 0 -25 10.5t-11 24.5q0 15 11 25.5t25 10.5q15 0 25.5 -10.5t10.5 -25.5zM300 0h-50v68
q-17 -35 -44.5 -57.5t-60.5 -22.5q-44 0 -64 24.5t-20 78.5v392h49v-383q0 -68 49 -68q29 0 53.5 25t37.5 60v366h50v-483z" />
    <glyph glyph-name="yacute" unicode="&#xfd;" horiz-adv-x="302" 
d="M30 -189l9 43q10 -6 24 -6q18 0 27 11t16 38l21 86l-114 500h53l85 -419l86 419h53l-141 -597q-11 -46 -30.5 -64t-52.5 -18q-22 0 -36 7zM250 700l-98 -144h-35l78 144h55z" />
    <glyph glyph-name="thorn" unicode="&#xfe;" horiz-adv-x="368" 
d="M199 -12q-61 0 -89 77v-249h-49v851h49v-247q31 75 89 75q64 0 95 -68.5t31 -184.5q0 -115 -31 -184.5t-95 -69.5zM191 32q82 0 82 210q0 209 -82 209q-26 0 -49.5 -27t-31.5 -63v-237q9 -37 32.5 -64.5t48.5 -27.5z" />
    <glyph glyph-name="ydieresis" unicode="&#xff;" horiz-adv-x="302" 
d="M30 -189l9 43q10 -6 24 -6q18 0 27 11t16 38l21 86l-114 500h53l85 -419l86 419h53l-141 -597q-11 -46 -30.5 -64t-52.5 -18q-22 0 -36 7zM254 600q0 -14 -11 -24.5t-25 -10.5q-15 0 -25.5 10.5t-10.5 24.5q0 15 10.5 25.5t25.5 10.5q14 0 25 -10.5t11 -25.5zM122 600
q0 -14 -10.5 -24.5t-25.5 -10.5q-14 0 -25 10.5t-11 24.5q0 15 11 25.5t25 10.5q15 0 25.5 -10.5t10.5 -25.5z" />
    <glyph glyph-name="Amacron" unicode="&#x100;" horiz-adv-x="338" 
d="M329 0h-56l-29 166h-150l-29 -166h-56l129 667h62zM237 215l-68 383l-68 -383h136zM291 744h-244v36h244v-36z" />
    <glyph glyph-name="amacron" unicode="&#x101;" horiz-adv-x="359" 
d="M298 0h-49v51q-31 -63 -91 -63q-55 0 -88 45t-33 116t33 115.5t88 44.5q61 0 91 -60v91q0 57 -17 84.5t-59 27.5q-51 0 -94 -52l-24 36q56 59 123 59q64 0 92 -36t28 -113v-346zM167 26q58 0 82 69v106q-24 69 -82 69q-38 0 -58.5 -35t-20.5 -87q0 -51 20.5 -86.5
t58.5 -35.5zM301 577h-244v36h244v-36z" />
    <glyph glyph-name="Abreve" unicode="&#x102;" horiz-adv-x="338" 
d="M329 0h-56l-29 166h-150l-29 -166h-56l129 667h62zM237 215l-68 383l-68 -383h136zM286 782q-41 -59 -117 -59q-74 0 -117 59l29 23q13 -21 38 -33.5t50 -12.5q26 0 50.5 12.5t37.5 33.5z" />
    <glyph glyph-name="abreve" unicode="&#x103;" horiz-adv-x="359" 
d="M298 0h-49v51q-31 -63 -91 -63q-55 0 -88 45t-33 116t33 115.5t88 44.5q61 0 91 -60v91q0 57 -17 84.5t-59 27.5q-51 0 -94 -52l-24 36q56 59 123 59q64 0 92 -36t28 -113v-346zM167 26q58 0 82 69v106q-24 69 -82 69q-38 0 -58.5 -35t-20.5 -87q0 -51 20.5 -86.5
t58.5 -35.5zM296 615q-41 -59 -117 -59q-74 0 -117 59l29 23q13 -21 38 -33.5t50 -12.5q26 0 50.5 12.5t37.5 33.5z" />
    <glyph glyph-name="Aogonek" unicode="&#x104;" horiz-adv-x="338" 
d="M326 -119l30 -14q-15 -53 -65 -53q-30 0 -48 18.5t-18 54.5q0 63 53 113h-5l-29 166h-150l-29 -166h-56l129 667h62l129 -667q-68 -47 -68 -112q0 -42 30 -42q27 0 35 35zM237 215l-68 383l-68 -383h136z" />
    <glyph glyph-name="aogonek" unicode="&#x105;" horiz-adv-x="359" 
d="M295 -119l30 -14q-15 -53 -65 -53q-30 0 -48 18.5t-18 54.5q0 64 55 114v50q-31 -63 -91 -63q-55 0 -88 45t-33 116t33 115.5t88 44.5q61 0 91 -60v91q0 57 -17 84.5t-59 27.5q-51 0 -94 -52l-24 36q56 59 123 59q64 0 92 -36t28 -113v-346q-68 -47 -68 -112
q0 -42 30 -42q27 0 35 35zM167 26q58 0 82 69v106q-24 69 -82 69q-38 0 -58.5 -35t-20.5 -87q0 -51 20.5 -86.5t58.5 -35.5z" />
    <glyph glyph-name="Cacute" unicode="&#x106;" horiz-adv-x="374" 
d="M307 867l-98 -144h-35l78 144h55zM208 -12q-56 0 -93 47.5t-52 122t-15 175.5t15 175.5t52 122t93 47.5q51 0 79.5 -31.5t45.5 -84.5l-46 -17q-14 43 -31.5 63.5t-47.5 20.5q-53 0 -78 -81t-25 -215t25 -215t78 -81q34 0 52 26.5t29 76.5l47 -18q-33 -134 -128 -134z" />
    <glyph glyph-name="cacute" unicode="&#x107;" horiz-adv-x="306" 
d="M289 700l-98 -144h-35l78 144h55zM190 -12q-71 0 -109.5 71.5t-38.5 182.5t38.5 182t109.5 71q53 0 91 -45l-24 -36q-29 37 -64 37q-51 0 -75 -60t-24 -149t24 -149.5t75 -60.5q35 0 64 37l24 -36q-35 -45 -91 -45z" />
    <glyph glyph-name="Ccircumflex" unicode="&#x108;" horiz-adv-x="374" 
d="M303 723h-32l-64 111l-60 -111h-32l67 144h51zM208 -12q-56 0 -93 47.5t-52 122t-15 175.5t15 175.5t52 122t93 47.5q51 0 79.5 -31.5t45.5 -84.5l-46 -17q-14 43 -31.5 63.5t-47.5 20.5q-53 0 -78 -81t-25 -215t25 -215t78 -81q34 0 52 26.5t29 76.5l47 -18
q-33 -134 -128 -134z" />
    <glyph glyph-name="ccircumflex" unicode="&#x109;" horiz-adv-x="306" 
d="M284 556h-32l-64 111l-60 -111h-32l67 144h51zM190 -12q-71 0 -109.5 71.5t-38.5 182.5t38.5 182t109.5 71q53 0 91 -45l-24 -36q-29 37 -64 37q-51 0 -75 -60t-24 -149t24 -149.5t75 -60.5q35 0 64 37l24 -36q-35 -45 -91 -45z" />
    <glyph glyph-name="Cdotaccent" unicode="&#x10a;" horiz-adv-x="374" 
d="M208 -12q-56 0 -93 47.5t-52 122t-15 175.5t15 175.5t52 122t93 47.5q51 0 79.5 -31.5t45.5 -84.5l-46 -17q-14 43 -31.5 63.5t-47.5 20.5q-53 0 -78 -81t-25 -215t25 -215t78 -81q34 0 52 26.5t29 76.5l47 -18q-33 -134 -128 -134zM207 729q-14 0 -25 10.5t-11 25.5
t11 26t25 11q16 0 26.5 -11t10.5 -26t-10.5 -25.5t-26.5 -10.5z" />
    <glyph glyph-name="cdotaccent" unicode="&#x10b;" horiz-adv-x="306" 
d="M190 -12q-71 0 -109.5 71.5t-38.5 182.5t38.5 182t109.5 71q53 0 91 -45l-24 -36q-29 37 -64 37q-51 0 -75 -60t-24 -149t24 -149.5t75 -60.5q35 0 64 37l24 -36q-35 -45 -91 -45zM191 562q-14 0 -25 10.5t-11 25.5t11 26t25 11q16 0 26.5 -11t10.5 -26t-10.5 -25.5
t-26.5 -10.5z" />
    <glyph glyph-name="Ccaron" unicode="&#x10c;" horiz-adv-x="374" 
d="M236 723h-51l-70 144h32l63 -111l61 111h32zM208 -12q-56 0 -93 47.5t-52 122t-15 175.5t15 175.5t52 122t93 47.5q51 0 79.5 -31.5t45.5 -84.5l-46 -17q-14 43 -31.5 63.5t-47.5 20.5q-53 0 -78 -81t-25 -215t25 -215t78 -81q34 0 52 26.5t29 76.5l47 -18
q-33 -134 -128 -134z" />
    <glyph glyph-name="ccaron" unicode="&#x10d;" horiz-adv-x="306" 
d="M217 556h-51l-70 144h32l63 -111l61 111h32zM190 -12q-71 0 -109.5 71.5t-38.5 182.5t38.5 182t109.5 71q53 0 91 -45l-24 -36q-29 37 -64 37q-51 0 -75 -60t-24 -149t24 -149.5t75 -60.5q35 0 64 37l24 -36q-35 -45 -91 -45z" />
    <glyph glyph-name="Dcaron" unicode="&#x10e;" horiz-adv-x="407" 
d="M226 723h-51l-70 144h32l63 -111l61 111h32zM178 0h-110v667h109q93 0 137.5 -90t44.5 -244t-44 -243.5t-137 -89.5zM177 49q125 0 125 284q0 285 -125 285h-56v-569h56z" />
    <glyph glyph-name="dcaron" unicode="&#x10f;" horiz-adv-x="437" 
d="M441 621q0 -37 -19 -72t-47 -55l-27 21q24 17 39 42t17 48l-4 -1h-5q-16 0 -26 10.5t-10 26.5t11 27t27 11q19 0 31.5 -15.5t12.5 -42.5zM307 0h-49v68q-15 -37 -40 -58.5t-50 -21.5q-64 0 -95 69t-31 184q0 114 31 184t95 70q26 0 51 -21t39 -60v253h49v-667zM177 32
q25 0 48.5 27t32.5 63v237q-9 37 -32.5 64.5t-48.5 27.5q-83 0 -83 -210q0 -209 83 -209z" />
    <glyph glyph-name="Dcroat" unicode="&#x110;" horiz-adv-x="424" 
d="M196 0h-110v310h-62v42h62v315h109q93 0 137.5 -90t44.5 -244t-44 -243.5t-137 -89.5zM195 49q125 0 125 284q0 285 -125 285h-56v-266h90v-42h-90v-261h56z" />
    <glyph glyph-name="dcroat" unicode="&#x111;" horiz-adv-x="371" 
d="M307 0h-49v68q-15 -37 -40 -58.5t-50 -21.5q-64 0 -95 69t-31 184q0 114 31 184t95 70q26 0 51 -21t39 -60v124h-120v36h120v93h49v-93h49v-36h-49v-538zM177 32q25 0 48.5 27t32.5 63v237q-9 37 -32.5 64.5t-48.5 27.5q-83 0 -83 -210q0 -209 83 -209z" />
    <glyph glyph-name="Emacron" unicode="&#x112;" horiz-adv-x="341" 
d="M296 0h-228v667h228v-49h-175v-252h168v-48h-168v-269h175v-49zM305 744h-244v36h244v-36z" />
    <glyph glyph-name="emacron" unicode="&#x113;" 
d="M199 -12q-79 0 -118 69.5t-39 184.5q0 112 35.5 182.5t106.5 70.5q72 0 105.5 -70t33.5 -182v-17h-230q0 -90 28 -143t81 -53q46 0 79 63l34 -25q-45 -80 -116 -80zM272 265q0 35 -4 65.5t-13.5 59.5t-28 46t-43.5 17q-26 0 -44.5 -18.5t-28 -48t-13.5 -60t-4 -61.5h179z
M303 577h-244v36h244v-36z" />
    <glyph glyph-name="Ebreve" unicode="&#x114;" horiz-adv-x="341" 
d="M296 0h-228v667h228v-49h-175v-252h168v-48h-168v-269h175v-49zM301 782q-41 -59 -117 -59q-74 0 -117 59l29 23q13 -21 38 -33.5t50 -12.5q26 0 50.5 12.5t37.5 33.5z" />
    <glyph glyph-name="ebreve" unicode="&#x115;" 
d="M199 -12q-79 0 -118 69.5t-39 184.5q0 112 35.5 182.5t106.5 70.5q72 0 105.5 -70t33.5 -182v-17h-230q0 -90 28 -143t81 -53q46 0 79 63l34 -25q-45 -80 -116 -80zM272 265q0 35 -4 65.5t-13.5 59.5t-28 46t-43.5 17q-26 0 -44.5 -18.5t-28 -48t-13.5 -60t-4 -61.5h179z
M301 615q-41 -59 -117 -59q-74 0 -117 59l29 23q13 -21 38 -33.5t50 -12.5q26 0 50.5 12.5t37.5 33.5z" />
    <glyph glyph-name="Edotaccent" unicode="&#x116;" horiz-adv-x="341" 
d="M296 0h-228v667h228v-49h-175v-252h168v-48h-168v-269h175v-49zM190 729q-14 0 -25 10.5t-11 25.5t11 26t25 11q16 0 26.5 -11t10.5 -26t-10.5 -25.5t-26.5 -10.5z" />
    <glyph glyph-name="edotaccent" unicode="&#x117;" 
d="M199 -12q-79 0 -118 69.5t-39 184.5q0 112 35.5 182.5t106.5 70.5q72 0 105.5 -70t33.5 -182v-17h-230q0 -90 28 -143t81 -53q46 0 79 63l34 -25q-45 -80 -116 -80zM272 265q0 35 -4 65.5t-13.5 59.5t-28 46t-43.5 17q-26 0 -44.5 -18.5t-28 -48t-13.5 -60t-4 -61.5h179z
M183 562q-14 0 -25 10.5t-11 25.5t11 26t25 11q16 0 26.5 -11t10.5 -26t-10.5 -25.5t-26.5 -10.5z" />
    <glyph glyph-name="Eogonek" unicode="&#x118;" horiz-adv-x="341" 
d="M296 0q-68 -47 -68 -112q0 -42 30 -42q27 0 35 35l30 -14q-15 -53 -65 -53q-30 0 -48 18.5t-18 54.5q0 63 53 113h-177v667h228v-49h-175v-252h168v-48h-168v-269h175v-49z" />
    <glyph glyph-name="eogonek" unicode="&#x119;" 
d="M246 -119l30 -14q-15 -53 -65 -53q-30 0 -48 18.5t-18 54.5q0 55 42 102q-73 5 -109 74t-36 179q0 112 35.5 182.5t106.5 70.5q72 0 105.5 -70t33.5 -182v-17h-230q0 -90 28 -143t81 -53q46 0 79 63l34 -25q-26 -48 -66 -68q-68 -47 -68 -112q0 -42 30 -42q27 0 35 35z
M272 265q0 35 -4 65.5t-13.5 59.5t-28 46t-43.5 17q-26 0 -44.5 -18.5t-28 -48t-13.5 -60t-4 -61.5h179z" />
    <glyph glyph-name="Ecaron" unicode="&#x11a;" horiz-adv-x="341" 
d="M207 723h-51l-70 144h32l63 -111l61 111h32zM296 0h-228v667h228v-49h-175v-252h168v-48h-168v-269h175v-49z" />
    <glyph glyph-name="ecaron" unicode="&#x11b;" 
d="M211 556h-51l-70 144h32l63 -111l61 111h32zM199 -12q-79 0 -118 69.5t-39 184.5q0 112 35.5 182.5t106.5 70.5q72 0 105.5 -70t33.5 -182v-17h-230q0 -90 28 -143t81 -53q46 0 79 63l34 -25q-45 -80 -116 -80zM272 265q0 35 -4 65.5t-13.5 59.5t-28 46t-43.5 17
q-26 0 -44.5 -18.5t-28 -48t-13.5 -60t-4 -61.5h179z" />
    <glyph glyph-name="Gcircumflex" unicode="&#x11c;" horiz-adv-x="393" 
d="M303 723h-32l-64 111l-60 -111h-32l67 144h51zM208 -12q-81 0 -120.5 92.5t-39.5 252.5q0 161 39.5 253t120.5 92q89 0 125 -116l-46 -17q-13 42 -31 63t-48 21q-103 0 -103 -296t103 -296q51 0 76 46v198h-95v49h145v-266q-45 -76 -126 -76z" />
    <glyph glyph-name="gcircumflex" unicode="&#x11d;" horiz-adv-x="368" 
d="M277 556h-32l-64 111l-60 -111h-32l67 144h51zM171 -196q-72 0 -119 48l24 42q39 -46 92 -46q90 0 90 121v103q-15 -37 -40 -59.5t-50 -22.5q-64 0 -95 68.5t-31 183.5t31 184t95 69q26 0 51 -21t39 -60v69h49v-510q0 -169 -136 -169zM177 34q25 0 48.5 27.5t32.5 64.5
v233q-9 37 -32.5 64.5t-48.5 27.5q-83 0 -83 -209q0 -208 83 -208z" />
    <glyph glyph-name="Gbreve" unicode="&#x11e;" horiz-adv-x="393" 
d="M208 -12q-81 0 -120.5 92.5t-39.5 252.5q0 161 39.5 253t120.5 92q89 0 125 -116l-46 -17q-13 42 -31 63t-48 21q-103 0 -103 -296t103 -296q51 0 76 46v198h-95v49h145v-266q-45 -76 -126 -76zM327 782q-41 -59 -117 -59q-74 0 -117 59l29 23q13 -21 38 -33.5t50 -12.5
q26 0 50.5 12.5t37.5 33.5z" />
    <glyph glyph-name="gbreve" unicode="&#x11f;" horiz-adv-x="368" 
d="M171 -196q-72 0 -119 48l24 42q39 -46 92 -46q90 0 90 121v103q-15 -37 -40 -59.5t-50 -22.5q-64 0 -95 68.5t-31 183.5t31 184t95 69q26 0 51 -21t39 -60v69h49v-510q0 -169 -136 -169zM177 34q25 0 48.5 27.5t32.5 64.5v233q-9 37 -32.5 64.5t-48.5 27.5
q-83 0 -83 -209q0 -208 83 -208zM300 615q-41 -59 -117 -59q-74 0 -117 59l29 23q13 -21 38 -33.5t50 -12.5q26 0 50.5 12.5t37.5 33.5z" />
    <glyph glyph-name="Gdotaccent" unicode="&#x120;" horiz-adv-x="393" 
d="M208 -12q-81 0 -120.5 92.5t-39.5 252.5q0 161 39.5 253t120.5 92q89 0 125 -116l-46 -17q-13 42 -31 63t-48 21q-103 0 -103 -296t103 -296q51 0 76 46v198h-95v49h145v-266q-45 -76 -126 -76zM208 729q-14 0 -25 10.5t-11 25.5t11 26t25 11q16 0 26.5 -11t10.5 -26
t-10.5 -25.5t-26.5 -10.5z" />
    <glyph glyph-name="gdotaccent" unicode="&#x121;" horiz-adv-x="368" 
d="M171 -196q-72 0 -119 48l24 42q39 -46 92 -46q90 0 90 121v103q-15 -37 -40 -59.5t-50 -22.5q-64 0 -95 68.5t-31 183.5t31 184t95 69q26 0 51 -21t39 -60v69h49v-510q0 -169 -136 -169zM177 34q25 0 48.5 27.5t32.5 64.5v233q-9 37 -32.5 64.5t-48.5 27.5
q-83 0 -83 -209q0 -208 83 -208zM180 562q-14 0 -25 10.5t-11 25.5t11 26t25 11q16 0 26.5 -11t10.5 -26t-10.5 -25.5t-26.5 -10.5z" />
    <glyph glyph-name="Gcommaaccent" unicode="&#x122;" horiz-adv-x="393" 
d="M251 -137q0 -37 -19 -72t-47 -55l-27 21q24 17 39 42t17 48l-4 -1h-5q-16 0 -26 10.5t-10 26.5t11 27t27 11q19 0 31.5 -15.5t12.5 -42.5zM208 -12q-81 0 -120.5 92.5t-39.5 252.5q0 161 39.5 253t120.5 92q89 0 125 -116l-46 -17q-13 42 -31 63t-48 21q-103 0 -103 -296
t103 -296q51 0 76 46v198h-95v49h145v-266q-45 -76 -126 -76z" />
    <glyph glyph-name="gcommaaccent" unicode="&#x123;" horiz-adv-x="368" 
d="M138 610q0 42 19 79t45 55l28 -22q-23 -16 -38.5 -41t-16.5 -47q2 1 4 1q15 0 27 -11.5t12 -26.5q0 -16 -11.5 -27.5t-27.5 -11.5q-17 0 -29 14t-12 38zM171 -196q-72 0 -119 48l24 42q39 -46 92 -46q90 0 90 121v103q-15 -37 -40 -59.5t-50 -22.5q-64 0 -95 68.5
t-31 183.5t31 184t95 69q26 0 51 -21t39 -60v69h49v-510q0 -169 -136 -169zM177 34q25 0 48.5 27.5t32.5 64.5v233q-9 37 -32.5 64.5t-48.5 27.5q-83 0 -83 -209q0 -208 83 -208z" />
    <glyph glyph-name="Hcircumflex" unicode="&#x124;" horiz-adv-x="415" 
d="M302 723h-32l-64 111l-60 -111h-32l67 144h51zM348 0h-54v319h-173v-319h-53v667h53v-300h173v300h54v-667z" />
    <glyph glyph-name="hcircumflex" unicode="&#x125;" 
d="M275 723h-32l-64 111l-60 -111h-32l67 144h51zM300 0h-50v383q0 68 -49 68q-28 0 -53 -25.5t-38 -61.5v-364h-49v667h49v-254q17 35 45.5 58.5t59.5 23.5q44 0 64.5 -24.5t20.5 -78.5v-392z" />
    <glyph glyph-name="Hbar" unicode="&#x126;" horiz-adv-x="462" 
d="M372 0h-54v319h-173v-319h-53v501h-68v36h68v130h53v-130h173v130h54v-130h64v-36h-64v-501zM145 367h173v134h-173v-134z" />
    <glyph glyph-name="hbar" unicode="&#x127;" horiz-adv-x="375" 
d="M242 538h-117v-125q17 35 45.5 58.5t59.5 23.5q44 0 64.5 -24.5t20.5 -78.5v-392h-50v383q0 68 -49 68q-28 0 -53 -25.5t-38 -61.5v-364h-49v538h-52v36h52v93h49v-93h117v-36z" />
    <glyph glyph-name="Itilde" unicode="&#x128;" horiz-adv-x="189" 
d="M121 0h-53v667h53v-667zM134 721q-19 0 -31.5 16.5t-17.5 35.5t-13 35.5t-19 16.5q-35 0 -35 -98h-30q0 59 16.5 96.5t51.5 37.5q19 0 31.5 -16.5t17.5 -35.5t13 -35.5t19 -16.5q34 0 34 98h31q0 -59 -16.5 -96.5t-51.5 -37.5z" />
    <glyph glyph-name="itilde" unicode="&#x129;" horiz-adv-x="170" 
d="M110 0h-49v483h49v-483zM125 554q-19 0 -31.5 16t-17.5 36t-13 36t-19 16q-35 0 -35 -98h-30q0 59 16.5 96.5t51.5 37.5q19 0 31.5 -16t17.5 -36t13 -36t19 -16q34 0 34 98h31q0 -59 -16.5 -96.5t-51.5 -37.5z" />
    <glyph glyph-name="Imacron" unicode="&#x12a;" horiz-adv-x="189" 
d="M121 0h-53v667h53v-667zM216 744h-244v36h244v-36z" />
    <glyph glyph-name="imacron" unicode="&#x12b;" horiz-adv-x="170" 
d="M110 0h-49v483h49v-483zM207 577h-244v36h244v-36z" />
    <glyph glyph-name="Ibreve" unicode="&#x12c;" horiz-adv-x="189" 
d="M121 0h-53v667h53v-667zM211 782q-41 -59 -117 -59q-74 0 -117 59l29 23q13 -21 38 -33.5t50 -12.5q26 0 50.5 12.5t37.5 33.5z" />
    <glyph glyph-name="ibreve" unicode="&#x12d;" horiz-adv-x="170" 
d="M110 0h-49v483h49v-483zM202 615q-41 -59 -117 -59q-74 0 -117 59l29 23q13 -21 38 -33.5t50 -12.5q26 0 50.5 12.5t37.5 33.5z" />
    <glyph glyph-name="Iogonek" unicode="&#x12e;" horiz-adv-x="189" 
d="M118 -119l30 -14q-15 -53 -65 -53q-30 0 -48 18.5t-18 54.5q0 63 53 113h-2v667h53v-667q-68 -47 -68 -112q0 -42 30 -42q27 0 35 35z" />
    <glyph glyph-name="iogonek" unicode="&#x12f;" horiz-adv-x="170" 
d="M107 -119l30 -14q-15 -53 -65 -53q-30 0 -48 18.5t-18 54.5q0 64 55 114v482h49v-483q-68 -47 -68 -112q0 -42 30 -42q27 0 35 35zM85 560q-15 0 -26.5 11t-11.5 27t11.5 27t26.5 11q16 0 27 -11t11 -27t-11 -27t-27 -11z" />
    <glyph glyph-name="Idotaccent" unicode="&#x130;" horiz-adv-x="189" 
d="M121 0h-53v667h53v-667zM94 729q-14 0 -25 10.5t-11 25.5t11 26t25 11q16 0 26.5 -11t10.5 -26t-10.5 -25.5t-26.5 -10.5z" />
    <glyph glyph-name="dotlessi" unicode="&#x131;" horiz-adv-x="170" 
d="M110 0h-49v483h49v-483z" />
    <glyph glyph-name="IJ" unicode="&#x132;" horiz-adv-x="498" 
d="M121 0h-53v667h53v-667zM300 -12q-62 0 -105 50l27 41q31 -42 75 -42q81 0 81 96v534h54v-535q0 -73 -35 -108.5t-97 -35.5z" />
    <glyph glyph-name="ij" unicode="&#x133;" horiz-adv-x="340" 
d="M85 560q-15 0 -26.5 11t-11.5 27t11.5 27t26.5 11q16 0 27 -11t11 -27t-11 -27t-27 -11zM110 0h-49v483h49v-483zM255 560q-15 0 -26.5 11t-11.5 27t11.5 27t26.5 11q16 0 27 -11t11 -27t-11 -27t-27 -11zM199 -196q-41 0 -58 35l27 31q10 -22 29 -22q34 0 34 69v566h49
v-566q0 -62 -20.5 -87.5t-60.5 -25.5z" />
    <glyph glyph-name="Jcircumflex" unicode="&#x134;" horiz-adv-x="310" 
d="M309 723h-32l-64 111l-60 -111h-32l67 144h51zM111 -12q-62 0 -105 50l27 41q31 -42 75 -42q81 0 81 96v534h54v-535q0 -73 -35 -108.5t-97 -35.5z" />
    <glyph glyph-name="jcircumflex" unicode="&#x135;" horiz-adv-x="170" 
d="M181 556h-32l-64 111l-60 -111h-32l67 144h51zM29 -196q-41 0 -58 35l27 31q10 -22 29 -22q34 0 34 69v566h49v-566q0 -62 -20.5 -87.5t-60.5 -25.5z" />
    <glyph glyph-name="Kcommaaccent" unicode="&#x136;" horiz-adv-x="395" 
d="M247 -137q0 -37 -19 -72t-47 -55l-27 21q24 17 39 42t17 48l-4 -1h-5q-16 0 -26 10.5t-10 26.5t11 27t27 11q19 0 31.5 -15.5t12.5 -42.5zM380 0h-63l-150 304l-46 -87v-217h-53v667h53v-363l185 363h61l-171 -318z" />
    <glyph glyph-name="kcommaaccent" unicode="&#x137;" horiz-adv-x="343" 
d="M221 -137q0 -37 -19 -72t-47 -55l-27 21q24 17 39 42t17 48l-4 -1h-5q-16 0 -26 10.5t-10 26.5t11 27t27 11q19 0 31.5 -15.5t12.5 -42.5zM323 0h-53l-99 231l-61 -103v-128h-49v667h49v-470l163 286h52l-125 -217z" />
    <glyph glyph-name="kgreenlandic" unicode="&#x138;" horiz-adv-x="343" 
d="M323 0h-53l-99 231l-61 -103v-128h-49v483h49v-286l163 286h52l-125 -217z" />
    <glyph glyph-name="Lacute" unicode="&#x139;" horiz-adv-x="320" 
d="M282 867l-98 -144h-35l78 144h55zM296 0h-228v667h53v-618h175v-49z" />
    <glyph glyph-name="lacute" unicode="&#x13a;" horiz-adv-x="170" 
d="M185 867l-98 -144h-35l78 144h55zM110 0h-49v667h49v-667z" />
    <glyph glyph-name="Lcommaaccent" unicode="&#x13b;" horiz-adv-x="320" 
d="M223 -137q0 -37 -19 -72t-47 -55l-27 21q24 17 39 42t17 48l-4 -1h-5q-16 0 -26 10.5t-10 26.5t11 27t27 11q19 0 31.5 -15.5t12.5 -42.5zM296 0h-228v667h53v-618h175v-49z" />
    <glyph glyph-name="lcommaaccent" unicode="&#x13c;" horiz-adv-x="170" 
d="M135 -137q0 -37 -19 -72t-47 -55l-27 21q24 17 39 42t17 48l-4 -1h-5q-16 0 -26 10.5t-10 26.5t11 27t27 11q19 0 31.5 -15.5t12.5 -42.5zM110 0h-49v667h49v-667z" />
    <glyph glyph-name="Lcaron" unicode="&#x13d;" horiz-adv-x="320" 
d="M262 621q0 -37 -19 -72t-47 -55l-27 21q24 17 39 42t17 48l-3 -1h-6q-16 0 -26 10.5t-10 26.5t11 27t27 11q19 0 31.5 -15.5t12.5 -42.5zM296 0h-228v667h53v-618h175v-49z" />
    <glyph glyph-name="lcaron" unicode="&#x13e;" horiz-adv-x="238" 
d="M259 621q0 -37 -19 -72t-47 -55l-27 21q24 17 39 42t17 48l-4 -1h-5q-16 0 -26 10.5t-10 26.5t11 27t27 11q19 0 31.5 -15.5t12.5 -42.5zM110 0h-49v667h49v-667z" />
    <glyph glyph-name="Ldot" unicode="&#x13f;" horiz-adv-x="334" 
d="M296 0h-228v667h53v-618h175v-49zM303 342q0 -17 -12.5 -30t-29.5 -13q-18 0 -30.5 13t-12.5 30t12.5 29.5t30.5 12.5q17 0 29.5 -12.5t12.5 -29.5z" />
    <glyph glyph-name="ldot" unicode="&#x140;" horiz-adv-x="258" 
d="M110 0h-49v667h49v-667zM256 245q0 -17 -12.5 -30t-29.5 -13q-18 0 -30.5 13t-12.5 30t12.5 29.5t30.5 12.5q17 0 29.5 -12.5t12.5 -29.5z" />
    <glyph glyph-name="Lslash" unicode="&#x141;" horiz-adv-x="334" 
d="M24 260v50l59 34v323h53v-292l61 36v-51l-61 -36v-275h175v-49h-228v294z" />
    <glyph glyph-name="lslash" unicode="&#x142;" horiz-adv-x="214" 
d="M24 273v44l59 34v316h49v-288l59 34v-44l-59 -34v-335h-49v307z" />
    <glyph glyph-name="Nacute" unicode="&#x143;" horiz-adv-x="415" 
d="M307 867l-98 -144h-35l78 144h55zM348 0h-52l-175 518v-518h-53v667h53l173 -511v511h54v-667z" />
    <glyph glyph-name="nacute" unicode="&#x144;" 
d="M280 700l-98 -144h-35l78 144h55zM300 0h-50v383q0 68 -49 68q-28 0 -53 -25.5t-38 -61.5v-364h-49v483h49v-70q17 35 45.5 58.5t59.5 23.5q85 0 85 -103v-392z" />
    <glyph glyph-name="Ncommaaccent" unicode="&#x145;" horiz-adv-x="415" 
d="M257 -137q0 -37 -19 -72t-47 -55l-27 21q24 17 39 42t17 48l-4 -1h-5q-16 0 -26 10.5t-10 26.5t11 27t27 11q19 0 31.5 -15.5t12.5 -42.5zM348 0h-52l-175 518v-518h-53v667h53l173 -511v511h54v-667z" />
    <glyph glyph-name="ncommaaccent" unicode="&#x146;" 
d="M229 -137q0 -37 -19 -72t-47 -55l-27 21q24 17 39 42t17 48l-4 -1h-5q-16 0 -26 10.5t-10 26.5t11 27t27 11q19 0 31.5 -15.5t12.5 -42.5zM300 0h-50v383q0 68 -49 68q-28 0 -53 -25.5t-38 -61.5v-364h-49v483h49v-70q17 35 45.5 58.5t59.5 23.5q85 0 85 -103v-392z" />
    <glyph glyph-name="Ncaron" unicode="&#x147;" horiz-adv-x="415" 
d="M235 723h-51l-70 144h32l63 -111l61 111h32zM348 0h-52l-175 518v-518h-53v667h53l173 -511v511h54v-667z" />
    <glyph glyph-name="ncaron" unicode="&#x148;" 
d="M207 556h-51l-70 144h32l63 -111l61 111h32zM300 0h-50v383q0 68 -49 68q-28 0 -53 -25.5t-38 -61.5v-364h-49v483h49v-70q17 35 45.5 58.5t59.5 23.5q85 0 85 -103v-392z" />
    <glyph glyph-name="napostrophe" unicode="&#x149;" 
d="M134 674q0 -37 -19 -72t-47 -55l-27 21q24 17 39 42t17 48h-3q-4 -1 -6 -1q-16 0 -26 10.5t-10 26.5t11 27t27 11q19 0 31.5 -15.5t12.5 -42.5zM300 0h-50v383q0 68 -49 68q-28 0 -53 -25.5t-38 -61.5v-364h-49v483h49v-70q17 35 45.5 58.5t59.5 23.5q85 0 85 -103v-392z
" />
    <glyph glyph-name="Eng" unicode="&#x14a;" horiz-adv-x="415" 
d="M217 -196q-63 0 -105 50l26 41q31 -43 75 -43q81 0 81 96v58l-173 524v-530h-53v667h53l173 -523v523h54v-720q0 -73 -34.5 -108t-96.5 -35z" />
    <glyph glyph-name="eng" unicode="&#x14b;" 
d="M300 392v-475q0 -62 -20.5 -87.5t-60.5 -25.5q-41 0 -58 35l27 31q10 -22 29 -22q33 0 33 69v466q0 68 -49 68q-28 0 -53 -25.5t-38 -61.5v-364h-49v483h49v-70q17 35 45.5 58.5t59.5 23.5q85 0 85 -103z" />
    <glyph glyph-name="Omacron" unicode="&#x14c;" horiz-adv-x="415" 
d="M329 744h-244v36h244v-36zM207 -12q-57 0 -93.5 48.5t-51 122.5t-14.5 174q0 99 14.5 173.5t51.5 123t93 48.5q57 0 94 -48.5t51.5 -123t14.5 -173.5q0 -100 -14.5 -174t-51.5 -122.5t-94 -48.5zM207 37q54 0 78.5 82.5t24.5 213.5q0 132 -24.5 214t-78.5 82
q-53 0 -77.5 -82t-24.5 -214q0 -130 24.5 -213t77.5 -83z" />
    <glyph glyph-name="omacron" unicode="&#x14d;" horiz-adv-x="367" 
d="M305 577h-244v36h244v-36zM184 -12q-50 0 -83 37t-46 92t-13 125t13 124.5t46 91.5t83 37t82.5 -37t45.5 -91.5t13 -124.5t-13 -125t-45.5 -92t-82.5 -37zM184 32q88 0 88 210q0 209 -88 209q-89 0 -89 -209q0 -210 89 -210z" />
    <glyph glyph-name="Obreve" unicode="&#x14e;" horiz-adv-x="415" 
d="M207 -12q-57 0 -93.5 48.5t-51 122.5t-14.5 174q0 99 14.5 173.5t51.5 123t93 48.5q57 0 94 -48.5t51.5 -123t14.5 -173.5q0 -100 -14.5 -174t-51.5 -122.5t-94 -48.5zM207 37q54 0 78.5 82.5t24.5 213.5q0 132 -24.5 214t-78.5 82q-53 0 -77.5 -82t-24.5 -214
q0 -130 24.5 -213t77.5 -83zM324 782q-41 -59 -117 -59q-74 0 -117 59l29 23q13 -21 38 -33.5t50 -12.5q26 0 50.5 12.5t37.5 33.5z" />
    <glyph glyph-name="obreve" unicode="&#x14f;" horiz-adv-x="367" 
d="M184 -12q-50 0 -83 37t-46 92t-13 125t13 124.5t46 91.5t83 37t82.5 -37t45.5 -91.5t13 -124.5t-13 -125t-45.5 -92t-82.5 -37zM184 32q88 0 88 210q0 209 -88 209q-89 0 -89 -209q0 -210 89 -210zM300 615q-41 -59 -117 -59q-74 0 -117 59l29 23q13 -21 38 -33.5
t50 -12.5q26 0 50.5 12.5t37.5 33.5z" />
    <glyph glyph-name="Ohungarumlaut" unicode="&#x150;" horiz-adv-x="415" 
d="M234 867l-76 -144h-29l57 144h48zM345 867l-76 -144h-29l57 144h48zM207 -12q-57 0 -93.5 48.5t-51 122.5t-14.5 174q0 99 14.5 173.5t51.5 123t93 48.5q57 0 94 -48.5t51.5 -123t14.5 -173.5q0 -100 -14.5 -174t-51.5 -122.5t-94 -48.5zM207 37q54 0 78.5 82.5
t24.5 213.5q0 132 -24.5 214t-78.5 82q-53 0 -77.5 -82t-24.5 -214q0 -130 24.5 -213t77.5 -83z" />
    <glyph glyph-name="ohungarumlaut" unicode="&#x151;" horiz-adv-x="367" 
d="M210 700l-76 -144h-29l57 144h48zM321 700l-76 -144h-29l57 144h48zM184 -12q-50 0 -83 37t-46 92t-13 125t13 124.5t46 91.5t83 37t82.5 -37t45.5 -91.5t13 -124.5t-13 -125t-45.5 -92t-82.5 -37zM184 32q88 0 88 210q0 209 -88 209q-89 0 -89 -209q0 -210 89 -210z" />
    <glyph glyph-name="OE" unicode="&#x152;" horiz-adv-x="578" 
d="M530 0h-229v73q-34 -85 -99 -85q-81 0 -117.5 95t-36.5 250t36.5 249.5t117.5 94.5q66 0 99 -83v73h229v-49h-175v-252h168v-48h-168v-269h175v-49zM301 172v322q-26 134 -93 134q-103 0 -103 -295q0 -296 103 -296q33 0 57 36t36 99z" />
    <glyph glyph-name="oe" unicode="&#x153;" horiz-adv-x="589" 
d="M553 226h-230q0 -90 28 -143t81 -53q48 0 79 63l34 -25q-45 -80 -116 -80q-95 0 -129 120q-31 -120 -116 -120q-50 0 -83 37t-46 92t-13 125t13 124.5t46 91.5t83 37q83 0 115 -115q30 115 114 115q73 0 106.5 -70.5t33.5 -182.5v-16zM323 265h179q0 35 -4 65.5
t-13.5 59.5t-28 46t-43.5 17q-26 0 -44.5 -18.5t-28 -48t-13.5 -60t-4 -61.5zM272 242q0 209 -88 209q-89 0 -89 -209q0 -211 89 -211q88 0 88 211z" />
    <glyph glyph-name="Racute" unicode="&#x154;" horiz-adv-x="388" 
d="M300 867l-98 -144h-35l78 144h55zM339 0h-59l-93 279h-66v-279h-53v667h119q65 0 105.5 -51.5t40.5 -141.5q0 -82 -28.5 -126.5t-66.5 -57.5zM182 327q47 0 71 39.5t24 106.5q0 66 -24 105.5t-71 39.5h-61v-291h61z" />
    <glyph glyph-name="racute" unicode="&#x155;" horiz-adv-x="239" 
d="M241 700l-98 -144h-35l78 144h55zM110 0h-49v483h49v-81q40 91 113 91v-54q-5 2 -16 2q-31 0 -56.5 -25.5t-40.5 -62.5v-353z" />
    <glyph glyph-name="Rcommaaccent" unicode="&#x156;" horiz-adv-x="388" 
d="M241 -137q0 -37 -19 -72t-47 -55l-27 21q24 17 39 42t17 48l-4 -1h-5q-16 0 -26 10.5t-10 26.5t11 27t27 11q19 0 31.5 -15.5t12.5 -42.5zM339 0h-59l-93 279h-66v-279h-53v667h119q65 0 105.5 -51.5t40.5 -141.5q0 -82 -28.5 -126.5t-66.5 -57.5zM182 327q47 0 71 39.5
t24 106.5q0 66 -24 105.5t-71 39.5h-61v-291h61z" />
    <glyph glyph-name="rcommaaccent" unicode="&#x157;" horiz-adv-x="239" 
d="M169 -137q0 -37 -19 -72t-47 -55l-27 21q24 17 39 42t17 48l-4 -1h-5q-16 0 -26 10.5t-10 26.5t11 27t27 11q19 0 31.5 -15.5t12.5 -42.5zM110 0h-49v483h49v-81q40 91 113 91v-54q-5 2 -16 2q-31 0 -56.5 -25.5t-40.5 -62.5v-353z" />
    <glyph glyph-name="Rcaron" unicode="&#x158;" horiz-adv-x="388" 
d="M219 723h-51l-70 144h32l63 -111l61 111h32zM339 0h-59l-93 279h-66v-279h-53v667h119q65 0 105.5 -51.5t40.5 -141.5q0 -82 -28.5 -126.5t-66.5 -57.5zM182 327q47 0 71 39.5t24 106.5q0 66 -24 105.5t-71 39.5h-61v-291h61z" />
    <glyph glyph-name="rcaron" unicode="&#x159;" horiz-adv-x="239" 
d="M166 556h-51l-70 144h32l63 -111l61 111h32zM110 0h-49v483h49v-81q40 91 113 91v-54q-5 2 -16 2q-31 0 -56.5 -25.5t-40.5 -62.5v-353z" />
    <glyph glyph-name="Sacute" unicode="&#x15a;" horiz-adv-x="337" 
d="M275 867l-98 -144h-35l78 144h55zM154 -12q-80 0 -130 59l31 43q16 -24 43 -38.5t54 -14.5q40 0 67.5 32t27.5 84q0 46 -21 84t-51.5 65.5l-60.5 56.5t-51 70.5t-21 93.5q0 69 40 112t99 43q67 0 108 -44l-26 -41q-33 36 -81 36q-36 0 -61 -29t-25 -76q0 -39 21 -73
t51 -62l60.5 -59t51.5 -76t21 -99q0 -72 -40.5 -119.5t-106.5 -47.5z" />
    <glyph glyph-name="sacute" unicode="&#x15b;" horiz-adv-x="294" 
d="M250 700l-98 -144h-35l78 144h55zM145 -12q-77 0 -121 60l28 34q39 -53 90 -53q31 0 53 22.5t22 58.5q0 33 -18.5 59.5t-44.5 46l-52 40t-44.5 53t-18.5 74.5q0 49 33 80.5t83 31.5q64 0 105 -52l-26 -33q-31 44 -78 44q-31 0 -50.5 -20.5t-19.5 -50.5q0 -31 18.5 -56
t45 -44.5l52.5 -40.5t44.5 -54.5t18.5 -76.5q0 -55 -35 -89t-85 -34z" />
    <glyph glyph-name="Scircumflex" unicode="&#x15c;" horiz-adv-x="337" 
d="M275 723h-32l-64 111l-60 -111h-32l67 144h51zM154 -12q-80 0 -130 59l31 43q16 -24 43 -38.5t54 -14.5q40 0 67.5 32t27.5 84q0 46 -21 84t-51.5 65.5l-60.5 56.5t-51 70.5t-21 93.5q0 69 40 112t99 43q67 0 108 -44l-26 -41q-33 36 -81 36q-36 0 -61 -29t-25 -76
q0 -39 21 -73t51 -62l60.5 -59t51.5 -76t21 -99q0 -72 -40.5 -119.5t-106.5 -47.5z" />
    <glyph glyph-name="scircumflex" unicode="&#x15d;" horiz-adv-x="294" 
d="M246 556h-32l-64 111l-60 -111h-32l67 144h51zM145 -12q-77 0 -121 60l28 34q39 -53 90 -53q31 0 53 22.5t22 58.5q0 33 -18.5 59.5t-44.5 46l-52 40t-44.5 53t-18.5 74.5q0 49 33 80.5t83 31.5q64 0 105 -52l-26 -33q-31 44 -78 44q-31 0 -50.5 -20.5t-19.5 -50.5
q0 -31 18.5 -56t45 -44.5l52.5 -40.5t44.5 -54.5t18.5 -76.5q0 -55 -35 -89t-85 -34z" />
    <glyph glyph-name="Scedilla" unicode="&#x15e;" horiz-adv-x="337" 
d="M149 -189q-40 0 -74 29l15 31q28 -27 58 -27q20 0 35 12.5t15 32.5q0 37 -31 37q-18 0 -30 -14l-26 15l23 62q-67 8 -110 58l31 43q16 -24 43 -38.5t54 -14.5q40 0 67.5 32t27.5 84q0 46 -21 84t-51.5 65.5l-60.5 56.5t-51 70.5t-21 93.5q0 69 40 112t99 43q67 0 108 -44
l-26 -41q-33 36 -81 36q-36 0 -61 -29t-25 -76q0 -39 21 -73t51 -62l60.5 -59t51.5 -76t21 -99q0 -68 -36 -114t-96 -52l-17 -47q11 10 29 10q22 0 37 -17.5t15 -45.5q0 -34 -24 -56t-60 -22z" />
    <glyph glyph-name="scedilla" unicode="&#x15f;" horiz-adv-x="294" 
d="M138 -189q-40 0 -74 29l15 31q28 -27 58 -27q20 0 35 12.5t15 32.5q0 37 -31 37q-18 0 -30 -14l-26 15l23 62q-62 8 -99 59l28 34q39 -53 90 -53q31 0 53 22.5t22 58.5q0 33 -18.5 59.5t-44.5 46l-52 40t-44.5 53t-18.5 74.5q0 49 33 80.5t83 31.5q64 0 105 -52l-26 -33
q-31 44 -78 44q-31 0 -50.5 -20.5t-19.5 -50.5q0 -31 18.5 -56t45 -44.5l52.5 -40.5t44.5 -54.5t18.5 -76.5q0 -51 -31 -84t-76 -38l-17 -47q11 10 29 10q22 0 37 -17.5t15 -45.5q0 -34 -24 -56t-60 -22z" />
    <glyph glyph-name="Scaron" unicode="&#x160;" horiz-adv-x="337" 
d="M208 723h-51l-70 144h32l63 -111l61 111h32zM154 -12q-80 0 -130 59l31 43q16 -24 43 -38.5t54 -14.5q40 0 67.5 32t27.5 84q0 46 -21 84t-51.5 65.5l-60.5 56.5t-51 70.5t-21 93.5q0 69 40 112t99 43q67 0 108 -44l-26 -41q-33 36 -81 36q-36 0 -61 -29t-25 -76
q0 -39 21 -73t51 -62l60.5 -59t51.5 -76t21 -99q0 -72 -40.5 -119.5t-106.5 -47.5z" />
    <glyph glyph-name="scaron" unicode="&#x161;" horiz-adv-x="294" 
d="M179 556h-51l-70 144h32l63 -111l61 111h32zM145 -12q-77 0 -121 60l28 34q39 -53 90 -53q31 0 53 22.5t22 58.5q0 33 -18.5 59.5t-44.5 46l-52 40t-44.5 53t-18.5 74.5q0 49 33 80.5t83 31.5q64 0 105 -52l-26 -33q-31 44 -78 44q-31 0 -50.5 -20.5t-19.5 -50.5
q0 -31 18.5 -56t45 -44.5l52.5 -40.5t44.5 -54.5t18.5 -76.5q0 -55 -35 -89t-85 -34z" />
    <glyph glyph-name="Tcommaaccent" unicode="&#x162;" horiz-adv-x="305" 
d="M201 -137q0 -37 -19 -72t-47 -55l-27 21q24 17 39 42t17 48l-4 -1h-5q-16 0 -26 10.5t-10 26.5t11 27t27 11q19 0 31.5 -15.5t12.5 -42.5zM179 0h-54v618h-107v49h269v-49h-108v-618z" />
    <glyph glyph-name="tcommaaccent" unicode="&#x163;" horiz-adv-x="223" 
d="M161 -137q0 -37 -19 -72t-47 -55l-27 21q24 17 39 42t17 48l-4 -1h-5q-16 0 -26 10.5t-10 26.5t11 27t27 11q19 0 31.5 -15.5t12.5 -42.5zM149 -12q-75 0 -75 96v356h-50v43h50v132h49v-132h68v-43h-68v-351q0 -30 7 -43.5t26 -13.5q20 0 34 19l21 -34q-24 -29 -62 -29z
" />
    <glyph glyph-name="Tcaron" unicode="&#x164;" horiz-adv-x="305" 
d="M179 723h-51l-70 144h32l63 -111l61 111h32zM179 0h-54v618h-107v49h269v-49h-108v-618z" />
    <glyph glyph-name="tcaron" unicode="&#x165;" horiz-adv-x="223" 
d="M265 674q0 -37 -19 -72t-47 -55l-27 21q24 17 39 42t17 48h-4q-3 -1 -5 -1q-16 0 -26 10.5t-10 26.5t11 27t27 11q19 0 31.5 -15.5t12.5 -42.5zM149 -12q-75 0 -75 96v356h-50v43h50v132h49v-132h68v-43h-68v-351q0 -30 7 -43.5t26 -13.5q20 0 34 19l21 -34
q-24 -29 -62 -29z" />
    <glyph glyph-name="Tbar" unicode="&#x166;" horiz-adv-x="305" 
d="M179 0h-54v309h-77v36h77v273h-107v49h269v-49h-108v-273h77v-36h-77v-309z" />
    <glyph glyph-name="tbar" unicode="&#x167;" horiz-adv-x="223" 
d="M149 -12q-75 0 -75 96v151h-50v36h50v169h-50v43h50v132h49v-132h68v-43h-68v-169h36v-36h-36v-146q0 -30 7 -43.5t26 -13.5q20 0 34 19l21 -34q-24 -29 -62 -29z" />
    <glyph glyph-name="Utilde" unicode="&#x168;" horiz-adv-x="416" 
d="M208 -12q-65 0 -102.5 43.5t-37.5 131.5v504h53v-505q0 -125 87 -125t87 125v505h54v-504q0 -88 -37.5 -131.5t-103.5 -43.5zM248 721q-19 0 -31.5 16.5t-17.5 35.5t-13 35.5t-19 16.5q-35 0 -35 -98h-30q0 59 16.5 96.5t51.5 37.5q19 0 31.5 -16.5t17.5 -35.5t13 -35.5
t19 -16.5q34 0 34 98h31q0 -59 -16.5 -96.5t-51.5 -37.5z" />
    <glyph glyph-name="utilde" unicode="&#x169;" 
d="M300 0h-50v68q-17 -35 -44.5 -57.5t-60.5 -22.5q-44 0 -64 24.5t-20 78.5v392h49v-383q0 -68 49 -68q29 0 53.5 25t37.5 60v366h50v-483zM219 554q-19 0 -31.5 16t-17.5 36t-13 36t-19 16q-35 0 -35 -98h-30q0 59 16.5 96.5t51.5 37.5q19 0 31.5 -16t17.5 -36t13 -36
t19 -16q34 0 34 98h31q0 -59 -16.5 -96.5t-51.5 -37.5z" />
    <glyph glyph-name="Umacron" unicode="&#x16a;" horiz-adv-x="416" 
d="M208 -12q-65 0 -102.5 43.5t-37.5 131.5v504h53v-505q0 -125 87 -125t87 125v505h54v-504q0 -88 -37.5 -131.5t-103.5 -43.5zM330 744h-244v36h244v-36z" />
    <glyph glyph-name="umacron" unicode="&#x16b;" 
d="M300 0h-50v68q-17 -35 -44.5 -57.5t-60.5 -22.5q-44 0 -64 24.5t-20 78.5v392h49v-383q0 -68 49 -68q29 0 53.5 25t37.5 60v366h50v-483zM302 577h-244v36h244v-36z" />
    <glyph glyph-name="Ubreve" unicode="&#x16c;" horiz-adv-x="416" 
d="M208 -12q-65 0 -102.5 43.5t-37.5 131.5v504h53v-505q0 -125 87 -125t87 125v505h54v-504q0 -88 -37.5 -131.5t-103.5 -43.5zM326 782q-41 -59 -117 -59q-74 0 -117 59l29 23q13 -21 38 -33.5t50 -12.5q26 0 50.5 12.5t37.5 33.5z" />
    <glyph glyph-name="ubreve" unicode="&#x16d;" 
d="M300 0h-50v68q-17 -35 -44.5 -57.5t-60.5 -22.5q-44 0 -64 24.5t-20 78.5v392h49v-383q0 -68 49 -68q29 0 53.5 25t37.5 60v366h50v-483zM297 615q-41 -59 -117 -59q-74 0 -117 59l29 23q13 -21 38 -33.5t50 -12.5q26 0 50.5 12.5t37.5 33.5z" />
    <glyph glyph-name="Uring" unicode="&#x16e;" horiz-adv-x="416" 
d="M208 712q-33 0 -56.5 23.5t-23.5 57.5q0 33 23.5 56.5t56.5 23.5q34 0 57 -23.5t23 -56.5q0 -34 -23 -57.5t-57 -23.5zM208 742q22 0 36.5 15t14.5 36t-14.5 35.5t-36.5 14.5q-20 0 -35 -14.5t-15 -35.5t15 -36t35 -15zM208 -12q-65 0 -102.5 43.5t-37.5 131.5v504h53
v-505q0 -125 87 -125t87 125v505h54v-504q0 -88 -37.5 -131.5t-103.5 -43.5z" />
    <glyph glyph-name="uring" unicode="&#x16f;" 
d="M180 549q-33 0 -56.5 23.5t-23.5 57.5q0 33 23.5 56.5t56.5 23.5q34 0 57 -23.5t23 -56.5q0 -34 -23 -57.5t-57 -23.5zM180 579q22 0 36.5 15t14.5 36t-14.5 35.5t-36.5 14.5q-20 0 -35 -14.5t-15 -35.5t15 -36t35 -15zM300 0h-50v68q-17 -35 -44.5 -57.5t-60.5 -22.5
q-44 0 -64 24.5t-20 78.5v392h49v-383q0 -68 49 -68q29 0 53.5 25t37.5 60v366h50v-483z" />
    <glyph glyph-name="Uhungarumlaut" unicode="&#x170;" horiz-adv-x="416" 
d="M208 -12q-65 0 -102.5 43.5t-37.5 131.5v504h53v-505q0 -125 87 -125t87 125v505h54v-504q0 -88 -37.5 -131.5t-103.5 -43.5zM234 867l-76 -144h-29l57 144h48zM345 867l-76 -144h-29l57 144h48z" />
    <glyph glyph-name="uhungarumlaut" unicode="&#x171;" 
d="M300 0h-50v68q-17 -35 -44.5 -57.5t-60.5 -22.5q-44 0 -64 24.5t-20 78.5v392h49v-383q0 -68 49 -68q29 0 53.5 25t37.5 60v366h50v-483zM207 700l-76 -144h-29l57 144h48zM318 700l-76 -144h-29l57 144h48z" />
    <glyph glyph-name="Uogonek" unicode="&#x172;" horiz-adv-x="416" 
d="M267 -119l30 -14q-15 -53 -65 -53q-30 0 -48 18.5t-18 54.5q0 56 42 101q-65 0 -102.5 43.5t-37.5 131.5v504h53v-505q0 -125 87 -125t87 125v505h54v-504q0 -128 -79 -163q-68 -47 -68 -112q0 -42 30 -42q27 0 35 35z" />
    <glyph glyph-name="uogonek" unicode="&#x173;" 
d="M300 0q-68 -47 -68 -112q0 -42 30 -42q27 0 35 35l30 -14q-15 -53 -65 -53q-30 0 -48 18.5t-18 54.5q0 62 54 113v68q-17 -35 -44.5 -57.5t-60.5 -22.5q-44 0 -64 24.5t-20 78.5v392h49v-383q0 -68 49 -68q29 0 53.5 25t37.5 60v366h50v-483z" />
    <glyph glyph-name="Wcircumflex" unicode="&#x174;" horiz-adv-x="519" 
d="M354 723h-32l-64 111l-60 -111h-32l67 144h51zM395 0h-59l-77 551l-76 -551h-59l-103 667h57l77 -568l80 568h49l80 -568l78 568h56z" />
    <glyph glyph-name="wcircumflex" unicode="&#x175;" horiz-adv-x="513" 
d="M350 556h-32l-64 111l-60 -111h-32l67 144h51zM393 0h-50l-87 415l-86 -415h-51l-102 483h52l77 -411l83 411h53l84 -411l78 411h52z" />
    <glyph glyph-name="Ycircumflex" unicode="&#x176;" horiz-adv-x="347" 
d="M268 723h-32l-64 111l-60 -111h-32l67 144h51zM200 0h-53v286l-146 381h58l115 -323l116 323h56l-146 -381v-286z" />
    <glyph glyph-name="ycircumflex" unicode="&#x177;" horiz-adv-x="302" 
d="M30 -189l9 43q10 -6 24 -6q18 0 27 11t16 38l21 86l-114 500h53l85 -419l86 419h53l-141 -597q-11 -46 -30.5 -64t-52.5 -18q-22 0 -36 7zM247 556h-32l-64 111l-60 -111h-32l67 144h51z" />
    <glyph glyph-name="Ydieresis" unicode="&#x178;" horiz-adv-x="347" 
d="M279 767q0 -14 -11 -24.5t-25 -10.5q-15 0 -25.5 10.5t-10.5 24.5q0 15 10.5 25.5t25.5 10.5q14 0 25 -10.5t11 -25.5zM147 767q0 -14 -10.5 -24.5t-25.5 -10.5q-14 0 -25 10.5t-11 24.5q0 15 11 25.5t25 10.5q15 0 25.5 -10.5t10.5 -25.5zM200 0h-53v286l-146 381h58
l115 -323l116 323h56l-146 -381v-286z" />
    <glyph glyph-name="Zacute" unicode="&#x179;" horiz-adv-x="324" 
d="M262 867l-98 -144h-35l78 144h55zM290 0h-255v48l190 570h-190v49h248v-46l-192 -572h199v-49z" />
    <glyph glyph-name="zacute" unicode="&#x17a;" horiz-adv-x="289" 
d="M244 700l-98 -144h-35l78 144h55zM251 0h-213v41l154 399h-154v43h209v-40l-153 -399h157v-44z" />
    <glyph glyph-name="Zdotaccent" unicode="&#x17b;" horiz-adv-x="324" 
d="M290 0h-255v48l190 570h-190v49h248v-46l-192 -572h199v-49zM161 729q-14 0 -25 10.5t-11 25.5t11 26t25 11q16 0 26.5 -11t10.5 -26t-10.5 -25.5t-26.5 -10.5z" />
    <glyph glyph-name="zdotaccent" unicode="&#x17c;" horiz-adv-x="289" 
d="M251 0h-213v41l154 399h-154v43h209v-40l-153 -399h157v-44zM143 562q-14 0 -25 10.5t-11 25.5t11 26t25 11q16 0 26.5 -11t10.5 -26t-10.5 -25.5t-26.5 -10.5z" />
    <glyph glyph-name="Zcaron" unicode="&#x17d;" horiz-adv-x="324" 
d="M190 723h-51l-70 144h32l63 -111l61 111h32zM290 0h-255v48l190 570h-190v49h248v-46l-192 -572h199v-49z" />
    <glyph glyph-name="zcaron" unicode="&#x17e;" horiz-adv-x="289" 
d="M170 556h-51l-70 144h32l63 -111l61 111h32zM251 0h-213v41l154 399h-154v43h209v-40l-153 -399h157v-44z" />
    <glyph glyph-name="longs" unicode="&#x17f;" horiz-adv-x="213" 
d="M123 0h-49v440h-49v43h49v94q0 45 24.5 72.5t66.5 27.5q41 0 62 -27l-22 -38q-14 21 -35 21q-47 0 -47 -56v-577z" />
    <glyph glyph-name="florin" unicode="&#x192;" horiz-adv-x="349" 
d="M80 -161h-54l93 422h-48v47h59l60 272q9 43 40 70t72 27q39 0 57 -25l-26 -39q-10 15 -31 15q-48 0 -59 -57l-58 -263h95v-47h-106z" />
    <glyph glyph-name="Ohorn" unicode="&#x1a0;" horiz-adv-x="415" 
d="M207 -12q-57 0 -93.5 48.5t-51 122.5t-14.5 174q0 99 14.5 173.5t51.5 123t93 48.5q84 0 125 -104q35 37 37 74q-1 -1 -8 -1q-15 0 -25 11t-10 26t10.5 26t26.5 11q18 0 30 -15.5t12 -41.5q0 -36 -18 -69.5t-44 -53.5q24 -87 24 -208q0 -100 -14.5 -174t-51.5 -122.5
t-94 -48.5zM207 37q54 0 78.5 82.5t24.5 213.5q0 132 -24.5 214t-78.5 82q-53 0 -77.5 -82t-24.5 -214q0 -130 24.5 -213t77.5 -83z" />
    <glyph glyph-name="ohorn" unicode="&#x1a1;" horiz-adv-x="367" 
d="M350 530q0 -69 -55 -117q30 -66 30 -171q0 -70 -13 -125t-45.5 -92t-82.5 -37t-83 37t-46 92t-13 125t13 124.5t46 91.5t83 37q59 0 95 -52q33 35 35 71q-1 -1 -8 -1q-15 0 -25 11t-10 26t10.5 26t26.5 11q18 0 30 -15.5t12 -41.5zM184 32q88 0 88 210q0 209 -88 209
q-89 0 -89 -209q0 -210 89 -210z" />
    <glyph glyph-name="Uhorn" unicode="&#x1af;" horiz-adv-x="416" 
d="M441 729q0 -40 -24 -78.5t-68 -64.5v-423q0 -88 -37.5 -131.5t-103.5 -43.5q-65 0 -102.5 43.5t-37.5 131.5v504h53v-505q0 -125 87 -125t87 125v505h54v-44q24 17 39.5 43.5t16.5 48.5q-2 -2 -8 -2q-16 0 -25.5 10.5t-9.5 26.5q0 15 10 25.5t26 10.5q18 0 30.5 -15
t12.5 -42z" />
    <glyph glyph-name="uhorn" unicode="&#x1b0;" 
d="M300 0h-50v68q-17 -35 -44.5 -57.5t-60.5 -22.5q-44 0 -64 24.5t-20 78.5v392h49v-383q0 -68 49 -68q29 0 53.5 25t37.5 60v366h50v-45q40 39 42 79q-6 -1 -8 -1q-16 0 -26 10.5t-10 25.5t10.5 26t26.5 11q19 0 31 -15t12 -42q0 -80 -78 -134v-398z" />
    <glyph glyph-name="AEacute" unicode="&#x1fc;" horiz-adv-x="532" 
d="M382 867l-98 -144h-35l78 144h55zM484 0h-229v166h-131l-51 -166h-55l214 667h252v-49h-175v-252h168v-48h-168v-269h175v-49zM255 215v383l-117 -383h117z" />
    <glyph glyph-name="aeacute" unicode="&#x1fd;" horiz-adv-x="563" 
d="M374 700l-98 -144h-35l78 144h55zM527 226h-223q0 -90 27 -143t78 -53q21 0 41.5 17t34.5 46l34 -25q-45 -80 -116 -80q-48 0 -75 26.5t-47 73.5q-33 -100 -116 -100q-60 0 -94 43.5t-34 115.5t33.5 117t91.5 45q61 0 94 -60v91q0 56 -18.5 84t-60.5 28q-54 0 -98 -52
l-24 36q56 59 122 59q96 0 108 -92q29 92 103 92q72 0 105.5 -70.5t33.5 -182.5v-16zM304 265h172q0 35 -4 65.5t-13 59.5t-26.5 46t-42.5 17t-43 -18t-26.5 -48t-12.5 -60t-4 -62zM256 176v25q-27 69 -86 69q-38 0 -60 -32t-22 -88q0 -57 22 -89t60 -32q39 0 62.5 39.5
t23.5 107.5z" />
    <glyph glyph-name="Oslashacute" unicode="&#x1fe;" horiz-adv-x="415" 
d="M307 867l-98 -144h-35l78 144h55zM207 -12q-56 0 -94 47l-13 -35h-42l30 78q-40 88 -40 255q0 99 14.5 173.5t51.5 123t93 48.5t94 -48l14 37h43l-31 -81q40 -90 40 -253q0 -100 -14.5 -174t-51.5 -122.5t-94 -48.5zM207 37q54 0 78.5 82.5t24.5 213.5q0 104 -14 173
l-159 -408q26 -61 70 -61zM105 333q0 -104 14 -174l158 410q-26 60 -70 60q-53 0 -77.5 -82t-24.5 -214z" />
    <glyph glyph-name="oslashacute" unicode="&#x1ff;" horiz-adv-x="367" 
d="M283 700l-98 -144h-35l78 144h55zM88 0h-36l26 56q-36 66 -36 186q0 70 13 124.5t46 91.5t83 37q49 0 83 -37l12 25h36l-26 -56q36 -69 36 -185q0 -70 -13 -125t-45.5 -92t-82.5 -37t-84 37zM184 32q88 0 88 210q0 75 -12 124l-137 -292q21 -42 61 -42zM95 242
q0 -76 12 -124l137 291q-24 42 -60 42q-89 0 -89 -209z" />
    <glyph glyph-name="Scommaaccent" unicode="&#x218;" horiz-adv-x="337" 
d="M210 -137q0 -37 -19 -72t-47 -55l-27 21q24 17 39 42t17 48l-3 -1h-6q-16 0 -26 10.5t-10 26.5t11 27t27 11q19 0 31.5 -15.5t12.5 -42.5zM154 -12q-80 0 -130 59l31 43q16 -24 43 -38.5t54 -14.5q40 0 67.5 32t27.5 84q0 46 -21 84t-51.5 65.5l-60.5 56.5t-51 70.5
t-21 93.5q0 69 40 112t99 43q67 0 108 -44l-26 -41q-33 36 -81 36q-36 0 -61 -29t-25 -76q0 -39 21 -73t51 -62l60.5 -59t51.5 -76t21 -99q0 -72 -40.5 -119.5t-106.5 -47.5z" />
    <glyph glyph-name="scommaaccent" unicode="&#x219;" horiz-adv-x="294" 
d="M195 -137q0 -37 -19 -72t-47 -55l-27 21q24 17 39 42t17 48l-4 -1h-5q-16 0 -26 10.5t-10 26.5t11 27t27 11q19 0 31.5 -15.5t12.5 -42.5zM145 -12q-77 0 -121 60l28 34q39 -53 90 -53q31 0 53 22.5t22 58.5q0 33 -18.5 59.5t-44.5 46l-52 40t-44.5 53t-18.5 74.5
q0 49 33 80.5t83 31.5q64 0 105 -52l-26 -33q-31 44 -78 44q-31 0 -50.5 -20.5t-19.5 -50.5q0 -31 18.5 -56t45 -44.5l52.5 -40.5t44.5 -54.5t18.5 -76.5q0 -55 -35 -89t-85 -34z" />
    <glyph glyph-name="uni021A" unicode="&#x21a;" horiz-adv-x="305" 
d="M201 -137q0 -37 -19 -72t-47 -55l-27 21q24 17 39 42t17 48l-4 -1h-5q-16 0 -26 10.5t-10 26.5t11 27t27 11q19 0 31.5 -15.5t12.5 -42.5zM179 0h-54v618h-107v49h269v-49h-108v-618z" />
    <glyph glyph-name="uni021B" unicode="&#x21b;" horiz-adv-x="223" 
d="M161 -137q0 -37 -19 -72t-47 -55l-27 21q24 17 39 42t17 48l-4 -1h-5q-16 0 -26 10.5t-10 26.5t11 27t27 11q19 0 31.5 -15.5t12.5 -42.5zM149 -12q-75 0 -75 96v356h-50v43h50v132h49v-132h68v-43h-68v-351q0 -30 7 -43.5t26 -13.5q20 0 34 19l21 -34q-24 -29 -62 -29z
" />
    <glyph glyph-name="uni0237" unicode="&#x237;" horiz-adv-x="170" 
d="M29 -196q-41 0 -58 35l27 31q10 -22 29 -22q34 0 34 69v566h49v-566q0 -62 -20.5 -87.5t-60.5 -25.5z" />
    <glyph glyph-name="hsuperior" unicode="&#x2b0;" horiz-adv-x="277" 
d="M229 326h-41v240q0 48 -37 48q-18 0 -35 -16t-27 -38v-234h-40v434h40v-164q12 21 33 36.5t43 15.5q64 0 64 -73v-249z" />
    <glyph glyph-name="uni02BC" unicode="&#x2bc;" horiz-adv-x="218" 
d="M155 614q0 -40 -20 -76t-50 -57l-28 23q24 17 40.5 43t17.5 50q-2 -2 -10 -2q-16 0 -27.5 12t-11.5 29t12 29t30 12q20 0 33.5 -17t13.5 -46z" />
    <glyph glyph-name="circumflex" unicode="&#x2c6;" horiz-adv-x="188" 
d="M188 556h-32l-64 111l-60 -111h-32l67 144h51z" />
    <glyph glyph-name="caron" unicode="&#x2c7;" horiz-adv-x="188" 
d="M121 556h-51l-70 144h32l63 -111l61 111h32z" />
    <glyph glyph-name="uni02C9" unicode="&#x2c9;" horiz-adv-x="244" 
d="M244 591h-244v36h244v-36z" />
    <glyph glyph-name="uni02CB" unicode="&#x2cb;" horiz-adv-x="133" 
d="M133 556h-36l-97 144h54z" />
    <glyph glyph-name="breve" unicode="&#x2d8;" horiz-adv-x="234" 
d="M234 615q-41 -59 -117 -59q-74 0 -117 59l29 23q13 -21 38 -33.5t50 -12.5q26 0 50.5 12.5t37.5 33.5z" />
    <glyph glyph-name="dotaccent" unicode="&#x2d9;" horiz-adv-x="81" 
d="M40 562q-14 0 -25 10.5t-11 25.5t11 26t25 11q16 0 26.5 -11t10.5 -26t-10.5 -25.5t-26.5 -10.5z" />
    <glyph glyph-name="ring" unicode="&#x2da;" horiz-adv-x="160" 
d="M80 549q-33 0 -56.5 23.5t-23.5 57.5q0 33 23.5 56.5t56.5 23.5q34 0 57 -23.5t23 -56.5q0 -34 -23 -57.5t-57 -23.5zM80 579q22 0 36.5 15t14.5 36t-14.5 35.5t-36.5 14.5q-20 0 -35 -14.5t-15 -35.5t15 -36t35 -15z" />
    <glyph glyph-name="ogonek" unicode="&#x2db;" horiz-adv-x="131" 
d="M101 -119l30 -14q-15 -53 -65 -53q-30 0 -48 18.5t-18 54.5q0 77 77 132l27 -19q-68 -47 -68 -112q0 -42 30 -42q27 0 35 35z" />
    <glyph glyph-name="tilde" unicode="&#x2dc;" horiz-adv-x="214" 
d="M146 554q-19 0 -31.5 16t-17.5 36t-13 36t-19 16q-35 0 -35 -98h-30q0 59 16.5 96.5t51.5 37.5q19 0 31.5 -16t17.5 -36t13 -36t19 -16q34 0 34 98h31q0 -59 -16.5 -96.5t-51.5 -37.5z" />
    <glyph glyph-name="hungarumlaut" unicode="&#x2dd;" horiz-adv-x="216" 
d="M105 700l-76 -144h-29l57 144h48zM216 700l-76 -144h-29l57 144h48z" />
    <glyph glyph-name="hookabovecomb" unicode="&#x309;" horiz-adv-x="131" 
d="M39 739l-26 6q11 45 54 45q23 0 37 -15t14 -44q0 -36 -21 -64h-30q24 30 24 63q0 34 -25 34q-20 0 -27 -25z" />
    <glyph glyph-name="uni037E" unicode="&#x37e;" horiz-adv-x="217" 
d="M109 406q-17 0 -30 12.5t-13 29.5t13 29.5t30 12.5t29.5 -12.5t12.5 -29.5t-12.5 -29.5t-29.5 -12.5zM155 13q0 -40 -20 -76.5t-50 -57.5l-28 23q24 17 40 43.5t18 49.5q-2 -2 -10 -2q-16 0 -27.5 12t-11.5 29t12 29.5t30 12.5q20 0 33.5 -17t13.5 -46z" />
    <glyph glyph-name="tonos" unicode="&#x384;" horiz-adv-x="186" 
d="M128 571h-29l18 194h62z" />
    <glyph glyph-name="dieresistonos" unicode="&#x385;" 
d="M187 571h-28l17 194h63zM323 600q0 -14 -11 -24.5t-25 -10.5q-15 0 -25.5 10.5t-10.5 24.5q0 15 10.5 25.5t25.5 10.5q14 0 25 -10.5t11 -25.5zM109 600q0 -14 -10.5 -24.5t-25.5 -10.5q-14 0 -24.5 10.5t-10.5 24.5q0 15 10.5 25.5t24.5 10.5q15 0 25.5 -10.5
t10.5 -25.5z" />
    <glyph glyph-name="Alphatonos" unicode="&#x386;" horiz-adv-x="338" 
d="M69 571h-29l18 194h62zM329 0h-56l-29 166h-150l-29 -166h-56l129 667h62zM237 215l-68 383l-68 -383h136z" />
    <glyph glyph-name="Epsilontonos" unicode="&#x388;" horiz-adv-x="353" 
d="M20 571h-29l18 194h62zM308 0h-228v667h228v-49h-175v-252h168v-48h-168v-269h175v-49z" />
    <glyph glyph-name="Etatonos" unicode="&#x389;" horiz-adv-x="427" 
d="M20 571h-29l18 194h62zM360 0h-54v319h-173v-319h-53v667h53v-300h173v300h54v-667z" />
    <glyph glyph-name="Iotatonos" unicode="&#x38a;" horiz-adv-x="200" 
d="M20 571h-29l18 194h62zM133 0h-53v667h53v-667z" />
    <glyph glyph-name="Omicrontonos" unicode="&#x38c;" horiz-adv-x="420" 
d="M43 571h-29l18 194h62zM212 -12q-57 0 -93.5 48.5t-51 122.5t-14.5 174q0 99 14.5 173.5t51.5 123t93 48.5q57 0 94 -48.5t51.5 -123t14.5 -173.5q0 -100 -14.5 -174t-51.5 -122.5t-94 -48.5zM212 37q54 0 78.5 82.5t24.5 213.5q0 132 -24.5 214t-78.5 82
q-53 0 -77.5 -82t-24.5 -214q0 -130 24.5 -213t77.5 -83z" />
    <glyph glyph-name="Upsilontonos" unicode="&#x38e;" horiz-adv-x="399" 
d="M11 571h-29l18 194h62zM252 0h-53v286l-146 381h58l115 -323l116 323h56l-146 -381v-286z" />
    <glyph glyph-name="Omegatonos" unicode="&#x38f;" horiz-adv-x="404" 
d="M43 571h-29l18 194h62zM55 49h72q-81 93 -81 290q0 160 40 249.5t120 89.5t120 -89.5t40 -249.5q0 -196 -82 -290h72v-49h-116v49q26 24 47.5 94.5t21.5 189.5q0 295 -103 295t-103 -295q0 -119 21.5 -189.5t47.5 -94.5v-49h-117v49z" />
    <glyph glyph-name="iotadieresistonos" unicode="&#x390;" horiz-adv-x="178" 
d="M97 571h-28l17 194h63zM233 600q0 -14 -11 -24.5t-25 -10.5q-15 0 -25.5 10.5t-10.5 24.5q0 15 10.5 25.5t25.5 10.5q14 0 25 -10.5t11 -25.5zM19 600q0 -14 -10.5 -24.5t-25.5 -10.5q-14 0 -24.5 10.5t-10.5 24.5q0 15 10.5 25.5t24.5 10.5q15 0 25.5 -10.5t10.5 -25.5z
M135 -12q-39 0 -56.5 23.5t-17.5 72.5v399h49v-395q0 -30 6.5 -43t25.5 -13q8 0 14 1l4 -42q-15 -3 -25 -3z" />
    <glyph glyph-name="Alpha" unicode="&#x391;" horiz-adv-x="338" 
d="M329 0h-56l-29 166h-150l-29 -166h-56l129 667h62zM237 215l-68 383l-68 -383h136z" />
    <glyph glyph-name="Beta" unicode="&#x392;" horiz-adv-x="381" 
d="M192 0h-124v667h120q64 0 100 -45t36 -125q0 -121 -82 -153q40 -7 65.5 -55t25.5 -109q0 -86 -35 -133t-106 -47zM180 366q88 0 88 126t-88 126h-59v-252h59zM184 49q93 0 93 134q0 58 -22.5 96.5t-70.5 38.5h-63v-269h63z" />
    <glyph glyph-name="Gamma" unicode="&#x393;" horiz-adv-x="341" 
d="M121 0h-53v667h228v-49h-175v-618z" />
    <glyph glyph-name="uni0394" unicode="&#x394;" horiz-adv-x="373" 
d="M363 0h-354l146 667h63zM300 49l-114 549l-113 -549h227z" />
    <glyph glyph-name="Epsilon" unicode="&#x395;" horiz-adv-x="341" 
d="M296 0h-228v667h228v-49h-175v-252h168v-48h-168v-269h175v-49z" />
    <glyph glyph-name="Zeta" unicode="&#x396;" horiz-adv-x="324" 
d="M290 0h-255v48l190 570h-190v49h248v-46l-192 -572h199v-49z" />
    <glyph glyph-name="Eta" unicode="&#x397;" horiz-adv-x="415" 
d="M348 0h-54v319h-173v-319h-53v667h53v-300h173v300h54v-667z" />
    <glyph glyph-name="Theta" unicode="&#x398;" horiz-adv-x="415" 
d="M282 318h-149v48h149v-48zM207 -12q-57 0 -93.5 48.5t-51 122.5t-14.5 174q0 99 14.5 173.5t51.5 123t93 48.5q57 0 94 -48.5t51.5 -123t14.5 -173.5q0 -100 -14.5 -174t-51.5 -122.5t-94 -48.5zM207 37q54 0 78.5 82.5t24.5 213.5q0 132 -24.5 214t-78.5 82
q-53 0 -77.5 -82t-24.5 -214q0 -130 24.5 -213t77.5 -83z" />
    <glyph glyph-name="Iota" unicode="&#x399;" horiz-adv-x="189" 
d="M121 0h-53v667h53v-667z" />
    <glyph glyph-name="Kappa" unicode="&#x39a;" horiz-adv-x="395" 
d="M380 0h-63l-150 304l-46 -87v-217h-53v667h53v-363l185 363h61l-171 -318z" />
    <glyph glyph-name="Lambda" unicode="&#x39b;" horiz-adv-x="338" 
d="M329 0h-56l-104 598l-104 -598h-56l129 667h62z" />
    <glyph glyph-name="Mu" unicode="&#x39c;" horiz-adv-x="533" 
d="M466 0h-54v554l-134 -554h-23l-134 554v-554h-53v667h76l123 -502l123 502h76v-667z" />
    <glyph glyph-name="Nu" unicode="&#x39d;" horiz-adv-x="415" 
d="M348 0h-52l-175 518v-518h-53v667h53l173 -511v511h54v-667z" />
    <glyph glyph-name="Xi" unicode="&#x39e;" 
d="M315 618h-269v49h269v-49zM314 0h-269v49h269v-49zM308 318h-255v48h255v-48z" />
    <glyph glyph-name="Omicron" unicode="&#x39f;" horiz-adv-x="415" 
d="M207 -12q-57 0 -93.5 48.5t-51 122.5t-14.5 174q0 99 14.5 173.5t51.5 123t93 48.5q57 0 94 -48.5t51.5 -123t14.5 -173.5q0 -100 -14.5 -174t-51.5 -122.5t-94 -48.5zM207 37q54 0 78.5 82.5t24.5 213.5q0 132 -24.5 214t-78.5 82q-53 0 -77.5 -82t-24.5 -214
q0 -130 24.5 -213t77.5 -83z" />
    <glyph glyph-name="Pi" unicode="&#x3a0;" horiz-adv-x="415" 
d="M348 0h-54v618h-173v-618h-53v667h280v-667z" />
    <glyph glyph-name="Rho" unicode="&#x3a1;" horiz-adv-x="364" 
d="M121 0h-53v667h118q73 0 110 -55t37 -139t-37 -139t-110 -55h-65v-279zM182 327q47 0 71 39.5t24 106.5q0 66 -24 105.5t-71 39.5h-61v-291h61z" />
    <glyph glyph-name="Sigma" unicode="&#x3a3;" horiz-adv-x="310" 
d="M101 618l116 -274l-118 -295h176v-49h-230v51l117 293l-117 274v49h230v-49h-174z" />
    <glyph glyph-name="Tau" unicode="&#x3a4;" horiz-adv-x="305" 
d="M179 0h-54v618h-107v49h269v-49h-108v-618z" />
    <glyph glyph-name="Upsilon" unicode="&#x3a5;" horiz-adv-x="347" 
d="M200 0h-53v286l-146 381h58l115 -323l116 323h56l-146 -381v-286z" />
    <glyph glyph-name="Phi" unicode="&#x3a6;" horiz-adv-x="554" 
d="M304 0h-54v65q-71 6 -118 46t-65.5 95.5t-18.5 126.5q0 70 18.5 125.5t65.5 96t118 46.5v66h54v-66q54 -5 94.5 -28.5t63.5 -61t34 -82t11 -96.5q0 -70 -19 -126t-66 -96t-118 -46v-65zM450 333q0 89 -35 149t-111 69v-437q75 10 110.5 70t35.5 149zM105 333
q0 -89 34.5 -149t110.5 -70v437q-76 -9 -110.5 -68.5t-34.5 -149.5z" />
    <glyph glyph-name="Chi" unicode="&#x3a7;" horiz-adv-x="338" 
d="M332 0h-60l-103 285l-103 -285h-60l132 339l-125 328h61l95 -274l95 274h61l-125 -328z" />
    <glyph glyph-name="Psi" unicode="&#x3a8;" horiz-adv-x="555" 
d="M304 0h-53v125q-86 7 -134.5 60t-48.5 153v329h53v-329q0 -151 130 -164v493h53v-493q130 13 130 164v329h54v-329q0 -100 -49 -153t-135 -60v-125z" />
    <glyph glyph-name="uni03A9" unicode="&#x3a9;" horiz-adv-x="397" 
d="M48 49h72q-81 93 -81 290q0 160 40 249.5t120 89.5t120 -89.5t40 -249.5q0 -196 -82 -290h72v-49h-116v49q26 24 47.5 94.5t21.5 189.5q0 295 -103 295t-103 -295q0 -119 21.5 -189.5t47.5 -94.5v-49h-117v49z" />
    <glyph glyph-name="Iotadieresis" unicode="&#x3aa;" horiz-adv-x="189" 
d="M121 0h-53v667h53v-667zM196 784q0 -14 -11 -24.5t-25 -10.5q-15 0 -25.5 10.5t-10.5 24.5q0 15 10.5 25.5t25.5 10.5q14 0 25 -10.5t11 -25.5zM64 784q0 -14 -10.5 -24.5t-25.5 -10.5q-14 0 -25 10.5t-11 24.5q0 15 11 25.5t25 10.5q15 0 25.5 -10.5t10.5 -25.5z" />
    <glyph glyph-name="Upsilondieresis" unicode="&#x3ab;" horiz-adv-x="347" 
d="M200 0h-53v286l-146 381h58l115 -323l116 323h56l-146 -381v-286zM275 784q0 -14 -11 -24.5t-25 -10.5q-15 0 -25.5 10.5t-10.5 24.5q0 15 10.5 25.5t25.5 10.5q14 0 25 -10.5t11 -25.5zM143 784q0 -14 -10.5 -24.5t-25.5 -10.5q-14 0 -25 10.5t-11 24.5q0 15 11 25.5
t25 10.5q15 0 25.5 -10.5t10.5 -25.5z" />
    <glyph glyph-name="alphatonos" unicode="&#x3ac;" horiz-adv-x="376" 
d="M197 571h-29l18 194h62zM353 33l4 -42q-15 -3 -24 -3q-37 0 -54.5 20.5t-19.5 61.5q-15 -37 -40 -59.5t-51 -22.5q-64 0 -95 69t-31 184q0 114 31 184t95 70q26 0 51 -21t39 -60v69h49v-395q0 -29 7 -42.5t25 -13.5q9 0 14 1zM177 32q25 0 48.5 27t32.5 63v237
q-9 37 -32.5 64.5t-48.5 27.5q-83 0 -83 -210q0 -209 83 -209z" />
    <glyph glyph-name="epsilontonos" unicode="&#x3ad;" horiz-adv-x="339" 
d="M179 571h-29l18 194h62zM181 -12q-67 0 -103 40t-36 100q0 47 26.5 79t64.5 39q-39 10 -62 44.5t-23 75.5q0 58 39.5 93.5t100.5 35.5q84 0 123 -79l-35 -26q-27 63 -88 63q-41 0 -65.5 -23.5t-24.5 -66.5q0 -46 24 -71.5t62 -25.5h67v-42h-68q-90 0 -90 -93
q0 -45 24 -73t65 -28q65 0 99 64l34 -26q-42 -80 -134 -80z" />
    <glyph glyph-name="etatonos" unicode="&#x3ae;" 
d="M189 571h-29l18 194h62zM300 -184h-50v567q0 68 -49 68q-28 0 -53 -25.5t-38 -61.5v-364h-49v483h49v-70q17 35 45.5 58.5t59.5 23.5q85 0 85 -103v-576z" />
    <glyph glyph-name="iotatonos" unicode="&#x3af;" horiz-adv-x="178" 
d="M99 571h-29l18 194h62zM135 -12q-39 0 -56.5 23.5t-17.5 72.5v399h49v-395q0 -30 6.5 -43t25.5 -13q8 0 14 1l4 -42q-15 -3 -25 -3z" />
    <glyph glyph-name="upsilondieresistonos" unicode="&#x3b0;" horiz-adv-x="364" 
d="M188 571h-28l17 194h63zM324 600q0 -14 -11 -24.5t-25 -10.5q-15 0 -25.5 10.5t-10.5 24.5q0 15 10.5 25.5t25.5 10.5q14 0 25 -10.5t11 -25.5zM110 600q0 -14 -10.5 -24.5t-25.5 -10.5q-14 0 -24.5 10.5t-10.5 24.5q0 15 10.5 25.5t24.5 10.5q15 0 25.5 -10.5
t10.5 -25.5zM180 -12q-119 0 -119 161v334h49v-334q0 -60 16.5 -88.5t53.5 -28.5q89 0 89 213q0 120 -56 231l45 19q63 -117 63 -250q0 -53 -7.5 -97.5t-23.5 -81t-44 -57.5t-66 -21z" />
    <glyph glyph-name="alpha" unicode="&#x3b1;" horiz-adv-x="376" 
d="M353 33l4 -42q-15 -3 -24 -3q-37 0 -54.5 20.5t-19.5 61.5q-15 -37 -40 -59.5t-51 -22.5q-64 0 -95 69t-31 184q0 114 31 184t95 70q26 0 51 -21t39 -60v69h49v-395q0 -29 7 -42.5t25 -13.5q9 0 14 1zM177 32q25 0 48.5 27t32.5 63v237q-9 37 -32.5 64.5t-48.5 27.5
q-83 0 -83 -210q0 -209 83 -209z" />
    <glyph glyph-name="beta" unicode="&#x3b2;" horiz-adv-x="368" 
d="M110 460v-338q9 -37 33 -63.5t52 -26.5q38 0 58 41t20 99q0 73 -26.5 111t-64.5 38h-18v44h17q37 0 59 34.5t22 98.5q0 67 -18 101t-50 34q-84 0 -84 -173zM110 68v-252h-49v644q0 217 134 217q55 0 87 -43.5t32 -131.5q0 -56 -20.5 -99.5t-60.5 -57.5q39 -10 65.5 -58.5
t26.5 -118.5q0 -81 -32.5 -130.5t-88.5 -49.5q-28 0 -53.5 21.5t-40.5 58.5z" />
    <glyph glyph-name="gamma" unicode="&#x3b3;" horiz-adv-x="302" 
d="M175 -184h-49v158q0 287 -123 509h55q98 -199 103 -403q32 78 50 188t18 215h50q0 -248 -104 -479v-188z" />
    <glyph glyph-name="delta" unicode="&#x3b4;" horiz-adv-x="367" 
d="M184 -12q-72 0 -107 61.5t-35 149.5q0 135 100 231q-69 65 -69 137q0 49 33 80.5t83 31.5q63 0 104 -52l-26 -33q-29 44 -78 44q-31 0 -50 -20.5t-19 -50.5q0 -33 21 -61.5t51 -54t60.5 -56.5t51.5 -81.5t21 -115.5q0 -89 -34 -149.5t-107 -60.5zM277 197
q0 70 -26.5 114.5t-74.5 88.5q-81 -76 -81 -200q0 -43 7 -78t28 -62.5t55 -27.5t55.5 27.5t29 62t7.5 75.5z" />
    <glyph glyph-name="epsilon" unicode="&#x3b5;" horiz-adv-x="339" 
d="M181 -12q-67 0 -103 40t-36 100q0 47 26.5 79t64.5 39q-39 10 -62 44.5t-23 75.5q0 58 39.5 93.5t100.5 35.5q84 0 123 -79l-35 -26q-27 63 -88 63q-41 0 -65.5 -23.5t-24.5 -66.5q0 -46 24 -71.5t62 -25.5h67v-42h-68q-90 0 -90 -93q0 -45 24 -73t65 -28q65 0 99 64
l34 -26q-42 -80 -134 -80z" />
    <glyph glyph-name="zeta" unicode="&#x3b6;" horiz-adv-x="306" 
d="M226 -47q0 19 -8.5 27t-28.5 8q-69 0 -108 58t-39 135q0 252 181 443h-173v43h223v-40q-179 -203 -179 -441q0 -58 25 -106t78 -48q77 0 77 -71q0 -47 -42 -118h-52q46 68 46 110z" />
    <glyph glyph-name="eta" unicode="&#x3b7;" 
d="M300 -184h-50v567q0 68 -49 68q-28 0 -53 -25.5t-38 -61.5v-364h-49v483h49v-70q17 35 45.5 58.5t59.5 23.5q85 0 85 -103v-576z" />
    <glyph glyph-name="theta" unicode="&#x3b8;" horiz-adv-x="367" 
d="M184 -12q-76 0 -109 89.5t-33 256.5q0 110 13 184t45 117.5t84 43.5q76 0 108.5 -88.5t32.5 -256.5t-32.5 -257t-108.5 -89zM184 32q48 0 67 70.5t21 211.5h-177q1 -139 21 -210.5t68 -71.5zM184 635q-48 0 -68 -70.5t-21 -207.5h177q-2 139 -21 208.5t-67 69.5z" />
    <glyph glyph-name="iota" unicode="&#x3b9;" horiz-adv-x="178" 
d="M135 -12q-39 0 -56.5 23.5t-17.5 72.5v399h49v-395q0 -30 6.5 -43t25.5 -13q8 0 14 1l4 -42q-15 -3 -25 -3z" />
    <glyph glyph-name="kappa" unicode="&#x3ba;" horiz-adv-x="343" 
d="M323 0h-53l-99 231l-61 -103v-128h-49v483h49v-286l163 286h52l-125 -217z" />
    <glyph glyph-name="lambda" unicode="&#x3bb;" horiz-adv-x="302" 
d="M39 629l-9 43q14 7 36 7q33 0 52.5 -18t30.5 -64l141 -597h-53l-86 419l-85 -419h-53l114 500l-21 86q-7 27 -16 38t-27 11q-13 0 -24 -6z" />
    <glyph glyph-name="uni03BC" unicode="&#x3bc;" horiz-adv-x="368" 
d="M110 11v-195h-49v667h49v-383q0 -70 53 -70q28 0 51 25t36 62v366h50v-395q0 -30 6.5 -43t25.5 -13q8 0 14 1l4 -42q-18 -3 -25 -3q-36 0 -53.5 20t-20.5 63q-32 -83 -90 -83q-35 0 -51 23z" />
    <glyph glyph-name="nu" unicode="&#x3bd;" horiz-adv-x="302" 
d="M173 0h-50l-110 483h53l87 -427q76 193 76 427h50q0 -250 -106 -483z" />
    <glyph glyph-name="xi" unicode="&#x3be;" horiz-adv-x="306" 
d="M189 -12q-69 0 -108 56t-39 131q0 62 27 107.5t65 57.5q-41 14 -63 55.5t-22 93.5q0 83 69 135h-66v43h210v-43h-105q-57 -42 -57 -126q0 -62 25 -97t64 -35h66v-44h-66q-42 0 -68.5 -35.5t-26.5 -106.5q0 -33 8.5 -64.5t33 -57.5t61.5 -26q77 0 77 -71q0 -47 -42 -118
h-52q46 68 46 110q0 19 -8.5 27t-28.5 8z" />
    <glyph glyph-name="omicron" unicode="&#x3bf;" horiz-adv-x="367" 
d="M184 -12q-50 0 -83 37t-46 92t-13 125t13 124.5t46 91.5t83 37t82.5 -37t45.5 -91.5t13 -124.5t-13 -125t-45.5 -92t-82.5 -37zM184 32q88 0 88 210q0 209 -88 209q-89 0 -89 -209q0 -210 89 -210z" />
    <glyph glyph-name="pi" unicode="&#x3c0;" horiz-adv-x="387" 
d="M313 0h-49v440h-141v-440h-49v440h-50v43h340v-43h-51v-440z" />
    <glyph glyph-name="rho" unicode="&#x3c1;" horiz-adv-x="368" 
d="M199 -12q-26 0 -50.5 21t-38.5 60v-253h-49v426q0 110 31.5 181.5t98.5 71.5q68 0 101 -69.5t33 -183.5q0 -115 -31 -184.5t-95 -69.5zM191 32q82 0 82 210q0 209 -82 209q-81 0 -81 -209v-118q9 -37 32.5 -64.5t48.5 -27.5z" />
    <glyph glyph-name="sigma1" unicode="&#x3c2;" horiz-adv-x="297" 
d="M186 -12q-68 0 -106 72t-38 182q0 111 38.5 182t109.5 71q53 0 91 -45l-24 -36q-29 37 -64 37q-51 0 -75 -60t-24 -149t24 -149.5t75 -60.5q42 0 59.5 -17t17.5 -54q0 -50 -42 -118h-47q46 68 46 110q0 20 -9 27.5t-32 7.5z" />
    <glyph glyph-name="sigma" unicode="&#x3c3;" horiz-adv-x="367" 
d="M323 229q0 -102 -33.5 -171.5t-105.5 -69.5t-107 72t-35 182q0 66 13.5 117.5t50.5 87.5t93 36h153v-44h-92q63 -80 63 -210zM272 231q0 146 -63 208h-10q-104 0 -104 -197q0 -210 89 -210q25 0 43.5 17.5t27.5 48t13 63t4 70.5z" />
    <glyph glyph-name="tau" unicode="&#x3c4;" horiz-adv-x="253" 
d="M176 -12q-39 0 -56.5 23.5t-17.5 72.5v356h-87v43h223v-43h-87v-351q0 -30 7 -43.5t25 -13.5q20 0 34 19l21 -34q-24 -29 -62 -29z" />
    <glyph glyph-name="upsilon" unicode="&#x3c5;" horiz-adv-x="364" 
d="M180 -12q-119 0 -119 161v334h49v-334q0 -60 16.5 -88.5t53.5 -28.5q89 0 89 213q0 120 -56 231l45 19q63 -117 63 -250q0 -53 -7.5 -97.5t-23.5 -81t-44 -57.5t-66 -21z" />
    <glyph glyph-name="phi" unicode="&#x3c6;" horiz-adv-x="497" 
d="M455 242q0 -103 -44 -174t-138 -79v-173h-49v174q-64 6 -106 43.5t-59 90t-17 119.5q0 190 122 252l23 -39q-92 -49 -92 -213q0 -53 10.5 -95t40.5 -75t78 -39v461h25q107 0 156.5 -71.5t49.5 -181.5zM403 242q0 85 -30.5 143t-99.5 65v-416q49 6 79 39.5t40.5 74.5
t10.5 94z" />
    <glyph glyph-name="chi" unicode="&#x3c7;" horiz-adv-x="306" 
d="M290 -184h-51l-86 286l-86 -286h-51l108 337l-102 330h50l81 -276l80 276h51l-102 -330z" />
    <glyph glyph-name="psi" unicode="&#x3c8;" horiz-adv-x="498" 
d="M273 -184h-49v173q-84 7 -123.5 61.5t-39.5 163.5v269h48v-269q0 -94 28 -135t87 -46v634h49v-634q58 6 86.5 47t28.5 134v269h49v-269q0 -110 -40 -164.5t-124 -60.5v-173z" />
    <glyph glyph-name="omega" unicode="&#x3c9;" horiz-adv-x="550" 
d="M508 242q0 -111 -31 -182.5t-95 -71.5q-83 0 -107 113q-24 -113 -107 -113q-64 0 -95 71.5t-31 182.5q0 76 29.5 151t83.5 102l30 -33q-47 -26 -68.5 -90.5t-21.5 -130.5q0 -209 77 -209q78 0 78 210v124h50v-124q0 -210 78 -210q77 0 77 210q0 66 -21.5 130t-68.5 90
l30 33q54 -27 83.5 -102t29.5 -151z" />
    <glyph glyph-name="iotadieresis" unicode="&#x3ca;" horiz-adv-x="178" 
d="M192 600q0 -14 -11 -24.5t-25 -10.5q-15 0 -25.5 10.5t-10.5 24.5q0 15 10.5 25.5t25.5 10.5q14 0 25 -10.5t11 -25.5zM60 600q0 -14 -10.5 -24.5t-25.5 -10.5q-14 0 -25 10.5t-11 24.5q0 15 11 25.5t25 10.5q15 0 25.5 -10.5t10.5 -25.5zM135 -12q-39 0 -56.5 23.5
t-17.5 72.5v399h49v-395q0 -30 6.5 -43t25.5 -13q8 0 14 1l4 -42q-15 -3 -25 -3z" />
    <glyph glyph-name="upsilondieresis" unicode="&#x3cb;" horiz-adv-x="364" 
d="M283 600q0 -14 -11 -24.5t-25 -10.5q-15 0 -25.5 10.5t-10.5 24.5q0 15 10.5 25.5t25.5 10.5q14 0 25 -10.5t11 -25.5zM151 600q0 -14 -10.5 -24.5t-25.5 -10.5q-14 0 -25 10.5t-11 24.5q0 15 11 25.5t25 10.5q15 0 25.5 -10.5t10.5 -25.5zM180 -12q-119 0 -119 161v334
h49v-334q0 -60 16.5 -88.5t53.5 -28.5q89 0 89 213q0 120 -56 231l45 19q63 -117 63 -250q0 -53 -7.5 -97.5t-23.5 -81t-44 -57.5t-66 -21z" />
    <glyph glyph-name="omicrontonos" unicode="&#x3cc;" horiz-adv-x="367" 
d="M192 571h-29l18 194h62zM184 -12q-50 0 -83 37t-46 92t-13 125t13 124.5t46 91.5t83 37t82.5 -37t45.5 -91.5t13 -124.5t-13 -125t-45.5 -92t-82.5 -37zM184 32q88 0 88 210q0 209 -88 209q-89 0 -89 -209q0 -210 89 -210z" />
    <glyph glyph-name="upsilontonos" unicode="&#x3cd;" horiz-adv-x="364" 
d="M191 571h-29l18 194h62zM180 -12q-119 0 -119 161v334h49v-334q0 -60 16.5 -88.5t53.5 -28.5q89 0 89 213q0 120 -56 231l45 19q63 -117 63 -250q0 -53 -7.5 -97.5t-23.5 -81t-44 -57.5t-66 -21z" />
    <glyph glyph-name="omegatonos" unicode="&#x3ce;" horiz-adv-x="550" 
d="M284 571h-29l18 194h62zM508 242q0 -111 -31 -182.5t-95 -71.5q-83 0 -107 113q-24 -113 -107 -113q-64 0 -95 71.5t-31 182.5q0 76 29.5 151t83.5 102l30 -33q-47 -26 -68.5 -90.5t-21.5 -130.5q0 -209 77 -209q78 0 78 210v124h50v-124q0 -210 78 -210q77 0 77 210
q0 66 -21.5 130t-68.5 90l30 33q54 -27 83.5 -102t29.5 -151z" />
    <glyph glyph-name="afii10023" unicode="&#x401;" horiz-adv-x="341" 
d="M284 767q0 -14 -11 -24.5t-25 -10.5q-15 0 -25.5 10.5t-10.5 24.5q0 15 10.5 25.5t25.5 10.5q14 0 25 -10.5t11 -25.5zM152 767q0 -14 -10.5 -24.5t-25.5 -10.5q-14 0 -25 10.5t-11 24.5q0 15 11 25.5t25 10.5q15 0 25.5 -10.5t10.5 -25.5zM296 0h-228v667h228v-49h-175
v-252h168v-48h-168v-269h175v-49z" />
    <glyph glyph-name="afii10051" unicode="&#x402;" horiz-adv-x="446" 
d="M260 -12v49q42 0 63.5 28t21.5 98v78q0 66 -27.5 106t-78.5 40q-29 0 -60 -9v-378h-54v618h-107v49h269v-49h-108v-191q29 8 65 8q75 0 114.5 -55t39.5 -139v-78q0 -175 -138 -175z" />
    <glyph glyph-name="afii10052" unicode="&#x403;" horiz-adv-x="341" 
d="M282 867l-98 -144h-35l78 144h55zM121 0h-53v667h228v-49h-175v-618z" />
    <glyph glyph-name="afii10053" unicode="&#x404;" horiz-adv-x="374" 
d="M208 -12q-56 0 -93 47.5t-52 122t-15 175.5t15 175.5t52 122t93 47.5q51 0 79.5 -31.5t45.5 -84.5l-46 -17q-14 43 -31.5 63.5t-47.5 20.5q-96 0 -103 -263h184v-48h-184q1 -128 26 -204.5t77 -76.5q34 0 52 26.5t29 76.5l47 -18q-33 -134 -128 -134z" />
    <glyph glyph-name="afii10054" unicode="&#x405;" horiz-adv-x="337" 
d="M154 -12q-80 0 -130 59l31 43q16 -24 43 -38.5t54 -14.5q40 0 67.5 32t27.5 84q0 46 -21 84t-51.5 65.5l-60.5 56.5t-51 70.5t-21 93.5q0 69 40 112t99 43q67 0 108 -44l-26 -41q-33 36 -81 36q-36 0 -61 -29t-25 -76q0 -39 21 -73t51 -62l60.5 -59t51.5 -76t21 -99
q0 -72 -40.5 -119.5t-106.5 -47.5z" />
    <glyph glyph-name="afii10055" unicode="&#x406;" horiz-adv-x="189" 
d="M121 0h-53v667h53v-667z" />
    <glyph glyph-name="afii10056" unicode="&#x407;" horiz-adv-x="189" 
d="M121 0h-53v667h53v-667zM196 767q0 -14 -11 -24.5t-25 -10.5q-15 0 -25.5 10.5t-10.5 24.5q0 15 10.5 25.5t25.5 10.5q14 0 25 -10.5t11 -25.5zM64 767q0 -14 -10.5 -24.5t-25.5 -10.5q-14 0 -25 10.5t-11 24.5q0 15 11 25.5t25 10.5q15 0 25.5 -10.5t10.5 -25.5z" />
    <glyph glyph-name="afii10057" unicode="&#x408;" horiz-adv-x="310" 
d="M111 -12q-62 0 -105 50l27 41q31 -42 75 -42q81 0 81 96v534h54v-535q0 -73 -35 -108.5t-97 -35.5z" />
    <glyph glyph-name="afii10058" unicode="&#x409;" horiz-adv-x="591" 
d="M18 -12v49q29 0 46 17t31 76t21 170l22 367h210v-279h65q73 0 110 -55t37 -139t-37 -139t-110 -55h-118v618h-107l-20 -323q-6 -99 -18.5 -162t-33.5 -94t-43 -41t-55 -10zM409 340h-61v-291h61q47 0 71 39.5t24 105.5q0 67 -24 106.5t-71 39.5z" />
    <glyph glyph-name="afii10059" unicode="&#x40a;" horiz-adv-x="591" 
d="M68 0v667h53v-300h174v300h53v-300h65q73 0 110 -51.5t37 -131.5t-37 -132t-110 -52h-118v319h-174v-319h-53zM348 49h61q47 0 71 36.5t24 98.5q0 61 -24 98t-71 37h-61v-270z" />
    <glyph glyph-name="afii10060" unicode="&#x40b;" horiz-adv-x="446" 
d="M341 0v241q0 67 -25.5 106.5t-76.5 39.5q-29 0 -60 -9v-378h-54v618h-107v49h269v-49h-108v-191q29 8 65 8q75 0 113 -55t38 -139v-241h-54z" />
    <glyph glyph-name="afii10061" unicode="&#x40c;" horiz-adv-x="395" 
d="M297 867l-98 -144h-35l78 144h55zM380 0h-63l-150 304l-46 -87v-217h-53v667h53v-363l185 363h61l-171 -318z" />
    <glyph glyph-name="afii10062" unicode="&#x40e;" horiz-adv-x="347" 
d="M71 -12q-40 0 -71 19l17 46q20 -15 50 -15q23 0 34.5 11.5t19.5 37.5l24 84l-144 496h56l117 -406l116 406h56l-173 -594q-27 -85 -102 -85zM290 782q-41 -59 -117 -59q-74 0 -117 59l29 23q13 -21 38 -33.5t50 -12.5q26 0 50.5 12.5t37.5 33.5z" />
    <glyph glyph-name="afii10145" unicode="&#x40f;" horiz-adv-x="415" 
d="M68 0v667h53v-618h174v618h53v-667h-114v-129h-53v129h-113z" />
    <glyph glyph-name="afii10017" unicode="&#x410;" horiz-adv-x="338" 
d="M329 0h-56l-29 166h-150l-29 -166h-56l129 667h62zM237 215l-68 383l-68 -383h136z" />
    <glyph glyph-name="afii10018" unicode="&#x411;" horiz-adv-x="364" 
d="M68 667h230v-49h-177v-230h65q73 0 110 -55t37 -139t-37 -139t-110 -55h-118v667zM182 340h-61v-291h61q47 0 71 39.5t24 105.5q0 67 -24 106.5t-71 39.5z" />
    <glyph glyph-name="afii10019" unicode="&#x412;" horiz-adv-x="381" 
d="M192 0h-124v667h120q64 0 100 -45t36 -125q0 -121 -82 -153q40 -7 65.5 -55t25.5 -109q0 -86 -35 -133t-106 -47zM180 366q88 0 88 126t-88 126h-59v-252h59zM184 49q93 0 93 134q0 58 -22.5 96.5t-70.5 38.5h-63v-269h63z" />
    <glyph glyph-name="afii10020" unicode="&#x413;" horiz-adv-x="341" 
d="M121 0h-53v667h228v-49h-175v-618z" />
    <glyph glyph-name="afii10021" unicode="&#x414;" horiz-adv-x="439" 
d="M17 -123v167q30 3 46.5 18t31 73t21.5 171l22 361h210v-618h62v-172h-54v123h-285v-123h-54zM169 301q-13 -197 -65 -252h191v569h-107z" />
    <glyph glyph-name="afii10022" unicode="&#x415;" horiz-adv-x="341" 
d="M296 0h-228v667h228v-49h-175v-252h168v-48h-168v-269h175v-49z" />
    <glyph glyph-name="afii10024" unicode="&#x416;" horiz-adv-x="541" 
d="M70 0h-63l185 349l-172 318h62l162 -318v318h53v-318l162 318h62l-172 -318l185 -349h-63l-151 304l-23 -44v-260h-53v260l-23 44z" />
    <glyph glyph-name="afii10025" unicode="&#x417;" horiz-adv-x="369" 
d="M176 -12q-49 0 -86.5 32t-57.5 82l44 27q37 -92 98 -92q90 0 90 144q0 74 -28 106t-66 32h-74v49h71q41 0 65.5 32.5t24.5 93.5q0 134 -84 134q-57 0 -91 -84l-42 26q19 50 56 78.5t80 28.5q63 0 100.5 -43.5t37.5 -131.5q0 -55 -24.5 -99t-69.5 -58q44 -10 72.5 -56
t28.5 -110q0 -86 -36 -138.5t-109 -52.5z" />
    <glyph glyph-name="afii10026" unicode="&#x418;" horiz-adv-x="415" 
d="M120 0h-52v667h53v-520l174 520h53v-667h-53v527z" />
    <glyph glyph-name="afii10027" unicode="&#x419;" horiz-adv-x="415" 
d="M120 0h-52v667h53v-520l174 520h53v-667h-53v527zM324 782q-41 -59 -117 -59q-74 0 -117 59l29 23q13 -21 38 -33.5t50 -12.5q26 0 50.5 12.5t37.5 33.5z" />
    <glyph glyph-name="afii10028" unicode="&#x41a;" horiz-adv-x="395" 
d="M380 0h-63l-150 304l-46 -87v-217h-53v667h53v-363l185 363h61l-171 -318z" />
    <glyph glyph-name="afii10029" unicode="&#x41b;" horiz-adv-x="415" 
d="M18 -12v49q29 0 46 17t31 76t21 170l22 367h210v-667h-54v618h-106l-20 -323q-6 -99 -18.5 -162t-33.5 -94t-43 -41t-55 -10z" />
    <glyph glyph-name="afii10030" unicode="&#x41c;" horiz-adv-x="533" 
d="M466 0h-54v554l-134 -554h-23l-134 554v-554h-53v667h76l123 -502l123 502h76v-667z" />
    <glyph glyph-name="afii10031" unicode="&#x41d;" horiz-adv-x="415" 
d="M348 0h-54v319h-173v-319h-53v667h53v-300h173v300h54v-667z" />
    <glyph glyph-name="afii10032" unicode="&#x41e;" horiz-adv-x="415" 
d="M207 -12q-57 0 -93.5 48.5t-51 122.5t-14.5 174q0 99 14.5 173.5t51.5 123t93 48.5q57 0 94 -48.5t51.5 -123t14.5 -173.5q0 -100 -14.5 -174t-51.5 -122.5t-94 -48.5zM207 37q54 0 78.5 82.5t24.5 213.5q0 132 -24.5 214t-78.5 82q-53 0 -77.5 -82t-24.5 -214
q0 -130 24.5 -213t77.5 -83z" />
    <glyph glyph-name="afii10033" unicode="&#x41f;" horiz-adv-x="415" 
d="M348 0h-54v618h-173v-618h-53v667h280v-667z" />
    <glyph glyph-name="afii10034" unicode="&#x420;" horiz-adv-x="364" 
d="M121 0h-53v667h118q73 0 110 -55t37 -139t-37 -139t-110 -55h-65v-279zM182 327q47 0 71 39.5t24 106.5q0 66 -24 105.5t-71 39.5h-61v-291h61z" />
    <glyph glyph-name="afii10035" unicode="&#x421;" horiz-adv-x="374" 
d="M208 -12q-56 0 -93 47.5t-52 122t-15 175.5t15 175.5t52 122t93 47.5q51 0 79.5 -31.5t45.5 -84.5l-46 -17q-14 43 -31.5 63.5t-47.5 20.5q-53 0 -78 -81t-25 -215t25 -215t78 -81q34 0 52 26.5t29 76.5l47 -18q-33 -134 -128 -134z" />
    <glyph glyph-name="afii10036" unicode="&#x422;" horiz-adv-x="305" 
d="M179 0h-54v618h-107v49h269v-49h-108v-618z" />
    <glyph glyph-name="afii10037" unicode="&#x423;" horiz-adv-x="347" 
d="M71 -12q-40 0 -71 19l17 46q20 -15 50 -15q23 0 34.5 11.5t19.5 37.5l24 84l-144 496h56l117 -406l116 406h56l-173 -594q-27 -85 -102 -85z" />
    <glyph glyph-name="afii10038" unicode="&#x424;" horiz-adv-x="554" 
d="M304 0h-54v65q-71 6 -118 46t-65.5 95.5t-18.5 126.5q0 70 18.5 125.5t65.5 96t118 46.5v66h54v-66q54 -5 94.5 -28.5t63.5 -61t34 -82t11 -96.5q0 -70 -19 -126t-66 -96t-118 -46v-65zM450 333q0 89 -35 149t-111 69v-437q75 10 110.5 70t35.5 149zM105 333
q0 -89 34.5 -149t110.5 -70v437q-76 -9 -110.5 -68.5t-34.5 -149.5z" />
    <glyph glyph-name="afii10039" unicode="&#x425;" horiz-adv-x="338" 
d="M332 0h-60l-103 285l-103 -285h-60l132 339l-125 328h61l95 -274l95 274h61l-125 -328z" />
    <glyph glyph-name="afii10040" unicode="&#x426;" horiz-adv-x="439" 
d="M356 -123v123h-288v667h53v-618h174v618h53v-618h62v-172h-54z" />
    <glyph glyph-name="afii10041" unicode="&#x427;" horiz-adv-x="388" 
d="M105 667v-194q0 -67 25.5 -106.5t76.5 -39.5q31 0 60 9v331h54v-667h-54v287q-29 -8 -64 -8q-75 0 -113 55t-38 139v194h53z" />
    <glyph glyph-name="afii10042" unicode="&#x428;" horiz-adv-x="607" 
d="M486 667h54v-667h-471v667h54v-618h155v618h53v-618h155v618z" />
    <glyph glyph-name="afii10043" unicode="&#x429;" horiz-adv-x="630" 
d="M486 667h54v-618h61v-172h-53v123h-479v667h54v-618h155v618h53v-618h155v618z" />
    <glyph glyph-name="afii10044" unicode="&#x42a;" horiz-adv-x="422" 
d="M244 0h-119v618h-107v49h161v-279h65q73 0 110 -55t37 -139t-37 -139t-110 -55zM240 340h-61v-291h61q46 0 70 39.5t24 105.5t-24 106t-70 40z" />
    <glyph glyph-name="afii10045" unicode="&#x42b;" horiz-adv-x="528" 
d="M68 667h53v-279h65q73 0 110 -55t37 -139t-37 -139t-110 -55h-118v667zM182 340h-61v-291h61q47 0 71 39.5t24 105.5q0 67 -24 106.5t-71 39.5zM460 0h-53v667h53v-667z" />
    <glyph glyph-name="afii10046" unicode="&#x42c;" horiz-adv-x="364" 
d="M68 667h53v-279h65q73 0 110 -55t37 -139t-37 -139t-110 -55h-118v667zM182 340h-61v-291h61q47 0 71 39.5t24 105.5q0 67 -24 106.5t-71 39.5z" />
    <glyph glyph-name="afii10047" unicode="&#x42d;" horiz-adv-x="374" 
d="M166 -12q-97 0 -128 134l46 18q12 -50 30 -76.5t52 -26.5q51 0 76 77t27 204h-185v48h184q-2 120 -27.5 191.5t-74.5 71.5q-30 0 -47.5 -20.5t-31.5 -63.5l-47 17q37 116 126 116q56 0 93 -47.5t52 -122t15 -175.5t-15 -175.5t-52 -122t-93 -47.5z" />
    <glyph glyph-name="afii10048" unicode="&#x42e;" horiz-adv-x="577" 
d="M369 -12q-81 0 -119 91t-40 240h-89v-319h-53v667h53v-300h89q4 140 42.5 225.5t116.5 85.5q57 0 93.5 -48.5t51.5 -123t15 -173.5q0 -154 -38.5 -249.5t-121.5 -95.5zM369 37q54 0 78.5 82.5t24.5 213.5q0 132 -24.5 214t-78.5 82t-78.5 -82t-24.5 -214
q0 -131 24.5 -213.5t78.5 -82.5z" />
    <glyph glyph-name="afii10049" unicode="&#x42f;" horiz-adv-x="388" 
d="M107 0h-58l101 290q-39 13 -67 57.5t-28 126.5q0 90 40 141.5t105 51.5h120v-667h-53v279h-67zM206 327h61v291h-61q-47 0 -71 -39.5t-24 -105.5q0 -67 24 -106.5t71 -39.5z" />
    <glyph glyph-name="afii10065" unicode="&#x430;" horiz-adv-x="359" 
d="M298 0h-49v51q-31 -63 -91 -63q-55 0 -88 45t-33 116t33 115.5t88 44.5q61 0 91 -60v91q0 57 -17 84.5t-59 27.5q-51 0 -94 -52l-24 36q56 59 123 59q64 0 92 -36t28 -113v-346zM167 26q58 0 82 69v106q-24 69 -82 69q-38 0 -58.5 -35t-20.5 -87q0 -51 20.5 -86.5
t58.5 -35.5z" />
    <glyph glyph-name="afii10066" unicode="&#x431;" horiz-adv-x="367" 
d="M183 32q89 0 89 211q0 208 -89 208q-47 0 -68 -59t-21 -149q0 -92 21 -151.5t68 -59.5zM183 -12q-71 0 -106 74.5t-35 201.5q0 79 3 126.5t11 91t25 67t44 41t68 27.5q70 18 70 50h50q0 -37 -27 -58t-82 -36q-62 -17 -87 -54t-32 -114q33 90 105 90q68 0 101.5 -71.5
t33.5 -180.5q0 -70 -14 -125.5t-47 -92.5t-81 -37z" />
    <glyph glyph-name="afii10067" unicode="&#x432;" horiz-adv-x="352" 
d="M182 0h-121v483h117q58 0 90 -33t32 -91q0 -83 -67 -109q33 -9 53.5 -43t20.5 -76q0 -131 -125 -131zM176 40q79 0 79 94q0 40 -19 67t-60 27h-66v-188h66zM172 269q75 0 75 86q0 88 -75 88h-62v-174h62z" />
    <glyph glyph-name="afii10068" unicode="&#x433;" horiz-adv-x="283" 
d="M258 483v-43h-148v-440h-49v483h197z" />
    <glyph glyph-name="afii10069" unicode="&#x434;" horiz-adv-x="383" 
d="M20 -123v162q33 4 50.5 39.5t26.5 148.5l18 256h185v-439h57v-167h-50v123h-238v-123h-49zM162 440l-16 -219q-11 -138 -51 -177h155v396h-88z" />
    <glyph glyph-name="afii10070" unicode="&#x435;" 
d="M199 -12q-79 0 -118 69.5t-39 184.5q0 112 35.5 182.5t106.5 70.5q72 0 105.5 -70t33.5 -182v-17h-230q0 -90 28 -143t81 -53q46 0 79 63l34 -25q-45 -80 -116 -80zM272 265q0 35 -4 65.5t-13.5 59.5t-28 46t-43.5 17q-26 0 -44.5 -18.5t-28 -48t-13.5 -60t-4 -61.5h179z
" />
    <glyph glyph-name="afii10072" unicode="&#x436;" horiz-adv-x="446" 
d="M73 0h-53l123 266l-125 217h52l129 -227v227h49v-227l129 227h52l-125 -217l123 -266h-53l-100 231l-26 -45v-186h-49v186l-27 45z" />
    <glyph glyph-name="afii10073" unicode="&#x437;" horiz-adv-x="339" 
d="M158 -12q-92 0 -135 80l35 26q32 -64 99 -64q41 0 65 28t24 73q0 93 -90 93h-68v42h67q38 0 62 26t24 71q0 43 -24.5 66.5t-65.5 23.5q-61 0 -88 -63l-35 26q40 79 123 79q61 0 100.5 -35.5t39.5 -93.5q0 -41 -23 -75.5t-62 -44.5q38 -7 64.5 -39t26.5 -79
q0 -60 -36 -100t-103 -40z" />
    <glyph glyph-name="afii10074" unicode="&#x438;" 
d="M114 0h-53v483h49v-372l134 372h56v-483h-50v379z" />
    <glyph glyph-name="afii10075" unicode="&#x439;" 
d="M114 0h-53v483h49v-372l134 372h56v-483h-50v379zM297 615q-41 -59 -117 -59q-74 0 -117 59l29 23q13 -21 38 -33.5t50 -12.5q26 0 50.5 12.5t37.5 33.5z" />
    <glyph glyph-name="afii10076" unicode="&#x43a;" horiz-adv-x="343" 
d="M323 0h-53l-99 231l-61 -103v-128h-49v483h49v-286l163 286h52l-125 -217z" />
    <glyph glyph-name="afii10077" unicode="&#x43b;" 
d="M20 -12v44q31 0 49.5 40t27.5 155l18 256h185v-483h-50v440h-88l-16 -219q-10 -134 -40.5 -183.5t-85.5 -49.5z" />
    <glyph glyph-name="afii10078" unicode="&#x43c;" horiz-adv-x="457" 
d="M397 0h-49v390l-107 -390h-25l-106 390v-390h-49v483h68l100 -363l101 363h67v-483z" />
    <glyph glyph-name="afii10079" unicode="&#x43d;" 
d="M110 0h-49v483h49v-210h140v210h50v-483h-50v230h-140v-230z" />
    <glyph glyph-name="afii10080" unicode="&#x43e;" horiz-adv-x="367" 
d="M184 -12q-50 0 -83 37t-46 92t-13 125t13 124.5t46 91.5t83 37t82.5 -37t45.5 -91.5t13 -124.5t-13 -125t-45.5 -92t-82.5 -37zM184 32q88 0 88 210q0 209 -88 209q-89 0 -89 -209q0 -210 89 -210z" />
    <glyph glyph-name="afii10081" unicode="&#x43f;" 
d="M300 0h-50v440h-140v-440h-49v483h239v-483z" />
    <glyph glyph-name="afii10082" unicode="&#x440;" horiz-adv-x="368" 
d="M199 -12q-26 0 -50.5 21t-38.5 60v-253h-49v667h49v-68q15 37 39.5 58.5t49.5 21.5q64 0 95 -68.5t31 -184.5q0 -115 -31 -184.5t-95 -69.5zM191 32q82 0 82 210q0 209 -82 209q-26 0 -49.5 -27t-31.5 -63v-237q9 -37 32.5 -64.5t48.5 -27.5z" />
    <glyph glyph-name="afii10083" unicode="&#x441;" horiz-adv-x="306" 
d="M190 -12q-71 0 -109.5 71.5t-38.5 182.5t38.5 182t109.5 71q53 0 91 -45l-24 -36q-29 37 -64 37q-51 0 -75 -60t-24 -149t24 -149.5t75 -60.5q35 0 64 37l24 -36q-35 -45 -91 -45z" />
    <glyph glyph-name="afii10084" unicode="&#x442;" horiz-adv-x="268" 
d="M158 0h-49v440h-84v43h218v-43h-85v-440z" />
    <glyph glyph-name="afii10085" unicode="&#x443;" horiz-adv-x="302" 
d="M30 -189l9 43q10 -6 24 -6q18 0 27 11t16 38l21 86l-114 500h53l85 -419l86 419h53l-141 -597q-11 -46 -30.5 -64t-52.5 -18q-22 0 -36 7z" />
    <glyph glyph-name="afii10086" unicode="&#x444;" horiz-adv-x="522" 
d="M157 495q53 0 79 -77v249h50v-248q12 36 34 56t45 20q57 0 84.5 -69t27.5 -184t-27.5 -184.5t-84.5 -69.5q-24 0 -45.5 19.5t-33.5 58.5v-250h-50v248q-12 -36 -34 -56t-45 -20q-57 0 -84.5 69t-27.5 184t27.5 184.5t84.5 69.5zM167 451q-71 0 -71 -210q0 -209 72 -209
q22 0 41 27t27 63v238q-8 37 -27.5 64t-41.5 27zM354 32q72 0 72 210q0 209 -71 209q-22 0 -41.5 -26.5t-27.5 -63.5v-237q8 -37 27 -64.5t41 -27.5z" />
    <glyph glyph-name="afii10087" unicode="&#x445;" horiz-adv-x="306" 
d="M290 0h-54l-83 204l-84 -204h-53l108 245l-102 238h53l78 -197l78 197h53l-102 -238z" />
    <glyph glyph-name="afii10088" unicode="&#x446;" horiz-adv-x="383" 
d="M307 -123v123h-246v483h49v-439h140v439h50v-439h57v-167h-50z" />
    <glyph glyph-name="afii10089" unicode="&#x447;" horiz-adv-x="350" 
d="M51 483h49v-183q0 -35 14 -51.5t46 -16.5q21 0 44 9t36 21v221h50v-483h-50v222q-38 -34 -92 -34q-53 0 -75 25t-22 78v192z" />
    <glyph glyph-name="afii10090" unicode="&#x448;" horiz-adv-x="521" 
d="M411 483h50v-483h-400v483h49v-439h126v439h49v-439h126v439z" />
    <glyph glyph-name="afii10091" unicode="&#x449;" horiz-adv-x="544" 
d="M411 483h50v-439h57v-167h-50v123h-407v483h49v-439h126v439h49v-439h126v439z" />
    <glyph glyph-name="afii10092" unicode="&#x44a;" horiz-adv-x="393" 
d="M223 0h-114v440h-84v43h133v-198h65q64 0 96.5 -40.5t32.5 -102.5q0 -61 -33 -101.5t-96 -40.5zM219 244h-61v-203h61q40 0 60.5 28t20.5 74t-20.5 73.5t-60.5 27.5z" />
    <glyph glyph-name="afii10093" unicode="&#x44b;" horiz-adv-x="486" 
d="M61 483h49v-198h64q64 0 97 -40t33 -103q0 -61 -33 -101.5t-97 -40.5h-113v483zM170 244h-60v-203h60q40 0 61 28t21 74t-21 73.5t-61 27.5zM425 0h-49v483h49v-483z" />
    <glyph glyph-name="afii10094" unicode="&#x44c;" horiz-adv-x="344" 
d="M61 483h49v-198h64q64 0 97 -40t33 -103q0 -61 -33 -101.5t-97 -40.5h-113v483zM170 244h-60v-203h60q40 0 61 28t21 74t-21 73.5t-61 27.5z" />
    <glyph glyph-name="afii10095" unicode="&#x44d;" horiz-adv-x="306" 
d="M116 -12q-56 0 -91 45l24 34q29 -37 63 -37q49 0 72.5 55t26.5 138h-149v44h148q-3 81 -26.5 133.5t-71.5 52.5q-33 0 -63 -37l-24 34q38 45 91 45q71 0 109.5 -71t38.5 -182t-38.5 -182.5t-109.5 -71.5z" />
    <glyph glyph-name="afii10096" unicode="&#x44e;" horiz-adv-x="509" 
d="M326 -12q-71 0 -105 68t-36 174h-75v-230h-49v483h49v-210h75q5 98 39.5 160t101.5 62q50 0 82.5 -37t45.5 -91.5t13 -124.5t-13 -125t-45.5 -92t-82.5 -37zM326 32q89 0 89 210q0 209 -89 209t-89 -209q0 -210 89 -210z" />
    <glyph glyph-name="afii10097" unicode="&#x44f;" 
d="M103 0h-57l87 207q-34 10 -57 44.5t-23 89.5q0 63 34 102.5t95 39.5h118v-483h-50v198h-70zM186 239h64v203h-64q-40 0 -60.5 -28t-20.5 -73q0 -46 20.5 -74t60.5 -28z" />
    <glyph glyph-name="afii10071" unicode="&#x451;" 
d="M286 600q0 -14 -11 -24.5t-25 -10.5q-15 0 -25.5 10.5t-10.5 24.5q0 15 10.5 25.5t25.5 10.5q14 0 25 -10.5t11 -25.5zM154 600q0 -14 -10.5 -24.5t-25.5 -10.5q-14 0 -25 10.5t-11 24.5q0 15 11 25.5t25 10.5q15 0 25.5 -10.5t10.5 -25.5zM199 -12q-79 0 -118 69.5
t-39 184.5q0 112 35.5 182.5t106.5 70.5q72 0 105.5 -70t33.5 -182v-17h-230q0 -90 28 -143t81 -53q46 0 79 63l34 -25q-45 -80 -116 -80zM272 265q0 35 -4 65.5t-13.5 59.5t-28 46t-43.5 17q-26 0 -44.5 -18.5t-28 -48t-13.5 -60t-4 -61.5h179z" />
    <glyph glyph-name="afii10099" unicode="&#x452;" horiz-adv-x="375" 
d="M243 539h-118v-126q17 35 45.5 58.5t59.5 23.5q44 0 64.5 -25t20.5 -78v-475q0 -62 -20.5 -87.5t-60.5 -25.5t-58 35l27 31q10 -22 29 -22q33 0 33 69v466q0 68 -49 68q-28 0 -53 -25.5t-38 -61.5v-364h-49v539h-52v36h52v92h49v-92h118v-36z" />
    <glyph glyph-name="afii10100" unicode="&#x453;" horiz-adv-x="283" 
d="M259 700l-98 -144h-35l78 144h55zM258 483v-43h-148v-440h-49v483h197z" />
    <glyph glyph-name="afii10101" unicode="&#x454;" horiz-adv-x="306" 
d="M190 -12q-71 0 -109.5 71.5t-38.5 182.5t38.5 182t109.5 71q53 0 91 -45l-24 -34q-30 37 -64 37q-32 0 -54.5 -27t-32.5 -67t-12 -92h150v-44h-150q3 -83 26.5 -138t72.5 -55q35 0 64 37l24 -34q-35 -45 -91 -45z" />
    <glyph glyph-name="afii10102" unicode="&#x455;" horiz-adv-x="294" 
d="M145 -12q-77 0 -121 60l28 34q39 -53 90 -53q31 0 53 22.5t22 58.5q0 33 -18.5 59.5t-44.5 46l-52 40t-44.5 53t-18.5 74.5q0 49 33 80.5t83 31.5q64 0 105 -52l-26 -33q-31 44 -78 44q-31 0 -50.5 -20.5t-19.5 -50.5q0 -31 18.5 -56t45 -44.5l52.5 -40.5t44.5 -54.5
t18.5 -76.5q0 -55 -35 -89t-85 -34z" />
    <glyph glyph-name="afii10103" unicode="&#x456;" horiz-adv-x="170" 
d="M85 560q-15 0 -26.5 11t-11.5 27t11.5 27t26.5 11q16 0 27 -11t11 -27t-11 -27t-27 -11zM110 0h-49v483h49v-483z" />
    <glyph glyph-name="afii10104" unicode="&#x457;" horiz-adv-x="170" 
d="M187 600q0 -14 -11 -24.5t-25 -10.5q-15 0 -25.5 10.5t-10.5 24.5q0 15 10.5 25.5t25.5 10.5q14 0 25 -10.5t11 -25.5zM55 600q0 -14 -10.5 -24.5t-25.5 -10.5q-14 0 -25 10.5t-11 24.5q0 15 11 25.5t25 10.5q15 0 25.5 -10.5t10.5 -25.5zM110 0h-49v483h49v-483z" />
    <glyph glyph-name="afii10105" unicode="&#x458;" horiz-adv-x="170" 
d="M85 560q-15 0 -26.5 11t-11.5 27t11.5 27t26.5 11q16 0 27 -11t11 -27t-11 -27t-27 -11zM29 -196q-41 0 -58 35l27 31q10 -22 29 -22q34 0 34 69v566h49v-566q0 -62 -20.5 -87.5t-60.5 -25.5z" />
    <glyph glyph-name="afii10106" unicode="&#x459;" horiz-adv-x="535" 
d="M20 -12v44q31 0 49.5 40t27.5 155l18 256h185v-198h64q64 0 97 -40.5t33 -102.5q0 -60 -33.5 -101t-96.5 -41h-114v440h-88l-16 -219q-10 -134 -40.5 -183.5t-85.5 -49.5zM360 244h-60v-203h60q40 0 60.5 28t20.5 74t-20.5 73.5t-60.5 27.5z" />
    <glyph glyph-name="afii10107" unicode="&#x45a;" horiz-adv-x="535" 
d="M110 0h-49v483h49v-210h140v210h50v-210h64q64 0 97 -38t33 -98q0 -59 -33 -98t-97 -39h-114v230h-140v-230zM360 232h-60v-191h60q40 0 60.5 26t20.5 70t-20 69.5t-61 25.5z" />
    <glyph glyph-name="afii10108" unicode="&#x45b;" horiz-adv-x="375" 
d="M242 538h-117v-125q17 35 45.5 58.5t59.5 23.5q44 0 64.5 -24.5t20.5 -78.5v-392h-50v383q0 68 -49 68q-28 0 -53 -25.5t-38 -61.5v-364h-49v538h-52v36h52v93h49v-93h117v-36z" />
    <glyph glyph-name="afii10109" unicode="&#x45c;" horiz-adv-x="343" 
d="M272 700l-98 -144h-35l78 144h55zM323 0h-53l-99 231l-61 -103v-128h-49v483h49v-286l163 286h52l-125 -217z" />
    <glyph glyph-name="afii10110" unicode="&#x45e;" horiz-adv-x="302" 
d="M30 -189l9 43q10 -6 24 -6q18 0 27 11t16 38l21 86l-114 500h53l85 -419l86 419h53l-141 -597q-11 -46 -30.5 -64t-52.5 -18q-22 0 -36 7zM268 615q-41 -59 -117 -59q-74 0 -117 59l29 23q13 -21 38 -33.5t50 -12.5q26 0 50.5 12.5t37.5 33.5z" />
    <glyph glyph-name="afii10193" unicode="&#x45f;" 
d="M155 -122v122h-94v483h49v-439h140v439h50v-483h-95v-122h-50z" />
    <glyph glyph-name="afii10050" unicode="&#x490;" horiz-adv-x="341" 
d="M121 618v-618h-53v667h175v124h53v-173h-175z" />
    <glyph glyph-name="afii10098" unicode="&#x491;" horiz-adv-x="283" 
d="M110 440v-440h-49v483h148v122h49v-165h-148z" />
    <glyph glyph-name="uni1E02" unicode="&#x1e02;" horiz-adv-x="381" 
d="M192 0h-124v667h120q64 0 100 -45t36 -125q0 -121 -82 -153q40 -7 65.5 -55t25.5 -109q0 -86 -35 -133t-106 -47zM180 366q88 0 88 126t-88 126h-59v-252h59zM184 49q93 0 93 134q0 58 -22.5 96.5t-70.5 38.5h-63v-269h63zM190 729q-14 0 -25 10.5t-11 25.5t11 26t25 11
q16 0 26.5 -11t10.5 -26t-10.5 -25.5t-26.5 -10.5z" />
    <glyph glyph-name="uni1E03" unicode="&#x1e03;" horiz-adv-x="368" 
d="M110 122q8 -36 31.5 -63t49.5 -27q82 0 82 209q0 210 -82 210q-25 0 -48.5 -27.5t-32.5 -64.5v-237zM110 0h-49v667h49v-253q14 39 38.5 60t50.5 21q64 0 95 -69.5t31 -184.5q0 -116 -31 -184.5t-95 -68.5q-25 0 -49.5 21.5t-39.5 58.5v-68zM192 729q-14 0 -25 10.5
t-11 25.5t11 26t25 11q16 0 26.5 -11t10.5 -26t-10.5 -25.5t-26.5 -10.5z" />
    <glyph glyph-name="uni1E0A" unicode="&#x1e0a;" horiz-adv-x="407" 
d="M178 0h-110v667h109q93 0 137.5 -90t44.5 -244t-44 -243.5t-137 -89.5zM177 49q125 0 125 284q0 285 -125 285h-56v-569h56zM203 729q-14 0 -25 10.5t-11 25.5t11 26t25 11q16 0 26.5 -11t10.5 -26t-10.5 -25.5t-26.5 -10.5z" />
    <glyph glyph-name="uni1E0B" unicode="&#x1e0b;" horiz-adv-x="368" 
d="M307 0h-49v68q-15 -37 -40 -58.5t-50 -21.5q-64 0 -95 69t-31 184q0 114 31 184t95 70q26 0 51 -21t39 -60v253h49v-667zM177 32q25 0 48.5 27t32.5 63v237q-9 37 -32.5 64.5t-48.5 27.5q-83 0 -83 -210q0 -209 83 -209zM176 729q-14 0 -25 10.5t-11 25.5t11 26t25 11
q16 0 26.5 -11t10.5 -26t-10.5 -25.5t-26.5 -10.5z" />
    <glyph glyph-name="uni1E1E" unicode="&#x1e1e;" horiz-adv-x="341" 
d="M185 729q-14 0 -25 10.5t-11 25.5t11 26t25 11q16 0 26.5 -11t10.5 -26t-10.5 -25.5t-26.5 -10.5zM121 0h-53v667h228v-49h-175v-252h168v-48h-168v-318z" />
    <glyph glyph-name="uni1E1F" unicode="&#x1e1f;" horiz-adv-x="213" 
d="M162 729q-14 0 -25 10.5t-11 25.5t11 26t25 11q16 0 26.5 -11t10.5 -26t-10.5 -25.5t-26.5 -10.5zM123 0h-49v440h-49v43h49v94q0 45 24.5 72.5t66.5 27.5q41 0 62 -27l-22 -38q-14 21 -35 21q-47 0 -47 -56v-94h68v-43h-68v-440z" />
    <glyph glyph-name="uni1E22" unicode="&#x1e22;" horiz-adv-x="415" 
d="M348 0h-54v319h-173v-319h-53v667h53v-300h173v300h54v-667zM207 729q-14 0 -25 10.5t-11 25.5t11 26t25 11q16 0 26.5 -11t10.5 -26t-10.5 -25.5t-26.5 -10.5z" />
    <glyph glyph-name="uni1E23" unicode="&#x1e23;" 
d="M300 0h-50v383q0 68 -49 68q-28 0 -53 -25.5t-38 -61.5v-364h-49v667h49v-254q17 35 45.5 58.5t59.5 23.5q44 0 64.5 -24.5t20.5 -78.5v-392zM180 729q-14 0 -25 10.5t-11 25.5t11 26t25 11q16 0 26.5 -11t10.5 -26t-10.5 -25.5t-26.5 -10.5z" />
    <glyph glyph-name="uni1E56" unicode="&#x1e56;" horiz-adv-x="364" 
d="M121 0h-53v667h118q73 0 110 -55t37 -139t-37 -139t-110 -55h-65v-279zM182 327q47 0 71 39.5t24 106.5q0 66 -24 105.5t-71 39.5h-61v-291h61zM181 729q-14 0 -25 10.5t-11 25.5t11 26t25 11q16 0 26.5 -11t10.5 -26t-10.5 -25.5t-26.5 -10.5z" />
    <glyph glyph-name="uni1E57" unicode="&#x1e57;" horiz-adv-x="368" 
d="M199 -12q-26 0 -50.5 21t-38.5 60v-253h-49v667h49v-68q15 37 39.5 58.5t49.5 21.5q64 0 95 -68.5t31 -184.5q0 -115 -31 -184.5t-95 -69.5zM191 32q82 0 82 210q0 209 -82 209q-26 0 -49.5 -27t-31.5 -63v-237q9 -37 32.5 -64.5t48.5 -27.5zM192 562q-14 0 -25 10.5
t-11 25.5t11 26t25 11q16 0 26.5 -11t10.5 -26t-10.5 -25.5t-26.5 -10.5z" />
    <glyph glyph-name="uni1E60" unicode="&#x1e60;" horiz-adv-x="337" 
d="M154 -12q-80 0 -130 59l31 43q16 -24 43 -38.5t54 -14.5q40 0 67.5 32t27.5 84q0 46 -21 84t-51.5 65.5l-60.5 56.5t-51 70.5t-21 93.5q0 69 40 112t99 43q67 0 108 -44l-26 -41q-33 36 -81 36q-36 0 -61 -29t-25 -76q0 -39 21 -73t51 -62l60.5 -59t51.5 -76t21 -99
q0 -72 -40.5 -119.5t-106.5 -47.5zM167 729q-14 0 -25 10.5t-11 25.5t11 26t25 11q16 0 26.5 -11t10.5 -26t-10.5 -25.5t-26.5 -10.5z" />
    <glyph glyph-name="uni1E61" unicode="&#x1e61;" horiz-adv-x="294" 
d="M145 -12q-77 0 -121 60l28 34q39 -53 90 -53q31 0 53 22.5t22 58.5q0 33 -18.5 59.5t-44.5 46l-52 40t-44.5 53t-18.5 74.5q0 49 33 80.5t83 31.5q64 0 105 -52l-26 -33q-31 44 -78 44q-31 0 -50.5 -20.5t-19.5 -50.5q0 -31 18.5 -56t45 -44.5l52.5 -40.5t44.5 -54.5
t18.5 -76.5q0 -55 -35 -89t-85 -34zM146 562q-14 0 -25 10.5t-11 25.5t11 26t25 11q16 0 26.5 -11t10.5 -26t-10.5 -25.5t-26.5 -10.5z" />
    <glyph glyph-name="uni1E6A" unicode="&#x1e6a;" horiz-adv-x="305" 
d="M179 0h-54v618h-107v49h269v-49h-108v-618zM152 729q-14 0 -25 10.5t-11 25.5t11 26t25 11q16 0 26.5 -11t10.5 -26t-10.5 -25.5t-26.5 -10.5z" />
    <glyph glyph-name="uni1E6B" unicode="&#x1e6b;" horiz-adv-x="223" 
d="M149 -12q-75 0 -75 96v356h-50v43h50v132h49v-132h68v-43h-68v-351q0 -30 7 -43.5t26 -13.5q20 0 34 19l21 -34q-24 -29 -62 -29zM99 729q-14 0 -25 10.5t-11 25.5t11 26t25 11q16 0 26.5 -11t10.5 -26t-10.5 -25.5t-26.5 -10.5z" />
    <glyph glyph-name="Wgrave" unicode="&#x1e80;" horiz-adv-x="519" 
d="M395 0h-59l-77 551l-76 -551h-59l-103 667h57l77 -568l80 568h49l80 -568l78 568h56zM293 723h-36l-97 144h54z" />
    <glyph glyph-name="wgrave" unicode="&#x1e81;" horiz-adv-x="513" 
d="M393 0h-50l-87 415l-86 -415h-51l-102 483h52l77 -411l83 411h53l84 -411l78 411h52zM290 556h-36l-97 144h54z" />
    <glyph glyph-name="Wacute" unicode="&#x1e82;" horiz-adv-x="519" 
d="M368 867l-98 -144h-35l78 144h55zM395 0h-59l-77 551l-76 -551h-59l-103 667h57l77 -568l80 568h49l80 -568l78 568h56z" />
    <glyph glyph-name="wacute" unicode="&#x1e83;" horiz-adv-x="513" 
d="M356 700l-98 -144h-35l78 144h55zM393 0h-50l-87 415l-86 -415h-51l-102 483h52l77 -411l83 411h53l84 -411l78 411h52z" />
    <glyph glyph-name="Wdieresis" unicode="&#x1e84;" horiz-adv-x="519" 
d="M361 767q0 -14 -11 -24.5t-25 -10.5q-15 0 -25.5 10.5t-10.5 24.5q0 15 10.5 25.5t25.5 10.5q14 0 25 -10.5t11 -25.5zM229 767q0 -14 -10.5 -24.5t-25.5 -10.5q-14 0 -25 10.5t-11 24.5q0 15 11 25.5t25 10.5q15 0 25.5 -10.5t10.5 -25.5zM395 0h-59l-77 551l-76 -551
h-59l-103 667h57l77 -568l80 568h49l80 -568l78 568h56z" />
    <glyph glyph-name="wdieresis" unicode="&#x1e85;" horiz-adv-x="513" 
d="M358 600q0 -14 -11 -24.5t-25 -10.5q-15 0 -25.5 10.5t-10.5 24.5q0 15 10.5 25.5t25.5 10.5q14 0 25 -10.5t11 -25.5zM226 600q0 -14 -10.5 -24.5t-25.5 -10.5q-14 0 -25 10.5t-11 24.5q0 15 11 25.5t25 10.5q15 0 25.5 -10.5t10.5 -25.5zM393 0h-50l-87 415l-86 -415
h-51l-102 483h52l77 -411l83 411h53l84 -411l78 411h52z" />
    <glyph glyph-name="uni1EA0" unicode="&#x1ea0;" horiz-adv-x="338" 
d="M329 0h-56l-29 166h-150l-29 -166h-56l129 667h62zM237 215l-68 383l-68 -383h136zM169 -177q-14 0 -25 10.5t-11 25.5t11 26t25 11q16 0 26.5 -11t10.5 -26t-10.5 -25.5t-26.5 -10.5z" />
    <glyph glyph-name="uni1EA1" unicode="&#x1ea1;" horiz-adv-x="359" 
d="M298 0h-49v51q-31 -63 -91 -63q-55 0 -88 45t-33 116t33 115.5t88 44.5q61 0 91 -60v91q0 57 -17 84.5t-59 27.5q-51 0 -94 -52l-24 36q56 59 123 59q64 0 92 -36t28 -113v-346zM167 26q58 0 82 69v106q-24 69 -82 69q-38 0 -58.5 -35t-20.5 -87q0 -51 20.5 -86.5
t58.5 -35.5zM179 -177q-14 0 -25 10.5t-11 25.5t11 26t25 11q16 0 26.5 -11t10.5 -26t-10.5 -25.5t-26.5 -10.5z" />
    <glyph glyph-name="uni1EA2" unicode="&#x1ea2;" horiz-adv-x="338" 
d="M329 0h-56l-29 166h-150l-29 -166h-56l129 667h62zM237 215l-68 383l-68 -383h136zM142 769l-26 6q11 45 54 45q23 0 37 -15t14 -44q0 -35 -21 -64h-30q24 30 24 63q0 34 -25 34q-20 0 -27 -25z" />
    <glyph glyph-name="uni1EA3" unicode="&#x1ea3;" horiz-adv-x="359" 
d="M298 0h-49v51q-31 -63 -91 -63q-55 0 -88 45t-33 116t33 115.5t88 44.5q61 0 91 -60v91q0 57 -17 84.5t-59 27.5q-51 0 -94 -52l-24 36q56 59 123 59q64 0 92 -36t28 -113v-346zM167 26q58 0 82 69v106q-24 69 -82 69q-38 0 -58.5 -35t-20.5 -87q0 -51 20.5 -86.5
t58.5 -35.5zM152 599l-26 6q11 45 54 45q23 0 37 -15t14 -44q0 -35 -21 -64h-30q24 30 24 63q0 34 -25 34q-20 0 -27 -25z" />
    <glyph glyph-name="uni1EA4" unicode="&#x1ea4;" horiz-adv-x="338" 
d="M264 682h-32l-64 83l-60 -83h-32l67 108h51zM329 0h-56l-29 166h-150l-29 -166h-56l129 667h62zM237 215l-68 383l-68 -383h136zM373 843l-98 -108h-35l78 108h55z" />
    <glyph glyph-name="uni1EA5" unicode="&#x1ea5;" horiz-adv-x="359" 
d="M298 0h-49v51q-31 -63 -91 -63q-55 0 -88 45t-33 116t33 115.5t88 44.5q61 0 91 -60v91q0 57 -17 84.5t-59 27.5q-51 0 -94 -52l-24 36q56 59 123 59q64 0 92 -36t28 -113v-346zM167 26q58 0 82 69v106q-24 69 -82 69q-38 0 -58.5 -35t-20.5 -87q0 -51 20.5 -86.5
t58.5 -35.5zM275 556h-32l-64 111l-60 -111h-32l67 144h51zM382 771l-98 -144h-35l78 144h55z" />
    <glyph glyph-name="uni1EA6" unicode="&#x1ea6;" horiz-adv-x="338" 
d="M264 682h-32l-64 83l-60 -83h-32l67 108h51zM329 0h-56l-29 166h-150l-29 -166h-56l129 667h62zM237 215l-68 383l-68 -383h136zM99 735h-36l-97 108h54z" />
    <glyph glyph-name="uni1EA7" unicode="&#x1ea7;" horiz-adv-x="359" 
d="M298 0h-49v51q-31 -63 -91 -63q-55 0 -88 45t-33 116t33 115.5t88 44.5q61 0 91 -60v91q0 57 -17 84.5t-59 27.5q-51 0 -94 -52l-24 36q56 59 123 59q64 0 92 -36t28 -113v-346zM167 26q58 0 82 69v106q-24 69 -82 69q-38 0 -58.5 -35t-20.5 -87q0 -51 20.5 -86.5
t58.5 -35.5zM275 556h-32l-64 111l-60 -111h-32l67 144h51zM111 627h-36l-97 144h54z" />
    <glyph glyph-name="uni1EA8" unicode="&#x1ea8;" horiz-adv-x="338" 
d="M264 682h-32l-64 83l-60 -83h-32l67 108h51zM329 0h-56l-29 166h-150l-29 -166h-56l129 667h62zM237 215l-68 383l-68 -383h136zM235 796l-26 5q11 33 54 33q51 0 51 -44q0 -27 -21 -48h-30q24 23 24 47q0 26 -25 26q-20 0 -27 -19z" />
    <glyph glyph-name="uni1EA9" unicode="&#x1ea9;" horiz-adv-x="359" 
d="M298 0h-49v51q-31 -63 -91 -63q-55 0 -88 45t-33 116t33 115.5t88 44.5q61 0 91 -60v91q0 57 -17 84.5t-59 27.5q-51 0 -94 -52l-24 36q56 59 123 59q64 0 92 -36t28 -113v-346zM167 26q58 0 82 69v106q-24 69 -82 69q-38 0 -58.5 -35t-20.5 -87q0 -51 20.5 -86.5
t58.5 -35.5zM275 556h-32l-64 111l-60 -111h-32l67 144h51zM216 739l-26 6q11 45 54 45q23 0 37 -15t14 -44q0 -36 -21 -64h-30q24 30 24 63q0 34 -25 34q-20 0 -27 -25z" />
    <glyph glyph-name="uni1EAA" unicode="&#x1eaa;" horiz-adv-x="338" 
d="M264 678h-32l-64 55l-60 -55h-32l67 72h51zM329 0h-56l-29 166h-150l-29 -166h-56l129 667h62zM237 215l-68 383l-68 -383h136zM208 757q-24 0 -37 13t-21.5 26t-22.5 13q-35 0 -35 -49h-30q0 29 16.5 48t51.5 19q24 0 37 -13t21.5 -26t22.5 -13q34 0 34 49h31
q0 -29 -16.5 -48t-51.5 -19z" />
    <glyph glyph-name="uni1EAB" unicode="&#x1eab;" horiz-adv-x="359" 
d="M298 0h-49v51q-31 -63 -91 -63q-55 0 -88 45t-33 116t33 115.5t88 44.5q61 0 91 -60v91q0 57 -17 84.5t-59 27.5q-51 0 -94 -52l-24 36q56 59 123 59q64 0 92 -36t28 -113v-346zM167 26q58 0 82 69v106q-24 69 -82 69q-38 0 -58.5 -35t-20.5 -87q0 -51 20.5 -86.5
t58.5 -35.5zM275 523h-32l-64 111l-60 -111h-32l67 144h51zM218 682q-19 0 -31.5 16t-17.5 36t-13 36t-19 16q-35 0 -35 -98h-30q0 59 16.5 96.5t51.5 37.5q19 0 31.5 -16t17.5 -36t13 -36t19 -16q34 0 34 98h31q0 -59 -16.5 -96.5t-51.5 -37.5z" />
    <glyph glyph-name="uni1EAC" unicode="&#x1eac;" horiz-adv-x="338" 
d="M329 0h-56l-29 166h-150l-29 -166h-56l129 667h62zM237 215l-68 383l-68 -383h136zM264 723h-32l-64 111l-60 -111h-32l67 144h51zM169 -177q-14 0 -25 10.5t-11 25.5t11 26t25 11q16 0 26.5 -11t10.5 -26t-10.5 -25.5t-26.5 -10.5z" />
    <glyph glyph-name="uni1EAD" unicode="&#x1ead;" horiz-adv-x="359" 
d="M298 0h-49v51q-31 -63 -91 -63q-55 0 -88 45t-33 116t33 115.5t88 44.5q61 0 91 -60v91q0 57 -17 84.5t-59 27.5q-51 0 -94 -52l-24 36q56 59 123 59q64 0 92 -36t28 -113v-346zM167 26q58 0 82 69v106q-24 69 -82 69q-38 0 -58.5 -35t-20.5 -87q0 -51 20.5 -86.5
t58.5 -35.5zM273 556h-32l-64 111l-60 -111h-32l67 144h51zM179 -177q-14 0 -25 10.5t-11 25.5t11 26t25 11q16 0 26.5 -11t10.5 -26t-10.5 -25.5t-26.5 -10.5z" />
    <glyph glyph-name="uni1EAE" unicode="&#x1eae;" horiz-adv-x="338" 
d="M329 0h-56l-29 166h-150l-29 -166h-56l129 667h62zM237 215l-68 383l-68 -383h136zM267 841l-98 -104h-35l78 104h55zM286 742q-41 -55 -117 -55q-75 0 -117 55l29 21q13 -19 38 -31t50 -12q58 0 88 43z" />
    <glyph glyph-name="uni1EAF" unicode="&#x1eaf;" horiz-adv-x="359" 
d="M298 0h-49v51q-31 -63 -91 -63q-55 0 -88 45t-33 116t33 115.5t88 44.5q61 0 91 -60v91q0 57 -17 84.5t-59 27.5q-51 0 -94 -52l-24 36q56 59 123 59q64 0 92 -36t28 -113v-346zM167 26q58 0 82 69v106q-24 69 -82 69q-38 0 -58.5 -35t-20.5 -87q0 -51 20.5 -86.5
t58.5 -35.5zM278 761l-98 -144h-35l78 144h55zM296 588q-41 -59 -117 -59q-74 0 -117 59l29 23q13 -21 38 -33.5t50 -12.5q26 0 50.5 12.5t37.5 33.5z" />
    <glyph glyph-name="uni1EB0" unicode="&#x1eb0;" horiz-adv-x="338" 
d="M329 0h-56l-29 166h-150l-29 -166h-56l129 667h62zM237 215l-68 383l-68 -383h136zM206 737h-36l-97 104h54zM286 742q-41 -55 -117 -55q-75 0 -117 55l29 21q13 -19 38 -31t50 -12q58 0 88 43z" />
    <glyph glyph-name="uni1EB1" unicode="&#x1eb1;" horiz-adv-x="359" 
d="M298 0h-49v51q-31 -63 -91 -63q-55 0 -88 45t-33 116t33 115.5t88 44.5q61 0 91 -60v91q0 57 -17 84.5t-59 27.5q-51 0 -94 -52l-24 36q56 59 123 59q64 0 92 -36t28 -113v-346zM167 26q58 0 82 69v106q-24 69 -82 69q-38 0 -58.5 -35t-20.5 -87q0 -51 20.5 -86.5
t58.5 -35.5zM212 617h-36l-97 144h54zM297 588q-41 -59 -117 -59q-74 0 -117 59l29 23q13 -21 38 -33.5t50 -12.5q26 0 50.5 12.5t37.5 33.5z" />
    <glyph glyph-name="uni1EB2" unicode="&#x1eb2;" horiz-adv-x="338" 
d="M329 0h-56l-29 166h-150l-29 -166h-56l129 667h62zM237 215l-68 383l-68 -383h136zM143 794l-26 4q11 32 54 32q51 0 51 -42q0 -25 -21 -46h-30q24 21 24 45q0 25 -25 25q-20 0 -27 -18zM286 742q-41 -55 -117 -55q-75 0 -117 55l29 21q13 -19 38 -31t50 -12q58 0 88 43z
" />
    <glyph glyph-name="uni1EB3" unicode="&#x1eb3;" horiz-adv-x="359" 
d="M298 0h-49v51q-31 -63 -91 -63q-55 0 -88 45t-33 116t33 115.5t88 44.5q61 0 91 -60v91q0 57 -17 84.5t-59 27.5q-51 0 -94 -52l-24 36q56 59 123 59q64 0 92 -36t28 -113v-346zM167 26q58 0 82 69v106q-24 69 -82 69q-38 0 -58.5 -35t-20.5 -87q0 -51 20.5 -86.5
t58.5 -35.5zM154 684l-26 6q11 45 54 45q23 0 37 -15t14 -44q0 -36 -21 -64h-30q24 30 24 63q0 34 -25 34q-20 0 -27 -25zM297 588q-41 -59 -117 -59q-74 0 -117 59l29 23q13 -21 38 -33.5t50 -12.5q26 0 50.5 12.5t37.5 33.5z" />
    <glyph glyph-name="uni1EB4" unicode="&#x1eb4;" horiz-adv-x="338" 
d="M329 0h-56l-29 166h-150l-29 -166h-56l129 667h62zM237 215l-68 383l-68 -383h136zM285 731q-41 -43 -117 -43q-74 0 -117 43l29 16q30 -33 88 -33t88 33zM208 757q-24 0 -37 13t-21.5 26t-22.5 13q-35 0 -35 -49h-30q0 29 16.5 48t51.5 19q24 0 37 -13t21.5 -26
t22.5 -13q34 0 34 49h31q0 -29 -16.5 -48t-51.5 -19z" />
    <glyph glyph-name="uni1EB5" unicode="&#x1eb5;" horiz-adv-x="359" 
d="M298 0h-49v51q-31 -63 -91 -63q-55 0 -88 45t-33 116t33 115.5t88 44.5q61 0 91 -60v91q0 57 -17 84.5t-59 27.5q-51 0 -94 -52l-24 36q56 59 123 59q64 0 92 -36t28 -113v-346zM167 26q58 0 82 69v106q-24 69 -82 69q-38 0 -58.5 -35t-20.5 -87q0 -51 20.5 -86.5
t58.5 -35.5zM297 588q-41 -59 -117 -59q-74 0 -117 59l29 23q13 -21 38 -33.5t50 -12.5q26 0 50.5 12.5t37.5 33.5zM215 640q-19 0 -31.5 16t-17.5 36t-13 36t-19 16q-35 0 -35 -98h-30q0 59 16.5 96.5t51.5 37.5q19 0 31.5 -16t17.5 -36t13 -36t19 -16q34 0 34 98h31
q0 -59 -16.5 -96.5t-51.5 -37.5z" />
    <glyph glyph-name="uni1EB6" unicode="&#x1eb6;" horiz-adv-x="338" 
d="M329 0h-56l-29 166h-150l-29 -166h-56l129 667h62zM237 215l-68 383l-68 -383h136zM169 -177q-14 0 -25 10.5t-11 25.5t11 26t25 11q16 0 26.5 -11t10.5 -26t-10.5 -25.5t-26.5 -10.5zM286 782q-41 -59 -117 -59q-74 0 -117 59l29 23q13 -21 38 -33.5t50 -12.5
q26 0 50.5 12.5t37.5 33.5z" />
    <glyph glyph-name="uni1EB7" unicode="&#x1eb7;" horiz-adv-x="359" 
d="M298 0h-49v51q-31 -63 -91 -63q-55 0 -88 45t-33 116t33 115.5t88 44.5q61 0 91 -60v91q0 57 -17 84.5t-59 27.5q-51 0 -94 -52l-24 36q56 59 123 59q64 0 92 -36t28 -113v-346zM167 26q58 0 82 69v106q-24 69 -82 69q-38 0 -58.5 -35t-20.5 -87q0 -51 20.5 -86.5
t58.5 -35.5zM179 -177q-14 0 -25 10.5t-11 25.5t11 26t25 11q16 0 26.5 -11t10.5 -26t-10.5 -25.5t-26.5 -10.5zM296 615q-41 -59 -117 -59q-74 0 -117 59l29 23q13 -21 38 -33.5t50 -12.5q26 0 50.5 12.5t37.5 33.5z" />
    <glyph glyph-name="uni1EB8" unicode="&#x1eb8;" horiz-adv-x="341" 
d="M296 0h-228v667h228v-49h-175v-252h168v-48h-168v-269h175v-49zM190 -177q-14 0 -25 10.5t-11 25.5t11 26t25 11q16 0 26.5 -11t10.5 -26t-10.5 -25.5t-26.5 -10.5z" />
    <glyph glyph-name="uni1EB9" unicode="&#x1eb9;" 
d="M199 -12q-79 0 -118 69.5t-39 184.5q0 112 35.5 182.5t106.5 70.5q72 0 105.5 -70t33.5 -182v-17h-230q0 -90 28 -143t81 -53q46 0 79 63l34 -25q-45 -80 -116 -80zM272 265q0 35 -4 65.5t-13.5 59.5t-28 46t-43.5 17q-26 0 -44.5 -18.5t-28 -48t-13.5 -60t-4 -61.5h179z
M183 -177q-14 0 -25 10.5t-11 25.5t11 26t25 11q16 0 26.5 -11t10.5 -26t-10.5 -25.5t-26.5 -10.5z" />
    <glyph glyph-name="uni1EBA" unicode="&#x1eba;" horiz-adv-x="341" 
d="M296 0h-228v667h228v-49h-175v-252h168v-48h-168v-269h175v-49zM143 769l-26 6q11 45 54 45q23 0 37 -15t14 -44q0 -35 -21 -64h-30q24 30 24 63q0 34 -25 34q-20 0 -27 -25z" />
    <glyph glyph-name="uni1EBB" unicode="&#x1ebb;" 
d="M199 -12q-79 0 -118 69.5t-39 184.5q0 112 35.5 182.5t106.5 70.5q72 0 105.5 -70t33.5 -182v-17h-230q0 -90 28 -143t81 -53q46 0 79 63l34 -25q-45 -80 -116 -80zM272 265q0 35 -4 65.5t-13.5 59.5t-28 46t-43.5 17q-26 0 -44.5 -18.5t-28 -48t-13.5 -60t-4 -61.5h179z
M154 599l-26 6q11 45 54 45q23 0 37 -15t14 -44q0 -35 -21 -64h-30q24 30 24 63q0 34 -25 34q-20 0 -27 -25z" />
    <glyph glyph-name="uni1EBC" unicode="&#x1ebc;" horiz-adv-x="341" 
d="M296 0h-228v667h228v-49h-175v-252h168v-48h-168v-269h175v-49zM219 721q-19 0 -31.5 16.5t-17.5 35.5t-13 35.5t-19 16.5q-35 0 -35 -98h-30q0 59 16.5 96.5t51.5 37.5q19 0 31.5 -16.5t17.5 -35.5t13 -35.5t19 -16.5q34 0 34 98h31q0 -59 -16.5 -96.5t-51.5 -37.5z" />
    <glyph glyph-name="uni1EBD" unicode="&#x1ebd;" 
d="M199 -12q-79 0 -118 69.5t-39 184.5q0 112 35.5 182.5t106.5 70.5q72 0 105.5 -70t33.5 -182v-17h-230q0 -90 28 -143t81 -53q46 0 79 63l34 -25q-45 -80 -116 -80zM272 265q0 35 -4 65.5t-13.5 59.5t-28 46t-43.5 17q-26 0 -44.5 -18.5t-28 -48t-13.5 -60t-4 -61.5h179z
M224 554q-19 0 -31.5 16t-17.5 36t-13 36t-19 16q-35 0 -35 -98h-30q0 59 16.5 96.5t51.5 37.5q19 0 31.5 -16t17.5 -36t13 -36t19 -16q34 0 34 98h31q0 -59 -16.5 -96.5t-51.5 -37.5z" />
    <glyph glyph-name="uni1EBE" unicode="&#x1ebe;" horiz-adv-x="341" 
d="M278 682h-32l-64 83l-60 -83h-32l67 108h51zM387 843l-98 -108h-35l78 108h55zM296 0h-228v667h228v-49h-175v-252h168v-48h-168v-269h175v-49z" />
    <glyph glyph-name="uni1EBF" unicode="&#x1ebf;" 
d="M276 556h-32l-64 111l-60 -111h-32l67 144h51zM382 771l-98 -144h-35l78 144h55zM199 -12q-79 0 -118 69.5t-39 184.5q0 112 35.5 182.5t106.5 70.5q72 0 105.5 -70t33.5 -182v-17h-230q0 -90 28 -143t81 -53q46 0 79 63l34 -25q-45 -80 -116 -80zM272 265q0 35 -4 65.5
t-13.5 59.5t-28 46t-43.5 17q-26 0 -44.5 -18.5t-28 -48t-13.5 -60t-4 -61.5h179z" />
    <glyph glyph-name="uni1EC0" unicode="&#x1ec0;" horiz-adv-x="341" 
d="M277 682h-32l-64 83l-60 -83h-32l67 108h51zM296 0h-228v667h228v-49h-175v-252h168v-48h-168v-269h175v-49zM112 735h-36l-97 108h54z" />
    <glyph glyph-name="uni1EC1" unicode="&#x1ec1;" 
d="M276 556h-32l-64 111l-60 -111h-32l67 144h51zM199 -12q-79 0 -118 69.5t-39 184.5q0 112 35.5 182.5t106.5 70.5q72 0 105.5 -70t33.5 -182v-17h-230q0 -90 28 -143t81 -53q46 0 79 63l34 -25q-45 -80 -116 -80zM272 265q0 35 -4 65.5t-13.5 59.5t-28 46t-43.5 17
q-26 0 -44.5 -18.5t-28 -48t-13.5 -60t-4 -61.5h179zM112 627h-36l-97 144h54z" />
    <glyph glyph-name="uni1EC2" unicode="&#x1ec2;" horiz-adv-x="341" 
d="M276 682h-32l-64 83l-60 -83h-32l67 108h51zM296 0h-228v667h228v-49h-175v-252h168v-48h-168v-269h175v-49zM247 796l-26 5q11 33 54 33q51 0 51 -44q0 -27 -21 -48h-30q24 23 24 47q0 26 -25 26q-20 0 -27 -19z" />
    <glyph glyph-name="uni1EC3" unicode="&#x1ec3;" 
d="M275 556h-32l-64 111l-60 -111h-32l67 144h51zM199 -12q-79 0 -118 69.5t-39 184.5q0 112 35.5 182.5t106.5 70.5q72 0 105.5 -70t33.5 -182v-17h-230q0 -90 28 -143t81 -53q46 0 79 63l34 -25q-45 -80 -116 -80zM272 265q0 35 -4 65.5t-13.5 59.5t-28 46t-43.5 17
q-26 0 -44.5 -18.5t-28 -48t-13.5 -60t-4 -61.5h179zM216 739l-26 6q11 45 54 45q23 0 37 -15t14 -44q0 -36 -21 -64h-30q24 30 24 63q0 34 -25 34q-20 0 -27 -25z" />
    <glyph glyph-name="uni1EC4" unicode="&#x1ec4;" horiz-adv-x="341" 
d="M275 678h-32l-64 55l-60 -55h-32l67 72h51zM296 0h-228v667h228v-49h-175v-252h168v-48h-168v-269h175v-49zM219 757q-24 0 -37 13t-21.5 26t-22.5 13q-35 0 -35 -49h-30q0 29 16.5 48t51.5 19q24 0 37 -13t21.5 -26t22.5 -13q34 0 34 49h31q0 -29 -16.5 -48t-51.5 -19z
" />
    <glyph glyph-name="uni1EC5" unicode="&#x1ec5;" 
d="M275 523h-32l-64 111l-60 -111h-32l67 144h51zM199 -12q-79 0 -118 69.5t-39 184.5q0 112 35.5 182.5t106.5 70.5q72 0 105.5 -70t33.5 -182v-17h-230q0 -90 28 -143t81 -53q46 0 79 63l34 -25q-45 -80 -116 -80zM272 265q0 35 -4 65.5t-13.5 59.5t-28 46t-43.5 17
q-26 0 -44.5 -18.5t-28 -48t-13.5 -60t-4 -61.5h179zM219 682q-19 0 -31.5 16t-17.5 36t-13 36t-19 16q-35 0 -35 -98h-30q0 59 16.5 96.5t51.5 37.5q19 0 31.5 -16t17.5 -36t13 -36t19 -16q34 0 34 98h31q0 -59 -16.5 -96.5t-51.5 -37.5z" />
    <glyph glyph-name="uni1EC6" unicode="&#x1ec6;" horiz-adv-x="341" 
d="M279 723h-32l-64 111l-60 -111h-32l67 144h51zM296 0h-228v667h228v-49h-175v-252h168v-48h-168v-269h175v-49zM190 -177q-14 0 -25 10.5t-11 25.5t11 26t25 11q16 0 26.5 -11t10.5 -26t-10.5 -25.5t-26.5 -10.5z" />
    <glyph glyph-name="uni1EC7" unicode="&#x1ec7;" 
d="M279 556h-32l-64 111l-60 -111h-32l67 144h51zM199 -12q-79 0 -118 69.5t-39 184.5q0 112 35.5 182.5t106.5 70.5q72 0 105.5 -70t33.5 -182v-17h-230q0 -90 28 -143t81 -53q46 0 79 63l34 -25q-45 -80 -116 -80zM272 265q0 35 -4 65.5t-13.5 59.5t-28 46t-43.5 17
q-26 0 -44.5 -18.5t-28 -48t-13.5 -60t-4 -61.5h179zM183 -177q-14 0 -25 10.5t-11 25.5t11 26t25 11q16 0 26.5 -11t10.5 -26t-10.5 -25.5t-26.5 -10.5z" />
    <glyph glyph-name="uni1EC8" unicode="&#x1ec8;" horiz-adv-x="189" 
d="M121 0h-53v667h53v-667zM67 769l-26 6q11 45 54 45q23 0 37 -15t14 -44q0 -35 -21 -64h-30q24 30 24 63q0 34 -25 34q-20 0 -27 -25z" />
    <glyph glyph-name="uni1EC9" unicode="&#x1ec9;" horiz-adv-x="170" 
d="M110 0h-49v483h49v-483zM58 599l-26 6q11 45 54 45q23 0 37 -15t14 -44q0 -35 -21 -64h-30q24 30 24 63q0 34 -25 34q-20 0 -27 -25z" />
    <glyph glyph-name="uni1ECA" unicode="&#x1eca;" horiz-adv-x="189" 
d="M121 0h-53v667h53v-667zM93 -177q-14 0 -25 10.5t-11 25.5t11 26t25 11q16 0 26.5 -11t10.5 -26t-10.5 -25.5t-26.5 -10.5z" />
    <glyph glyph-name="uni1ECB" unicode="&#x1ecb;" horiz-adv-x="170" 
d="M85 560q-15 0 -26.5 11t-11.5 27t11.5 27t26.5 11q16 0 27 -11t11 -27t-11 -27t-27 -11zM110 0h-49v483h49v-483zM85 -177q-14 0 -25 10.5t-11 25.5t11 26t25 11q16 0 26.5 -11t10.5 -26t-10.5 -25.5t-26.5 -10.5z" />
    <glyph glyph-name="uni1ECC" unicode="&#x1ecc;" horiz-adv-x="415" 
d="M207 -12q-57 0 -93.5 48.5t-51 122.5t-14.5 174q0 99 14.5 173.5t51.5 123t93 48.5q57 0 94 -48.5t51.5 -123t14.5 -173.5q0 -100 -14.5 -174t-51.5 -122.5t-94 -48.5zM207 37q54 0 78.5 82.5t24.5 213.5q0 132 -24.5 214t-78.5 82q-53 0 -77.5 -82t-24.5 -214
q0 -130 24.5 -213t77.5 -83zM209 -177q-14 0 -25 10.5t-11 25.5t11 26t25 11q16 0 26.5 -11t10.5 -26t-10.5 -25.5t-26.5 -10.5z" />
    <glyph glyph-name="uni1ECD" unicode="&#x1ecd;" horiz-adv-x="367" 
d="M184 -12q-50 0 -83 37t-46 92t-13 125t13 124.5t46 91.5t83 37t82.5 -37t45.5 -91.5t13 -124.5t-13 -125t-45.5 -92t-82.5 -37zM184 32q88 0 88 210q0 209 -88 209q-89 0 -89 -209q0 -210 89 -210zM185 -177q-14 0 -25 10.5t-11 25.5t11 26t25 11q16 0 26.5 -11t10.5 -26
t-10.5 -25.5t-26.5 -10.5z" />
    <glyph glyph-name="uni1ECE" unicode="&#x1ece;" horiz-adv-x="415" 
d="M207 -12q-57 0 -93.5 48.5t-51 122.5t-14.5 174q0 99 14.5 173.5t51.5 123t93 48.5q57 0 94 -48.5t51.5 -123t14.5 -173.5q0 -100 -14.5 -174t-51.5 -122.5t-94 -48.5zM207 37q54 0 78.5 82.5t24.5 213.5q0 132 -24.5 214t-78.5 82q-53 0 -77.5 -82t-24.5 -214
q0 -130 24.5 -213t77.5 -83zM182 769l-26 6q11 45 54 45q23 0 37 -15t14 -44q0 -35 -21 -64h-30q24 30 24 63q0 34 -25 34q-20 0 -27 -25z" />
    <glyph glyph-name="uni1ECF" unicode="&#x1ecf;" horiz-adv-x="367" 
d="M184 -12q-50 0 -83 37t-46 92t-13 125t13 124.5t46 91.5t83 37t82.5 -37t45.5 -91.5t13 -124.5t-13 -125t-45.5 -92t-82.5 -37zM184 32q88 0 88 210q0 209 -88 209q-89 0 -89 -209q0 -210 89 -210zM157 599l-26 6q11 45 54 45q23 0 37 -15t14 -44q0 -35 -21 -64h-30
q24 30 24 63q0 34 -25 34q-20 0 -27 -25z" />
    <glyph glyph-name="uni1ED0" unicode="&#x1ed0;" horiz-adv-x="415" 
d="M299 682h-32l-64 83l-60 -83h-32l67 108h51zM408 843l-98 -108h-35l78 108h55zM207 -12q-57 0 -93.5 48.5t-51 122.5t-14.5 174q0 99 14.5 173.5t51.5 123t93 48.5q57 0 94 -48.5t51.5 -123t14.5 -173.5q0 -100 -14.5 -174t-51.5 -122.5t-94 -48.5zM207 37
q54 0 78.5 82.5t24.5 213.5q0 132 -24.5 214t-78.5 82q-53 0 -77.5 -82t-24.5 -214q0 -130 24.5 -213t77.5 -83z" />
    <glyph glyph-name="uni1ED1" unicode="&#x1ed1;" horiz-adv-x="367" 
d="M275 556h-32l-64 111l-60 -111h-32l67 144h51zM382 771l-98 -144h-35l78 144h55zM184 -12q-50 0 -83 37t-46 92t-13 125t13 124.5t46 91.5t83 37t82.5 -37t45.5 -91.5t13 -124.5t-13 -125t-45.5 -92t-82.5 -37zM184 32q88 0 88 210q0 209 -88 209q-89 0 -89 -209
q0 -210 89 -210z" />
    <glyph glyph-name="uni1ED2" unicode="&#x1ed2;" horiz-adv-x="415" 
d="M297 682h-32l-64 83l-60 -83h-32l67 108h51zM207 -12q-57 0 -93.5 48.5t-51 122.5t-14.5 174q0 99 14.5 173.5t51.5 123t93 48.5q57 0 94 -48.5t51.5 -123t14.5 -173.5q0 -100 -14.5 -174t-51.5 -122.5t-94 -48.5zM207 37q54 0 78.5 82.5t24.5 213.5q0 132 -24.5 214
t-78.5 82q-53 0 -77.5 -82t-24.5 -214q0 -130 24.5 -213t77.5 -83zM133 735h-36l-97 108h54z" />
    <glyph glyph-name="uni1ED3" unicode="&#x1ed3;" horiz-adv-x="367" 
d="M275 556h-32l-64 111l-60 -111h-32l67 144h51zM184 -12q-50 0 -83 37t-46 92t-13 125t13 124.5t46 91.5t83 37t82.5 -37t45.5 -91.5t13 -124.5t-13 -125t-45.5 -92t-82.5 -37zM184 32q88 0 88 210q0 209 -88 209q-89 0 -89 -209q0 -210 89 -210zM111 627h-36l-97 144h54z
" />
    <glyph glyph-name="uni1ED4" unicode="&#x1ed4;" horiz-adv-x="415" 
d="M298 682h-32l-64 83l-60 -83h-32l67 108h51zM207 -12q-57 0 -93.5 48.5t-51 122.5t-14.5 174q0 99 14.5 173.5t51.5 123t93 48.5q57 0 94 -48.5t51.5 -123t14.5 -173.5q0 -100 -14.5 -174t-51.5 -122.5t-94 -48.5zM207 37q54 0 78.5 82.5t24.5 213.5q0 132 -24.5 214
t-78.5 82q-53 0 -77.5 -82t-24.5 -214q0 -130 24.5 -213t77.5 -83zM269 796l-26 5q11 33 54 33q51 0 51 -44q0 -27 -21 -48h-30q24 23 24 47q0 26 -25 26q-20 0 -27 -19z" />
    <glyph glyph-name="uni1ED5" unicode="&#x1ed5;" horiz-adv-x="367" 
d="M275 556h-32l-64 111l-60 -111h-32l67 144h51zM184 -12q-50 0 -83 37t-46 92t-13 125t13 124.5t46 91.5t83 37t82.5 -37t45.5 -91.5t13 -124.5t-13 -125t-45.5 -92t-82.5 -37zM184 32q88 0 88 210q0 209 -88 209q-89 0 -89 -209q0 -210 89 -210zM216 739l-26 6
q11 45 54 45q23 0 37 -15t14 -44q0 -36 -21 -64h-30q24 30 24 63q0 34 -25 34q-20 0 -27 -25z" />
    <glyph glyph-name="uni1ED6" unicode="&#x1ed6;" horiz-adv-x="415" 
d="M302 678h-32l-64 55l-60 -55h-32l67 72h51zM207 -12q-57 0 -93.5 48.5t-51 122.5t-14.5 174q0 99 14.5 173.5t51.5 123t93 48.5q57 0 94 -48.5t51.5 -123t14.5 -173.5q0 -100 -14.5 -174t-51.5 -122.5t-94 -48.5zM207 37q54 0 78.5 82.5t24.5 213.5q0 132 -24.5 214
t-78.5 82q-53 0 -77.5 -82t-24.5 -214q0 -130 24.5 -213t77.5 -83zM246 757q-24 0 -37 13t-21.5 26t-22.5 13q-35 0 -35 -49h-30q0 29 16.5 48t51.5 19q24 0 37 -13t21.5 -26t22.5 -13q34 0 34 49h31q0 -29 -16.5 -48t-51.5 -19z" />
    <glyph glyph-name="uni1ED7" unicode="&#x1ed7;" horiz-adv-x="367" 
d="M280 523h-32l-64 111l-60 -111h-32l67 144h51zM184 -12q-50 0 -83 37t-46 92t-13 125t13 124.5t46 91.5t83 37t82.5 -37t45.5 -91.5t13 -124.5t-13 -125t-45.5 -92t-82.5 -37zM184 32q88 0 88 210q0 209 -88 209q-89 0 -89 -209q0 -210 89 -210zM223 682q-19 0 -31.5 16
t-17.5 36t-13 36t-19 16q-35 0 -35 -98h-30q0 59 16.5 96.5t51.5 37.5q19 0 31.5 -16t17.5 -36t13 -36t19 -16q34 0 34 98h31q0 -59 -16.5 -96.5t-51.5 -37.5z" />
    <glyph glyph-name="uni1ED8" unicode="&#x1ed8;" horiz-adv-x="415" 
d="M302 723h-32l-64 111l-60 -111h-32l67 144h51zM207 -12q-57 0 -93.5 48.5t-51 122.5t-14.5 174q0 99 14.5 173.5t51.5 123t93 48.5q57 0 94 -48.5t51.5 -123t14.5 -173.5q0 -100 -14.5 -174t-51.5 -122.5t-94 -48.5zM207 37q54 0 78.5 82.5t24.5 213.5q0 132 -24.5 214
t-78.5 82q-53 0 -77.5 -82t-24.5 -214q0 -130 24.5 -213t77.5 -83zM209 -177q-14 0 -25 10.5t-11 25.5t11 26t25 11q16 0 26.5 -11t10.5 -26t-10.5 -25.5t-26.5 -10.5z" />
    <glyph glyph-name="uni1ED9" unicode="&#x1ed9;" horiz-adv-x="367" 
d="M278 556h-32l-64 111l-60 -111h-32l67 144h51zM184 -12q-50 0 -83 37t-46 92t-13 125t13 124.5t46 91.5t83 37t82.5 -37t45.5 -91.5t13 -124.5t-13 -125t-45.5 -92t-82.5 -37zM184 32q88 0 88 210q0 209 -88 209q-89 0 -89 -209q0 -210 89 -210zM184 -177q-14 0 -25 10.5
t-11 25.5t11 26t25 11q16 0 26.5 -11t10.5 -26t-10.5 -25.5t-26.5 -10.5z" />
    <glyph glyph-name="uni1EDA" unicode="&#x1eda;" horiz-adv-x="415" 
d="M307 867l-98 -144h-35l78 144h55zM207 -12q-57 0 -93.5 48.5t-51 122.5t-14.5 174q0 99 14.5 173.5t51.5 123t93 48.5q84 0 125 -104q35 37 37 74q-1 -1 -8 -1q-15 0 -25 11t-10 26t10.5 26t26.5 11q18 0 30 -15.5t12 -41.5q0 -36 -18 -69.5t-44 -53.5q24 -87 24 -208
q0 -100 -14.5 -174t-51.5 -122.5t-94 -48.5zM207 37q54 0 78.5 82.5t24.5 213.5q0 132 -24.5 214t-78.5 82q-53 0 -77.5 -82t-24.5 -214q0 -130 24.5 -213t77.5 -83z" />
    <glyph glyph-name="uni1EDB" unicode="&#x1edb;" horiz-adv-x="367" 
d="M283 700l-98 -144h-35l78 144h55zM350 530q0 -69 -55 -117q30 -66 30 -171q0 -70 -13 -125t-45.5 -92t-82.5 -37t-83 37t-46 92t-13 125t13 124.5t46 91.5t83 37q59 0 95 -52q33 35 35 71q-1 -1 -8 -1q-15 0 -25 11t-10 26t10.5 26t26.5 11q18 0 30 -15.5t12 -41.5z
M184 32q88 0 88 210q0 209 -88 209q-89 0 -89 -209q0 -210 89 -210z" />
    <glyph glyph-name="uni1EDC" unicode="&#x1edc;" horiz-adv-x="415" 
d="M207 -12q-57 0 -93.5 48.5t-51 122.5t-14.5 174q0 99 14.5 173.5t51.5 123t93 48.5q84 0 125 -104q35 37 37 74q-1 -1 -8 -1q-15 0 -25 11t-10 26t10.5 26t26.5 11q18 0 30 -15.5t12 -41.5q0 -36 -18 -69.5t-44 -53.5q24 -87 24 -208q0 -100 -14.5 -174t-51.5 -122.5
t-94 -48.5zM207 37q54 0 78.5 82.5t24.5 213.5q0 132 -24.5 214t-78.5 82q-53 0 -77.5 -82t-24.5 -214q0 -130 24.5 -213t77.5 -83zM241 723h-36l-97 144h54z" />
    <glyph glyph-name="uni1EDD" unicode="&#x1edd;" horiz-adv-x="367" 
d="M350 530q0 -69 -55 -117q30 -66 30 -171q0 -70 -13 -125t-45.5 -92t-82.5 -37t-83 37t-46 92t-13 125t13 124.5t46 91.5t83 37q59 0 95 -52q33 35 35 71q-1 -1 -8 -1q-15 0 -25 11t-10 26t10.5 26t26.5 11q18 0 30 -15.5t12 -41.5zM184 32q88 0 88 210q0 209 -88 209
q-89 0 -89 -209q0 -210 89 -210zM218 556h-36l-97 144h54z" />
    <glyph glyph-name="uni1EDE" unicode="&#x1ede;" horiz-adv-x="415" 
d="M207 -12q-57 0 -93.5 48.5t-51 122.5t-14.5 174q0 99 14.5 173.5t51.5 123t93 48.5q84 0 125 -104q35 37 37 74q-1 -1 -8 -1q-15 0 -25 11t-10 26t10.5 26t26.5 11q18 0 30 -15.5t12 -41.5q0 -36 -18 -69.5t-44 -53.5q24 -87 24 -208q0 -100 -14.5 -174t-51.5 -122.5
t-94 -48.5zM207 37q54 0 78.5 82.5t24.5 213.5q0 132 -24.5 214t-78.5 82q-53 0 -77.5 -82t-24.5 -214q0 -130 24.5 -213t77.5 -83zM180 769l-26 6q11 45 54 45q23 0 37 -15t14 -44q0 -35 -21 -64h-30q24 30 24 63q0 34 -25 34q-20 0 -27 -25z" />
    <glyph glyph-name="uni1EDF" unicode="&#x1edf;" horiz-adv-x="367" 
d="M350 530q0 -69 -55 -117q30 -66 30 -171q0 -70 -13 -125t-45.5 -92t-82.5 -37t-83 37t-46 92t-13 125t13 124.5t46 91.5t83 37q59 0 95 -52q33 35 35 71q-1 -1 -8 -1q-15 0 -25 11t-10 26t10.5 26t26.5 11q18 0 30 -15.5t12 -41.5zM184 32q88 0 88 210q0 209 -88 209
q-89 0 -89 -209q0 -210 89 -210zM157 599l-26 6q11 45 54 45q23 0 37 -15t14 -44q0 -35 -21 -64h-30q24 30 24 63q0 34 -25 34q-20 0 -27 -25z" />
    <glyph glyph-name="uni1EE0" unicode="&#x1ee0;" horiz-adv-x="415" 
d="M207 -12q-57 0 -93.5 48.5t-51 122.5t-14.5 174q0 99 14.5 173.5t51.5 123t93 48.5q84 0 125 -104q35 37 37 74q-1 -1 -8 -1q-15 0 -25 11t-10 26t10.5 26t26.5 11q18 0 30 -15.5t12 -41.5q0 -36 -18 -69.5t-44 -53.5q24 -87 24 -208q0 -100 -14.5 -174t-51.5 -122.5
t-94 -48.5zM207 37q54 0 78.5 82.5t24.5 213.5q0 132 -24.5 214t-78.5 82q-53 0 -77.5 -82t-24.5 -214q0 -130 24.5 -213t77.5 -83zM247 721q-19 0 -31.5 16.5t-17.5 35.5t-13 35.5t-19 16.5q-35 0 -35 -98h-30q0 59 16.5 96.5t51.5 37.5q19 0 31.5 -16.5t17.5 -35.5
t13 -35.5t19 -16.5q34 0 34 98h31q0 -59 -16.5 -96.5t-51.5 -37.5z" />
    <glyph glyph-name="uni1EE1" unicode="&#x1ee1;" horiz-adv-x="367" 
d="M350 530q0 -69 -55 -117q30 -66 30 -171q0 -70 -13 -125t-45.5 -92t-82.5 -37t-83 37t-46 92t-13 125t13 124.5t46 91.5t83 37q59 0 95 -52q33 35 35 71q-1 -1 -8 -1q-15 0 -25 11t-10 26t10.5 26t26.5 11q18 0 30 -15.5t12 -41.5zM184 32q88 0 88 210q0 209 -88 209
q-89 0 -89 -209q0 -210 89 -210zM218 554q-19 0 -31.5 16t-17.5 36t-13 36t-19 16q-35 0 -35 -98h-30q0 59 16.5 96.5t51.5 37.5q19 0 31.5 -16t17.5 -36t13 -36t19 -16q34 0 34 98h31q0 -59 -16.5 -96.5t-51.5 -37.5z" />
    <glyph glyph-name="uni1EE2" unicode="&#x1ee2;" horiz-adv-x="415" 
d="M207 -12q-57 0 -93.5 48.5t-51 122.5t-14.5 174q0 99 14.5 173.5t51.5 123t93 48.5q84 0 125 -104q35 37 37 74q-1 -1 -8 -1q-15 0 -25 11t-10 26t10.5 26t26.5 11q18 0 30 -15.5t12 -41.5q0 -36 -18 -69.5t-44 -53.5q24 -87 24 -208q0 -100 -14.5 -174t-51.5 -122.5
t-94 -48.5zM207 37q54 0 78.5 82.5t24.5 213.5q0 132 -24.5 214t-78.5 82q-53 0 -77.5 -82t-24.5 -214q0 -130 24.5 -213t77.5 -83zM209 -177q-14 0 -25 10.5t-11 25.5t11 26t25 11q16 0 26.5 -11t10.5 -26t-10.5 -25.5t-26.5 -10.5z" />
    <glyph glyph-name="uni1EE3" unicode="&#x1ee3;" horiz-adv-x="367" 
d="M350 530q0 -69 -55 -117q30 -66 30 -171q0 -70 -13 -125t-45.5 -92t-82.5 -37t-83 37t-46 92t-13 125t13 124.5t46 91.5t83 37q59 0 95 -52q33 35 35 71q-1 -1 -8 -1q-15 0 -25 11t-10 26t10.5 26t26.5 11q18 0 30 -15.5t12 -41.5zM184 32q88 0 88 210q0 209 -88 209
q-89 0 -89 -209q0 -210 89 -210zM185 -177q-14 0 -25 10.5t-11 25.5t11 26t25 11q16 0 26.5 -11t10.5 -26t-10.5 -25.5t-26.5 -10.5z" />
    <glyph glyph-name="uni1EE4" unicode="&#x1ee4;" horiz-adv-x="416" 
d="M208 -12q-65 0 -102.5 43.5t-37.5 131.5v504h53v-505q0 -125 87 -125t87 125v505h54v-504q0 -88 -37.5 -131.5t-103.5 -43.5zM210 -177q-14 0 -25 10.5t-11 25.5t11 26t25 11q16 0 26.5 -11t10.5 -26t-10.5 -25.5t-26.5 -10.5z" />
    <glyph glyph-name="uni1EE5" unicode="&#x1ee5;" 
d="M300 0h-50v68q-17 -35 -44.5 -57.5t-60.5 -22.5q-44 0 -64 24.5t-20 78.5v392h49v-383q0 -68 49 -68q29 0 53.5 25t37.5 60v366h50v-483zM180 -177q-14 0 -25 10.5t-11 25.5t11 26t25 11q16 0 26.5 -11t10.5 -26t-10.5 -25.5t-26.5 -10.5z" />
    <glyph glyph-name="uni1EE6" unicode="&#x1ee6;" horiz-adv-x="416" 
d="M208 -12q-65 0 -102.5 43.5t-37.5 131.5v504h53v-505q0 -125 87 -125t87 125v505h54v-504q0 -88 -37.5 -131.5t-103.5 -43.5zM181 769l-26 6q11 45 54 45q23 0 37 -15t14 -44q0 -35 -21 -64h-30q24 30 24 63q0 34 -25 34q-20 0 -27 -25z" />
    <glyph glyph-name="uni1EE7" unicode="&#x1ee7;" 
d="M300 0h-50v68q-17 -35 -44.5 -57.5t-60.5 -22.5q-44 0 -64 24.5t-20 78.5v392h49v-383q0 -68 49 -68q29 0 53.5 25t37.5 60v366h50v-483zM153 599l-26 6q11 45 54 45q23 0 37 -15t14 -44q0 -35 -21 -64h-30q24 30 24 63q0 34 -25 34q-20 0 -27 -25z" />
    <glyph glyph-name="uni1EE8" unicode="&#x1ee8;" horiz-adv-x="416" 
d="M308 867l-98 -144h-35l78 144h55zM441 729q0 -40 -24 -78.5t-68 -64.5v-423q0 -88 -37.5 -131.5t-103.5 -43.5q-65 0 -102.5 43.5t-37.5 131.5v504h53v-505q0 -125 87 -125t87 125v505h54v-44q24 17 39.5 43.5t16.5 48.5q-2 -2 -8 -2q-16 0 -25.5 10.5t-9.5 26.5
q0 15 10 25.5t26 10.5q18 0 30.5 -15t12.5 -42z" />
    <glyph glyph-name="uni1EE9" unicode="&#x1ee9;" 
d="M280 700l-98 -144h-35l78 144h55zM300 0h-50v68q-17 -35 -44.5 -57.5t-60.5 -22.5q-44 0 -64 24.5t-20 78.5v392h49v-383q0 -68 49 -68q29 0 53.5 25t37.5 60v366h50v-45q40 39 42 79q-6 -1 -8 -1q-16 0 -26 10.5t-10 25.5t10.5 26t26.5 11q19 0 31 -15t12 -42
q0 -80 -78 -134v-398z" />
    <glyph glyph-name="uni1EEA" unicode="&#x1eea;" horiz-adv-x="416" 
d="M242 723h-36l-97 144h54zM441 729q0 -40 -24 -78.5t-68 -64.5v-423q0 -88 -37.5 -131.5t-103.5 -43.5q-65 0 -102.5 43.5t-37.5 131.5v504h53v-505q0 -125 87 -125t87 125v505h54v-44q24 17 39.5 43.5t16.5 48.5q-2 -2 -8 -2q-16 0 -25.5 10.5t-9.5 26.5q0 15 10 25.5
t26 10.5q18 0 30.5 -15t12.5 -42z" />
    <glyph glyph-name="uni1EEB" unicode="&#x1eeb;" 
d="M214 556h-36l-97 144h54zM300 0h-50v68q-17 -35 -44.5 -57.5t-60.5 -22.5q-44 0 -64 24.5t-20 78.5v392h49v-383q0 -68 49 -68q29 0 53.5 25t37.5 60v366h50v-45q40 39 42 79q-6 -1 -8 -1q-16 0 -26 10.5t-10 25.5t10.5 26t26.5 11q19 0 31 -15t12 -42q0 -80 -78 -134
v-398z" />
    <glyph glyph-name="uni1EEC" unicode="&#x1eec;" horiz-adv-x="416" 
d="M181 769l-26 6q11 45 54 45q23 0 37 -15t14 -44q0 -35 -21 -64h-30q24 30 24 63q0 34 -25 34q-20 0 -27 -25zM441 729q0 -40 -24 -78.5t-68 -64.5v-423q0 -88 -37.5 -131.5t-103.5 -43.5q-65 0 -102.5 43.5t-37.5 131.5v504h53v-505q0 -125 87 -125t87 125v505h54v-44
q24 17 39.5 43.5t16.5 48.5q-2 -2 -8 -2q-16 0 -25.5 10.5t-9.5 26.5q0 15 10 25.5t26 10.5q18 0 30.5 -15t12.5 -42z" />
    <glyph glyph-name="uni1EED" unicode="&#x1eed;" 
d="M153 599l-26 6q11 45 54 45q23 0 37 -15t14 -44q0 -35 -21 -64h-30q24 30 24 63q0 34 -25 34q-20 0 -27 -25zM300 0h-50v68q-17 -35 -44.5 -57.5t-60.5 -22.5q-44 0 -64 24.5t-20 78.5v392h49v-383q0 -68 49 -68q29 0 53.5 25t37.5 60v366h50v-45q40 39 42 79
q-6 -1 -8 -1q-16 0 -26 10.5t-10 25.5t10.5 26t26.5 11q19 0 31 -15t12 -42q0 -80 -78 -134v-398z" />
    <glyph glyph-name="uni1EEE" unicode="&#x1eee;" horiz-adv-x="416" 
d="M441 729q0 -40 -24 -78.5t-68 -64.5v-423q0 -88 -37.5 -131.5t-103.5 -43.5q-65 0 -102.5 43.5t-37.5 131.5v504h53v-505q0 -125 87 -125t87 125v505h54v-44q24 17 39.5 43.5t16.5 48.5q-2 -2 -8 -2q-16 0 -25.5 10.5t-9.5 26.5q0 15 10 25.5t26 10.5q18 0 30.5 -15
t12.5 -42zM247 721q-19 0 -31.5 16.5t-17.5 35.5t-13 35.5t-19 16.5q-35 0 -35 -98h-30q0 59 16.5 96.5t51.5 37.5q19 0 31.5 -16.5t17.5 -35.5t13 -35.5t19 -16.5q34 0 34 98h31q0 -59 -16.5 -96.5t-51.5 -37.5z" />
    <glyph glyph-name="uni1EEF" unicode="&#x1eef;" 
d="M300 0h-50v68q-17 -35 -44.5 -57.5t-60.5 -22.5q-44 0 -64 24.5t-20 78.5v392h49v-383q0 -68 49 -68q29 0 53.5 25t37.5 60v366h50v-45q40 39 42 79q-6 -1 -8 -1q-16 0 -26 10.5t-10 25.5t10.5 26t26.5 11q19 0 31 -15t12 -42q0 -80 -78 -134v-398zM219 554
q-19 0 -31.5 16t-17.5 36t-13 36t-19 16q-35 0 -35 -98h-30q0 59 16.5 96.5t51.5 37.5q19 0 31.5 -16t17.5 -36t13 -36t19 -16q34 0 34 98h31q0 -59 -16.5 -96.5t-51.5 -37.5z" />
    <glyph glyph-name="uni1EF0" unicode="&#x1ef0;" horiz-adv-x="416" 
d="M210 -177q-14 0 -25 10.5t-11 25.5t11 26t25 11q16 0 26.5 -11t10.5 -26t-10.5 -25.5t-26.5 -10.5zM441 729q0 -40 -24 -78.5t-68 -64.5v-423q0 -88 -37.5 -131.5t-103.5 -43.5q-65 0 -102.5 43.5t-37.5 131.5v504h53v-505q0 -125 87 -125t87 125v505h54v-44
q24 17 39.5 43.5t16.5 48.5q-2 -2 -8 -2q-16 0 -25.5 10.5t-9.5 26.5q0 15 10 25.5t26 10.5q18 0 30.5 -15t12.5 -42z" />
    <glyph glyph-name="uni1EF1" unicode="&#x1ef1;" 
d="M180 -177q-14 0 -25 10.5t-11 25.5t11 26t25 11q16 0 26.5 -11t10.5 -26t-10.5 -25.5t-26.5 -10.5zM300 0h-50v68q-17 -35 -44.5 -57.5t-60.5 -22.5q-44 0 -64 24.5t-20 78.5v392h49v-383q0 -68 49 -68q29 0 53.5 25t37.5 60v366h50v-45q40 39 42 79q-6 -1 -8 -1
q-16 0 -26 10.5t-10 25.5t10.5 26t26.5 11q19 0 31 -15t12 -42q0 -80 -78 -134v-398z" />
    <glyph glyph-name="Ygrave" unicode="&#x1ef2;" horiz-adv-x="347" 
d="M200 0h-53v286l-146 381h58l115 -323l116 323h56l-146 -381v-286zM207 723h-36l-97 144h54z" />
    <glyph glyph-name="ygrave" unicode="&#x1ef3;" horiz-adv-x="302" 
d="M30 -189l9 43q10 -6 24 -6q18 0 27 11t16 38l21 86l-114 500h53l85 -419l86 419h53l-141 -597q-11 -46 -30.5 -64t-52.5 -18q-22 0 -36 7zM185 556h-36l-97 144h54z" />
    <glyph glyph-name="thinspace" unicode="&#x2009;" horiz-adv-x="35" 
 />
    <glyph glyph-name="endash" unicode="&#x2013;" horiz-adv-x="460" 
d="M430 219h-400v46h400v-46z" />
    <glyph glyph-name="emdash" unicode="&#x2014;" horiz-adv-x="640" 
d="M610 219h-580v46h580v-46z" />
    <glyph glyph-name="afii00208" unicode="&#x2015;" horiz-adv-x="460" 
d="M430 219h-400v46h400v-46z" />
    <glyph glyph-name="quoteleft" unicode="&#x2018;" horiz-adv-x="218" 
d="M64 544q0 40 20 76t50 57l28 -23q-24 -17 -40.5 -43t-17.5 -50q2 2 10 2q17 0 28 -12t11 -29t-12 -29t-29 -12q-21 0 -34.5 16.5t-13.5 46.5z" />
    <glyph glyph-name="quoteright" unicode="&#x2019;" horiz-adv-x="218" 
d="M155 614q0 -40 -20 -76t-50 -57l-28 23q24 17 40.5 43t17.5 50q-2 -2 -10 -2q-16 0 -27.5 12t-11.5 29t12 29t30 12q20 0 33.5 -17t13.5 -46z" />
    <glyph glyph-name="quotesinglbase" unicode="&#x201a;" horiz-adv-x="217" 
d="M155 12q0 -40 -20 -76.5t-50 -57.5l-28 23q24 17 40 43.5t18 49.5h-4q-4 -1 -6 -1q-16 0 -27.5 11.5t-11.5 28.5t12 29.5t30 12.5q20 0 33.5 -17t13.5 -46z" />
    <glyph glyph-name="quotereversed" unicode="&#x201b;" horiz-adv-x="218" 
d="M63 614q0 29 13.5 46t33.5 17q18 0 29.5 -12t11.5 -29t-11 -29t-27 -12q-8 0 -10 2q1 -24 17.5 -50t40.5 -43l-29 -23q-29 21 -49 57.5t-20 75.5z" />
    <glyph glyph-name="quotedblleft" unicode="&#x201c;" horiz-adv-x="357" 
d="M63 544q0 39 20 75.5t49 57.5l29 -23q-24 -17 -40.5 -43t-17.5 -50q2 2 10 2q16 0 27 -12t11 -29t-11.5 -29t-29.5 -12q-20 0 -33.5 16.5t-13.5 46.5zM201 544q0 39 20 75t50 58l29 -23q-24 -17 -40.5 -43t-17.5 -50q2 2 9 2q17 0 28 -12t11 -29t-11.5 -29t-29.5 -12
q-20 0 -34 16.5t-14 46.5z" />
    <glyph glyph-name="quotedblright" unicode="&#x201d;" horiz-adv-x="357" 
d="M294 614q0 -40 -20 -76t-50 -57l-28 23q24 17 40 43t17 50q0 -2 -9 -2q-17 0 -28 12t-11 29t12 29t29 12q21 0 34.5 -17t13.5 -46zM155 614q0 -40 -20 -76t-50 -57l-28 23q24 17 40.5 43t17.5 50q-2 -2 -10 -2q-16 0 -27.5 12t-11.5 29t12 29t30 12q20 0 33.5 -17
t13.5 -46z" />
    <glyph glyph-name="quotedblbase" unicode="&#x201e;" horiz-adv-x="356" 
d="M155 12q0 -40 -20 -76.5t-50 -57.5l-28 23q24 17 40 43.5t18 49.5h-4q-4 -1 -6 -1q-16 0 -27.5 11.5t-11.5 28.5t12 29.5t30 12.5q20 0 33.5 -17t13.5 -46zM294 12q0 -40 -20 -76.5t-50 -57.5l-28 23q24 17 40 43.5t17 49.5q-6 -1 -9 -1q-17 0 -28 11.5t-11 28.5t12 29.5
t29 12.5q21 0 34.5 -17t13.5 -46z" />
    <glyph glyph-name="dagger" unicode="&#x2020;" horiz-adv-x="256" 
d="M232 536l-89 4l4 -213h-38l4 213l-89 -4v34l89 -3l-4 110h38l-4 -110l89 3v-34z" />
    <glyph glyph-name="daggerdbl" unicode="&#x2021;" horiz-adv-x="256" 
d="M232 570v-34l-89 4v-222l89 4v-34l-89 3l4 -111h-38l4 111l-89 -3v34l89 -4v222l-89 -4v34l89 -3l-4 110h38l-4 -110z" />
    <glyph glyph-name="bullet" unicode="&#x2022;" horiz-adv-x="358" 
d="M282 242q0 -41 -30 -71t-72 -30t-72 30t-30 71q0 42 30 72t72 30t72 -30t30 -72z" />
    <glyph glyph-name="ellipsis" unicode="&#x2026;" horiz-adv-x="652" 
d="M151 33q0 -17 -12.5 -30t-29.5 -13q-18 0 -30.5 13t-12.5 30t12.5 29.5t30.5 12.5q17 0 29.5 -12.5t12.5 -29.5zM368 33q0 -17 -12.5 -30t-29.5 -13t-29.5 13t-12.5 30t12.5 29.5t29.5 12.5t29.5 -12.5t12.5 -29.5zM586 33q0 -17 -12.5 -30t-30.5 -13q-17 0 -29.5 13
t-12.5 30t12.5 29.5t29.5 12.5q18 0 30.5 -12.5t12.5 -29.5z" />
    <glyph glyph-name="perthousand" unicode="&#x2030;" horiz-adv-x="828" 
d="M266 512q0 -71 -32 -116.5t-85 -45.5t-85 45.5t-32 116.5q0 72 32.5 118.5t84.5 46.5q53 0 85 -46.5t32 -118.5zM436 667l-272 -667h-36l271 667h37zM530 151q0 -71 -32 -117t-85 -46t-85 46t-32 117t32 117.5t85 46.5t85 -46t32 -118zM223 512q0 55 -19.5 91.5
t-54.5 36.5q-34 0 -54 -36.5t-20 -91.5q0 -53 20 -89t54 -36q35 0 54.5 36t19.5 89zM487 151q0 55 -19.5 91t-54.5 36t-54.5 -36t-19.5 -91q0 -54 19.5 -90t54.5 -36t54.5 36t19.5 90zM796 151q0 -71 -32 -117t-85 -46q-52 0 -84 46t-32 117q0 72 32 118t84 46q53 0 85 -46
t32 -118zM753 151q0 55 -19.5 91t-54.5 36t-54.5 -36t-19.5 -91q0 -54 19.5 -90t54.5 -36t54.5 36t19.5 90z" />
    <glyph glyph-name="guilsinglleft" unicode="&#x2039;" horiz-adv-x="196" 
d="M166 63h-46l-90 180l90 177h46l-90 -177z" />
    <glyph glyph-name="guilsinglright" unicode="&#x203a;" horiz-adv-x="196" 
d="M166 243l-90 -180h-46l90 180l-90 177h46z" />
    <glyph glyph-name="uni203E" unicode="&#x203e;" horiz-adv-x="244" 
d="M244 577h-244v36h244v-36z" />
    <glyph glyph-name="fraction" unicode="&#x2044;" horiz-adv-x="108" 
d="M208 667l-272 -667h-36l271 667h37z" />
    <glyph glyph-name="zerosuperior" unicode="&#x2070;" horiz-adv-x="252" 
d="M234 621q0 -38 -5.5 -72.5t-17 -66t-33 -50t-51.5 -18.5q-57 0 -82.5 61.5t-25.5 145.5q0 85 25.5 145.5t82.5 60.5q30 0 51.5 -18.5t33 -49.5t17 -65.5t5.5 -72.5zM189 621q0 170 -62 170q-64 0 -64 -170q0 -171 64 -171q62 0 62 171z" />
    <glyph glyph-name="foursuperior" unicode="&#x2074;" horiz-adv-x="252" 
d="M236 529h-38v-108h-41v108h-138v36l127 256h52v-257h38v-35zM157 564v205l-101 -205h101z" />
    <glyph glyph-name="fivesuperior" unicode="&#x2075;" horiz-adv-x="252" 
d="M227 544q0 -55 -28.5 -92.5t-74.5 -37.5q-67 0 -101 67l31 23q23 -54 69 -54q27 0 44 28t17 66q0 46 -15.5 69.5t-41.5 23.5q-34 0 -61 -40l-32 13v211h176v-36h-134v-148q23 34 63 34q38 0 63 -33.5t25 -93.5z" />
    <glyph glyph-name="sixsuperior" unicode="&#x2076;" horiz-adv-x="252" 
d="M228 542q0 -53 -25.5 -90.5t-72.5 -37.5q-107 0 -107 207q0 89 27.5 147.5t87.5 58.5q56 0 82 -51l-25 -28q-18 43 -56 43q-27 0 -44 -27t-22.5 -61.5t-5.5 -76.5v-14q9 25 28.5 42.5t45.5 17.5q38 0 62.5 -34t24.5 -96zM185 542q0 94 -56 94q-39 0 -62 -65
q5 -121 61 -121q29 0 43 27t14 65z" />
    <glyph glyph-name="sevensuperior" unicode="&#x2077;" horiz-adv-x="226" 
d="M207 792l-106 -371h-42l107 364h-147v36h188v-29z" />
    <glyph glyph-name="eightsuperior" unicode="&#x2078;" horiz-adv-x="252" 
d="M227 518q0 -48 -27 -76t-74 -28q-48 0 -75 27.5t-27 76.5q0 36 21.5 66t49.5 43q-26 12 -45.5 38.5t-19.5 61.5q0 48 27.5 74t68.5 26t68.5 -26t27.5 -74q0 -35 -19.5 -61.5t-45.5 -38.5q27 -12 48.5 -42.5t21.5 -66.5zM180 722q0 33 -14.5 51.5t-39.5 18.5t-39.5 -18.5
t-14.5 -51.5t19.5 -53.5t34.5 -25.5q15 4 34.5 25t19.5 54zM184 521q0 37 -22 63t-36 27q-14 -1 -36 -27t-22 -64q0 -34 16.5 -53t41.5 -19t41.5 19.5t16.5 53.5z" />
    <glyph glyph-name="ninesuperior" unicode="&#x2079;" horiz-adv-x="252" 
d="M25 698q0 53 26.5 91t72.5 38q107 0 107 -207q0 -89 -27.5 -147.5t-88.5 -58.5q-55 0 -81 51l25 28q18 -43 56 -43t55 49.5t17 117.5v12q-9 -25 -29 -42.5t-45 -17.5q-38 0 -63 34t-25 95zM69 699q0 -94 55 -94q40 0 63 66q-3 120 -62 120q-28 0 -42 -27t-14 -65z" />
    <glyph glyph-name="parenleftsuperior" unicode="&#x207d;" horiz-adv-x="121" 
d="M110 365l-21 -9q-61 122 -61 265t61 265l21 -8q-47 -124 -47 -257q0 -135 47 -256z" />
    <glyph glyph-name="parenrightsuperior" unicode="&#x207e;" horiz-adv-x="121" 
d="M92 621q0 -143 -61 -265l-21 9q48 125 48 256t-48 257l21 8q61 -122 61 -265z" />
    <glyph glyph-name="nsuperior" unicode="&#x207f;" horiz-adv-x="277" 
d="M229 326h-41v239q0 49 -36 49q-19 0 -36 -16t-27 -38v-234h-40v314h40v-44q12 21 33 36.5t43 15.5q38 0 51 -19.5t13 -57.5v-245z" />
    <glyph glyph-name="zeroinferior" unicode="&#x2080;" horiz-adv-x="252" 
d="M234 54q0 -38 -5.5 -72.5t-17 -66t-33 -50t-51.5 -18.5q-57 0 -82.5 61.5t-25.5 145.5q0 85 25.5 145.5t82.5 60.5q30 0 51.5 -18.5t33 -49.5t17 -65.5t5.5 -72.5zM189 54q0 170 -62 170q-64 0 -64 -170q0 -171 64 -171q62 0 62 171z" />
    <glyph glyph-name="oneinferior" unicode="&#x2081;" horiz-adv-x="203" 
d="M146 -146h-43v344l-60 -65l-26 26l91 95h38v-400z" />
    <glyph glyph-name="twoinferior" unicode="&#x2082;" horiz-adv-x="252" 
d="M226 -146h-193v33q96 139 122 185.5t26 86.5q0 30 -15.5 47.5t-39.5 17.5q-45 0 -69 -52l-30 23q36 65 100 65q43 0 70.5 -27t27.5 -73q0 -43 -27 -93t-114 -177h142v-36z" />
    <glyph glyph-name="threeinferior" unicode="&#x2083;" horiz-adv-x="252" 
d="M228 -38q0 -52 -26.5 -83.5t-76.5 -31.5q-35 0 -61.5 19t-40.5 48l31 24q24 -55 69 -55q62 0 62 81q0 42 -19 60.5t-45 18.5q-21 0 -25 -1v36q5 -1 23 -1q28 0 45 18.5t17 53.5q0 75 -57 75q-42 0 -67 -50l-30 23q15 29 41 46t57 17q44 0 71 -26.5t27 -79.5
q0 -33 -17.5 -59t-43.5 -34q26 -6 46 -33t20 -66z" />
    <glyph glyph-name="fourinferior" unicode="&#x2084;" horiz-adv-x="252" 
d="M236 -38h-38v-108h-41v108h-138v36l127 256h52v-257h38v-35zM157 -3v205l-101 -205h101z" />
    <glyph glyph-name="fiveinferior" unicode="&#x2085;" horiz-adv-x="252" 
d="M227 -23q0 -55 -28.5 -92.5t-74.5 -37.5q-67 0 -101 67l31 23q23 -54 69 -54q27 0 44 28t17 66q0 46 -15.5 69.5t-41.5 23.5q-34 0 -61 -40l-32 13v211h176v-36h-134v-148q23 34 63 34q38 0 63 -33.5t25 -93.5z" />
    <glyph glyph-name="sixinferior" unicode="&#x2086;" horiz-adv-x="252" 
d="M228 -25q0 -53 -25.5 -90.5t-72.5 -37.5q-107 0 -107 207q0 89 27.5 147.5t87.5 58.5q56 0 82 -51l-25 -28q-18 43 -56 43q-27 0 -44 -27t-22.5 -61.5t-5.5 -76.5v-14q9 25 28.5 42.5t45.5 17.5q38 0 62.5 -34t24.5 -96zM185 -25q0 94 -56 94q-39 0 -62 -65
q5 -121 61 -121q29 0 43 27t14 65z" />
    <glyph glyph-name="seveninferior" unicode="&#x2087;" horiz-adv-x="226" 
d="M207 225l-106 -371h-42l107 364h-147v36h188v-29z" />
    <glyph glyph-name="eightinferior" unicode="&#x2088;" horiz-adv-x="252" 
d="M227 -49q0 -48 -27 -76t-74 -28q-48 0 -75 27.5t-27 76.5q0 36 21.5 66t49.5 43q-26 12 -45.5 38.5t-19.5 61.5q0 48 27.5 74t68.5 26t68.5 -26t27.5 -74q0 -35 -19.5 -61.5t-45.5 -38.5q27 -12 48.5 -42.5t21.5 -66.5zM180 155q0 33 -14.5 51.5t-39.5 18.5t-39.5 -18.5
t-14.5 -51.5t19.5 -53.5t34.5 -25.5q15 4 34.5 25t19.5 54zM184 -46q0 37 -22 63t-36 27q-14 -1 -36 -27t-22 -64q0 -34 16.5 -53t41.5 -19t41.5 19.5t16.5 53.5z" />
    <glyph glyph-name="nineinferior" unicode="&#x2089;" horiz-adv-x="252" 
d="M25 131q0 53 26.5 91t72.5 38q107 0 107 -207q0 -89 -27.5 -147.5t-88.5 -58.5q-55 0 -81 51l25 28q18 -43 56 -43t55 49.5t17 117.5v12q-9 -25 -29 -42.5t-45 -17.5q-38 0 -63 34t-25 95zM69 132q0 -94 55 -94q40 0 63 66q-3 120 -62 120q-28 0 -42 -27t-14 -65z" />
    <glyph glyph-name="parenleftinferior" unicode="&#x208d;" horiz-adv-x="121" 
d="M110 -202l-21 -9q-61 122 -61 265t61 265l21 -8q-47 -124 -47 -257q0 -135 47 -256z" />
    <glyph glyph-name="parenrightinferior" unicode="&#x208e;" horiz-adv-x="121" 
d="M92 54q0 -143 -61 -265l-21 9q48 125 48 256t-48 257l21 8q61 -122 61 -265z" />
    <glyph glyph-name="colonmonetary" unicode="&#x20a1;" horiz-adv-x="343" 
d="M199 -12q-20 0 -38 6l-19 -94h-38l24 112q-21 16 -36 42l-32 -154h-38l44 212q-27 85 -27 221q0 148 35 241.5t110 102.5l19 91h37l-19 -92q24 -4 41 -17l23 109h37l-29 -140q15 -21 31 -66l-46 -17q-1 1 -1 3l-105 -505q12 -6 27 -6q34 0 52 26.5t29 76.5l47 -18
q-33 -134 -128 -134zM112 149q11 -50 29 -76l110 530q-18 21 -40 25zM96 333q0 -26 2 -70l75 360q-77 -37 -77 -290z" />
    <glyph glyph-name="frenchfranc" unicode="&#x20a3;" horiz-adv-x="359" 
d="M140 0h-53v151h-63v36h63v480h228v-49h-175v-252h168v-48h-168v-131h110v-36h-110v-151z" />
    <glyph glyph-name="lira" unicode="&#x20a4;" horiz-adv-x="361" 
d="M30 325v37h49q-29 62 -29 129q0 76 39 131t104 55q48 0 80.5 -28t45.5 -78l-42 -22q-13 38 -32 59.5t-51 21.5q-35 0 -61 -38.5t-26 -102.5q0 -67 31 -127h104v-37h-84q21 -42 27 -79h57v-36h-55q-1 -40 -20.5 -83t-48.5 -67q19 11 38 11q23 0 53.5 -17t46.5 -17
q41 0 65 36l24 -41q-12 -18 -38.5 -31t-53.5 -13q-33 0 -62.5 20t-48.5 20q-31 0 -75 -35l-23 42q42 28 67 74.5t25 95.5v5h-106v36h101q-5 26 -34 79h-67z" />
    <glyph glyph-name="uni20A6" unicode="&#x20a6;" horiz-adv-x="452" 
d="M367 0h-52l-84 247h-91v-247h-53v247h-63v36h63v109h-63v36h63v239h53l81 -239h92v239h54v-239h61v-36h-61v-109h61v-36h-61v-247zM233 392l37 -109h43v109h-80zM140 392v-109h79l-37 109h-42zM282 247l31 -91v91h-31zM140 518v-90h30z" />
    <glyph glyph-name="peseta" unicode="&#x20a7;" horiz-adv-x="421" 
d="M410 452h-59q-5 -76 -42 -124.5t-105 -48.5h-64v-279h-54v452h-62v39h62v176h118q69 0 106 -49.5t41 -126.5h59v-39zM140 618v-127h154q-3 59 -26.5 93t-66.5 34h-61zM201 327q42 0 66 34t27 91h-154v-125h61z" />
    <glyph glyph-name="rupee" unicode="&#x20a8;" horiz-adv-x="642" 
d="M494 -12q-77 0 -121 60l28 34q39 -53 90 -53q31 0 53 22.5t22 58.5q0 33 -18.5 59.5t-44.5 46l-52 40t-44.5 53t-18.5 74.5q0 49 33 80.5t83 31.5q64 0 105 -52l-26 -33q-31 44 -78 44q-31 0 -50.5 -20.5t-19.5 -50.5q0 -31 18.5 -56t44.5 -44.5l52.5 -40.5t45 -54.5
t18.5 -76.5q0 -55 -35 -89t-85 -34zM339 0h-59l-93 279h-66v-279h-53v667h119q65 0 105.5 -51.5t40.5 -141.5q0 -82 -28.5 -126.5t-66.5 -57.5zM182 327q47 0 71 39.5t24 106.5q0 66 -24 105.5t-71 39.5h-61v-291h61z" />
    <glyph glyph-name="uni20A9" unicode="&#x20a9;" horiz-adv-x="547" 
d="M409 0h-59l-35 247h-84l-34 -247h-59l-38 247h-71v36h65l-17 109h-48v36h43l-37 239h57l32 -239h91l34 239h49l33 -239h92l33 239h56l-37 -239h41v-36h-47l-17 -109h64v-36h-69zM336 392l16 -109h51l15 109h-82zM129 392l15 -109h51l15 109h-81zM251 392l-15 -109h74
l-15 109h-44zM357 247l21 -148l20 148h-41zM149 247l20 -148l21 148h-41zM273 551l-17 -123h34z" />
    <glyph glyph-name="afii57636" unicode="&#x20aa;" horiz-adv-x="471" 
d="M286 0h-125v398h44v-357h81q42 0 61 25t19 84v400h44v-342q0 -117 -26 -162.5t-98 -45.5zM185 550q72 0 98 -45.5t26 -162.5v-191h-44v249q0 59 -19 84t-61 25h-80v-509h-44v550h124z" />
    <glyph glyph-name="dong" unicode="&#x20ab;" horiz-adv-x="382" 
d="M303 -129h-244v36h244v-36zM307 0h-49v68q-15 -37 -40 -58.5t-50 -21.5q-64 0 -95 69t-31 184q0 114 31 184t95 70q26 0 51 -21t39 -60v124h-120v36h120v93h49v-93h49v-36h-49v-538zM177 32q25 0 48.5 27t32.5 63v237q-9 37 -32.5 64.5t-48.5 27.5q-83 0 -83 -210
q0 -209 83 -209z" />
    <glyph glyph-name="Euro" unicode="&#x20ac;" horiz-adv-x="384" 
d="M219 -12q-135 0 -157 255h-45v39h43q-1 16 -1 51t1 53h-43v40h45q22 252 157 252q51 0 79.5 -31.5t45.5 -84.5l-46 -17q-14 43 -31.5 63.5t-47.5 20.5q-83 0 -100 -203h128v-40h-130q-1 -17 -1 -53q0 -35 1 -51h130v-39h-128q15 -206 100 -206q34 0 52 26.5t29 76.5
l47 -18q-33 -134 -128 -134z" />
    <glyph glyph-name="afii61289" unicode="&#x2113;" horiz-adv-x="352" 
d="M121 290v-204q0 -32 7.5 -44.5t24.5 -12.5q22 0 34 19l22 -31q-25 -29 -62 -29q-75 0 -75 96v450q0 64 36.5 103.5t96.5 39.5q51 0 89 -30t38 -85q0 -36 -17.5 -68.5t-63.5 -77.5zM121 350l94 93q39 39 54.5 64.5t15.5 54.5q0 32 -23.5 53.5t-56.5 21.5q-39 0 -61.5 -27
t-22.5 -76v-184z" />
    <glyph glyph-name="afii61352" unicode="&#x2116;" horiz-adv-x="696" 
d="M556 350q-52 0 -78.5 47t-26.5 118t26.5 118t78.5 47t79 -47t27 -118t-27 -118t-79 -47zM556 385q63 0 63 130q0 129 -63 129t-63 -129q0 -130 63 -130zM348 0h-52l-175 518v-518h-53v667h53l173 -511v511h54v-667z" />
    <glyph glyph-name="published" unicode="&#x2117;" horiz-adv-x="778" 
d="M734 334q0 -142 -101 -243.5t-244 -101.5t-244 101.5t-101 243.5t101 243.5t244 101.5t244 -101.5t101 -243.5zM706 334q0 130 -93 223.5t-224 93.5t-224 -93.5t-93 -223.5t93 -223.5t224 -93.5t224 93.5t93 223.5zM547 421q0 -52 -36 -82.5t-89 -30.5h-112v-177h-33v405
h145q53 0 89 -31t36 -84zM514 421q0 39 -25 61.5t-67 22.5h-112v-166h112q42 0 67 22t25 60z" />
    <glyph glyph-name="servicemark" unicode="&#x2120;" horiz-adv-x="374" 
d="M337 447h-28v182l-55 -182h-8l-55 182v-182h-28v220h43l44 -157l44 157h43v-220zM122 501q0 -26 -15.5 -43t-40.5 -17q-32 0 -51 21l14 25q16 -19 34 -19q12 0 21 9t9 24q0 17 -11.5 30.5t-24.5 22t-24.5 25t-11.5 37.5q0 25 15 41t39 16q25 0 43 -16l-12 -24
q-12 13 -29 13q-11 0 -18.5 -8t-7.5 -22t11 -26.5t24.5 -21.5t24.5 -26.5t11 -40.5z" />
    <glyph glyph-name="trademark" unicode="&#x2122;" horiz-adv-x="374" 
d="M339 447h-28v182l-55 -182h-8l-55 182v-182h-28v220h43l44 -157l44 157h43v-220zM129 641h-42v-194h-28v194h-42v26h112v-26z" />
    <glyph glyph-name="Omega" unicode="&#x2126;" horiz-adv-x="397" 
d="M48 49h72q-81 93 -81 290q0 160 40 249.5t120 89.5t120 -89.5t40 -249.5q0 -196 -82 -290h72v-49h-116v49q26 24 47.5 94.5t21.5 189.5q0 295 -103 295t-103 -295q0 -119 21.5 -189.5t47.5 -94.5v-49h-117v49z" />
    <glyph glyph-name="estimated" unicode="&#x212e;" horiz-adv-x="842" 
d="M811 324h-632q-5 0 -5 -5v-190q0 -14 9 -23q98 -103 240 -103q151 0 250 115h57q-54 -63 -135 -99.5t-174 -36.5q-161 0 -275.5 103t-114.5 248t114.5 248t275.5 103t275.5 -103t114.5 -248v-9zM668 349v191q0 14 -10 24q-97 99 -235 99q-140 0 -239 -102
q-10 -10 -10 -24v-188q0 -6 5 -6h485q4 0 4 6z" />
    <glyph glyph-name="onethird" unicode="&#x2153;" horiz-adv-x="576" 
d="M146 267h-43v344l-60 -65l-26 26l91 95h38v-400zM424 667l-272 -667h-36l271 667h37zM552 108q0 -52 -26.5 -83.5t-76.5 -31.5q-35 0 -61.5 19t-40.5 48l31 24q24 -55 69 -55q62 0 62 81q0 42 -19 60.5t-45 18.5q-21 0 -25 -1v36q5 -1 23 -1q28 0 45 18.5t17 53.5
q0 75 -57 75q-42 0 -67 -50l-30 23q15 29 41 46t57 17q44 0 71 -26.5t27 -79.5q0 -33 -17.5 -59t-43.5 -34q26 -6 46 -33t20 -66z" />
    <glyph glyph-name="twothirds" unicode="&#x2154;" horiz-adv-x="612" 
d="M226 267h-193v33q96 139 122 185.5t26 86.5q0 30 -15.5 47.5t-39.5 17.5q-45 0 -69 -52l-30 23q36 65 100 65q43 0 70.5 -27t27.5 -73q0 -43 -27 -93t-114 -177h142v-36zM460 667l-272 -667h-36l271 667h37zM588 108q0 -52 -26.5 -83.5t-76.5 -31.5q-35 0 -61.5 19
t-40.5 48l31 24q24 -55 69 -55q62 0 62 81q0 42 -19 60.5t-45 18.5q-21 0 -25 -1v36q5 -1 23 -1q28 0 45 18.5t17 53.5q0 75 -57 75q-42 0 -67 -50l-30 23q15 29 41 46t57 17q44 0 71 -26.5t27 -79.5q0 -33 -17.5 -59t-43.5 -34q26 -6 46 -33t20 -66z" />
    <glyph glyph-name="oneeighth" unicode="&#x215b;" horiz-adv-x="576" 
d="M146 267h-43v344l-60 -65l-26 26l91 95h38v-400zM551 97q0 -48 -27 -76t-74 -28q-48 0 -75 27.5t-27 76.5q0 36 21.5 66t49.5 43q-26 12 -45.5 38.5t-19.5 61.5q0 48 27.5 74t68.5 26t68.5 -26t27.5 -74q0 -35 -19.5 -61.5t-45.5 -38.5q27 -12 48.5 -42.5t21.5 -66.5z
M504 301q0 33 -14.5 51.5t-39.5 18.5t-39.5 -18.5t-14.5 -51.5t19.5 -53.5t34.5 -25.5q15 4 34.5 25t19.5 54zM508 100q0 37 -22 63t-36 27q-14 -1 -36 -27t-22 -64q0 -34 16.5 -53t41.5 -19t41.5 19.5t16.5 53.5zM424 667l-272 -667h-36l271 667h37z" />
    <glyph glyph-name="threeeighths" unicode="&#x215c;" horiz-adv-x="612" 
d="M587 97q0 -48 -27 -76t-74 -28q-48 0 -75 27.5t-27 76.5q0 36 21.5 66t49.5 43q-26 12 -45.5 38.5t-19.5 61.5q0 48 27.5 74t68.5 26t68.5 -26t27.5 -74q0 -35 -19.5 -61.5t-45.5 -38.5q27 -12 48.5 -42.5t21.5 -66.5zM540 301q0 33 -14.5 51.5t-39.5 18.5t-39.5 -18.5
t-14.5 -51.5t19.5 -53.5t34.5 -25.5q15 4 34.5 25t19.5 54zM544 100q0 37 -22 63t-36 27q-14 -1 -36 -27t-22 -64q0 -34 16.5 -53t41.5 -19t41.5 19.5t16.5 53.5zM460 667l-272 -667h-36l271 667h37zM228 375q0 -52 -26.5 -83.5t-76.5 -31.5q-35 0 -61.5 19t-40.5 48l31 24
q24 -55 69 -55q62 0 62 81q0 42 -19 60.5t-45 18.5q-21 0 -25 -1v36q5 -1 23 -1q28 0 45 18.5t17 53.5q0 75 -57 75q-42 0 -67 -50l-30 23q15 29 41 46t57 17q44 0 71 -26.5t27 -79.5q0 -33 -17.5 -59t-43.5 -34q26 -6 46 -33t20 -66z" />
    <glyph glyph-name="fiveeighths" unicode="&#x215d;" horiz-adv-x="611" 
d="M586 97q0 -48 -27 -76t-74 -28q-48 0 -75 27.5t-27 76.5q0 36 21.5 66t49.5 43q-26 12 -45.5 38.5t-19.5 61.5q0 48 27.5 74t68.5 26t68.5 -26t27.5 -74q0 -35 -19.5 -61.5t-45.5 -38.5q27 -12 48.5 -42.5t21.5 -66.5zM539 301q0 33 -14.5 51.5t-39.5 18.5t-39.5 -18.5
t-14.5 -51.5t19.5 -53.5t34.5 -25.5q15 4 34.5 25t19.5 54zM543 100q0 37 -22 63t-36 27q-14 -1 -36 -27t-22 -64q0 -34 16.5 -53t41.5 -19t41.5 19.5t16.5 53.5zM227 390q0 -55 -28.5 -92.5t-74.5 -37.5q-67 0 -101 67l31 23q23 -54 69 -54q27 0 44 28t17 66
q0 46 -15.5 69.5t-41.5 23.5q-34 0 -61 -40l-32 13v211h176v-36h-134v-148q23 34 63 34q38 0 63 -33.5t25 -93.5zM459 667l-272 -667h-36l271 667h37z" />
    <glyph glyph-name="seveneighths" unicode="&#x215e;" horiz-adv-x="558" 
d="M533 97q0 -48 -27 -76t-74 -28q-48 0 -75 27.5t-27 76.5q0 36 21.5 66t49.5 43q-26 12 -45.5 38.5t-19.5 61.5q0 48 27.5 74t68.5 26t68.5 -26t27.5 -74q0 -35 -19.5 -61.5t-45.5 -38.5q27 -12 48.5 -42.5t21.5 -66.5zM486 301q0 33 -14.5 51.5t-39.5 18.5t-39.5 -18.5
t-14.5 -51.5t19.5 -53.5t34.5 -25.5q15 4 34.5 25t19.5 54zM490 100q0 37 -22 63t-36 27q-14 -1 -36 -27t-22 -64q0 -34 16.5 -53t41.5 -19t41.5 19.5t16.5 53.5zM207 638l-106 -371h-42l107 364h-147v36h188v-29zM406 667l-272 -667h-36l271 667h37z" />
    <glyph glyph-name="arrowleft" unicode="&#x2190;" horiz-adv-x="582" 
d="M538 211h-269l12 -130l-281 205l281 204l-12 -129h269v-150z" />
    <glyph glyph-name="arrowup" unicode="&#x2191;" horiz-adv-x="582" 
d="M216 17v269l-130 -12l205 281l204 -281l-129 12v-269h-150z" />
    <glyph glyph-name="arrowright" unicode="&#x2192;" horiz-adv-x="582" 
d="M584 286l-281 -205l12 130h-268v150h268l-12 129z" />
    <glyph glyph-name="arrowdown" unicode="&#x2193;" horiz-adv-x="582" 
d="M366 555v-269l130 12l-205 -281l-204 281l129 -12v269h150z" />
    <glyph glyph-name="partialdiff" unicode="&#x2202;" horiz-adv-x="367" 
d="M184 -12q-73 0 -107.5 71t-34.5 180q0 69 12.5 123t43.5 90t78 36q55 0 79 -58q-32 132 -94 226l43 23q121 -197 121 -437q0 -111 -34 -182.5t-107 -71.5zM184 32q88 0 88 207q0 205 -88 205q-89 0 -89 -205q0 -207 89 -207z" />
    <glyph glyph-name="Delta" unicode="&#x2206;" horiz-adv-x="373" 
d="M363 0h-354l146 667h63zM300 49l-114 549l-113 -549h227z" />
    <glyph glyph-name="product" unicode="&#x220f;" horiz-adv-x="387" 
d="M314 -90h-54v708h-134v-708h-54v708h-54v49h351v-49h-55v-708z" />
    <glyph glyph-name="summation" unicode="&#x2211;" horiz-adv-x="310" 
d="M101 618l116 -319l-118 -340h176v-49h-230v50l117 339l-117 319v49h230v-49h-174z" />
    <glyph glyph-name="minus" unicode="&#x2212;" horiz-adv-x="376" 
d="M347 317h-318v40h318v-40z" />
    <glyph glyph-name="uni2215" unicode="&#x2215;" horiz-adv-x="108" 
d="M208 667l-272 -667h-36l271 667h37z" />
    <glyph glyph-name="uni2219" unicode="&#x2219;" horiz-adv-x="217" 
d="M151 245q0 -17 -12.5 -30t-29.5 -13q-18 0 -30.5 13t-12.5 30t12.5 29.5t30.5 12.5q17 0 29.5 -12.5t12.5 -29.5z" />
    <glyph glyph-name="radical" unicode="&#x221a;" horiz-adv-x="464" 
d="M289 0h-45l-74 324l-120 -25l-7 38l155 33l69 -317l141 614h38z" />
    <glyph glyph-name="infinity" unicode="&#x221e;" horiz-adv-x="473" 
d="M134 176q-51 0 -78 47t-27 112t27 112.5t78 47.5q66 0 102 -111q16 48 42 79t61 31q51 0 78 -47t27 -112t-27 -112t-78 -47q-35 0 -61.5 31t-41.5 80q-35 -111 -102 -111zM332 216q35 0 53.5 33t18.5 86t-18.5 86.5t-53.5 33.5q-47 0 -77 -120q30 -119 77 -119zM141 216
q46 0 78 119q-32 120 -78 120q-34 0 -53 -33.5t-19 -86.5t19 -86t53 -33z" />
    <glyph glyph-name="integral" unicode="&#x222b;" horiz-adv-x="230" 
d="M48 -100h-31v40h31q19 0 32.5 17t13.5 42v670q0 44 26.5 71.5t61.5 27.5h31v-41h-31q-19 0 -32.5 -16t-13.5 -42v-670q0 -44 -26.5 -71.5t-61.5 -27.5z" />
    <glyph glyph-name="approxequal" unicode="&#x2248;" horiz-adv-x="376" 
d="M29 216v43q36 -19 80 -19q33 0 75.5 16.5t82.5 16.5q43 0 80 -15v-43q-34 19 -80 19q-34 0 -76.5 -16.5t-81.5 -16.5q-43 0 -80 15zM29 410v43q34 -19 80 -19q33 0 75.5 16.5t82.5 16.5q43 0 80 -15v-43q-35 18 -80 18q-33 0 -76 -16t-82 -16q-43 0 -80 15z" />
    <glyph glyph-name="notequal" unicode="&#x2260;" horiz-adv-x="376" 
d="M107 93h-36l50 123h-92v40h109l64 156h-173v40h189l50 122h37l-50 -122h92v-40h-109l-64 -156h173v-40h-189z" />
    <glyph glyph-name="lessequal" unicode="&#x2264;" horiz-adv-x="376" 
d="M347 164l-318 153v35l318 153v-47l-267 -124l267 -123v-47zM347 52h-318v40h318v-40z" />
    <glyph glyph-name="greaterequal" unicode="&#x2265;" horiz-adv-x="376" 
d="M347 317l-318 -153v47l267 123l-267 124v47l318 -153v-35zM347 52h-318v40h318v-40z" />
    <glyph glyph-name="triangleright" unicode="&#x22b2;" horiz-adv-x="587" 
d="M589 286l-535 -309v618z" />
    <glyph glyph-name="triangleleft" unicode="&#x22b3;" horiz-adv-x="587" 
d="M535 595v-618l-535 309z" />
    <glyph glyph-name="dotmath" unicode="&#x22c5;" horiz-adv-x="217" 
d="M151 245q0 -17 -12.5 -30t-29.5 -13q-18 0 -30.5 13t-12.5 30t12.5 29.5t30.5 12.5q17 0 29.5 -12.5t12.5 -29.5z" />
    <glyph glyph-name="uni2318" unicode="&#x2318;" horiz-adv-x="667" 
d="M230 154v78h-77q-32 0 -54 -23t-22 -55q0 -33 22 -56t54 -23t54.5 23.5t22.5 55.5zM230 435v79q0 32 -22 55t-54 23t-54.5 -23t-22.5 -55t22.5 -55.5t54.5 -23.5h76zM265 265h137v137h-137v-137zM590 154q0 32 -22 55t-54 23h-77v-78q0 -32 22.5 -55.5t54.5 -23.5t54 23
t22 56zM590 514q0 32 -22 55t-54 23t-54.5 -23t-22.5 -55v-79h77q32 0 54 23t22 56zM625 154q0 -46 -32.5 -79t-78.5 -33t-79 33t-33 79v78h-137v-78q0 -46 -33 -79t-79 -33t-78.5 33t-32.5 79t32.5 78.5t78.5 32.5h77v137h-76q-46 0 -79 33t-33 79t33 78.5t79 32.5
t78.5 -32.5t32.5 -78.5v-79h137v79q0 46 33 78.5t79 32.5t78.5 -32.5t32.5 -78.5t-32.5 -79t-78.5 -33h-77v-137h77q46 0 78.5 -32.5t32.5 -78.5z" />
    <glyph glyph-name="blacksquare" unicode="&#x25a0;" horiz-adv-x="661" 
d="M618 0h-571v572h571v-572z" />
    <glyph glyph-name="triagup" unicode="&#x25b2;" horiz-adv-x="616" 
d="M617 29l-619 1l309 535z" />
    <glyph glyph-name="triagdn" unicode="&#x25bc;" horiz-adv-x="616" 
d="M617 510l-310 -535l-309 535h619z" />
    <glyph glyph-name="lozenge" unicode="&#x25ca;" horiz-adv-x="375" 
d="M198 0h-21l-158 334l158 333h21l158 -333zM188 41l132 293l-133 292l-132 -292z" />
    <glyph glyph-name="circlesolid" unicode="&#x25cf;" horiz-adv-x="695" 
d="M644 285q0 -123 -87 -210t-210 -87t-210 87t-87 210t87 210t210 87t210 -87t87 -210z" />
    <glyph glyph-name="blackstar" unicode="&#x2605;" horiz-adv-x="759" 
d="M759 421l-235 -171l90 -275l-235 170l-234 -170l89 275l-234 171h290l89 276l90 -276h290z" />
    <glyph glyph-name="ballotbox" unicode="&#x2610;" horiz-adv-x="661" 
d="M616 0h-571v572h571v-572zM574 40v492h-487v-492h487z" />
    <glyph glyph-name="boxchecked" unicode="&#x2611;" horiz-adv-x="661" 
d="M670 698l-69 -126h15v-572h-571v572h510l80 150zM574 40v481l-233 -430l-202 246l32 30l165 -204l197 369h-446v-492h487z" />
    <glyph glyph-name="diamond" unicode="&#x2666;" horiz-adv-x="501" 
d="M501 285l-251 -250l-250 250l250 251z" />
    <glyph glyph-name="checkmark" unicode="&#x2713;" horiz-adv-x="531" 
d="M531 698l-329 -607l-202 246l32 30l165 -204l299 559z" />
    <glyph glyph-name="perthousand.onum" unicode="&#xf628;" horiz-adv-x="681" 
d="M222 425q0 -59 -27.5 -97t-71.5 -38t-71.5 38t-27.5 97t27.5 98t71.5 39t71.5 -39t27.5 -98zM433 124q0 -59 -27.5 -97.5t-71.5 -38.5t-71.5 38.5t-27.5 97.5t27.5 98t71.5 39t71.5 -39t27.5 -98zM369 549l-243 -549h-36l242 549h37zM181 425q0 45 -15 74.5t-43 29.5
t-43.5 -29.5t-15.5 -74.5q0 -44 15.5 -73t43.5 -29t43 28.5t15 73.5zM393 124q0 44 -16.5 73.5t-42.5 29.5q-27 0 -43.5 -29.5t-16.5 -73.5q0 -43 16.5 -73t43.5 -30q26 0 42.5 30t16.5 73zM656 124q0 -59 -27.5 -97.5t-71.5 -38.5t-71.5 38.5t-27.5 97.5t27.5 98t71.5 39
t71.5 -39t27.5 -98zM617 124q0 44 -16.5 73.5t-43.5 29.5t-43 -29.5t-16 -73.5t16 -73.5t43 -29.5t43.5 30t16.5 73z" />
    <glyph glyph-name="uniF637" unicode="&#xf637;" horiz-adv-x="277" 
d="M229 326h-41v240q0 48 -37 48q-18 0 -35 -16t-27 -38v-234h-40v434h40v-164q12 21 33 36.5t43 15.5q64 0 64 -73v-249z" />
    <glyph glyph-name="zero.tzero" unicode="&#xf638;" horiz-adv-x="369" 
d="M185 -12q-57 0 -93 52l-15 -40h-42l34 88q-34 87 -34 245q0 64 6.5 119.5t21.5 109t46.5 84.5t75.5 31q55 0 91 -52l16 42h42l-34 -88q34 -90 34 -246q0 -345 -149 -345zM185 37q25 0 42.5 19.5t27 47t15 71t6.5 78t1 80.5q0 105 -9 164l-153 -397q23 -63 70 -63zM92 333
q0 -113 8 -165l153 397q-23 63 -68 63q-25 0 -42.5 -19t-27 -47t-15 -71t-7 -77.5t-1.5 -80.5z" />
    <glyph glyph-name="zero.tnum" unicode="&#xf639;" horiz-adv-x="369" 
d="M185 -12q-44 0 -75.5 31.5t-46.5 85.5t-21.5 109t-6.5 119t6.5 119.5t21.5 109t46.5 84.5t75.5 31t75 -31t46.5 -85t21.5 -109t6 -119q0 -345 -149 -345zM185 37q25 0 42.5 19.5t27 47t15 71t6.5 78t1 80.5q0 47 -1 81t-6.5 77.5t-15 70.5t-27 46.5t-42.5 19.5t-42.5 -19
t-27 -47t-15 -71t-7 -77.5t-1.5 -80.5q0 -39 1 -67t3.5 -65.5t9 -63.5t16 -50.5t26 -37t37.5 -12.5z" />
    </font>
</defs>
</svg>
